Cascade-SemiBoldItalic.ufo
<glyph name="exclam" format="2">
  <advance width="290"/>
  <unicode hex="0021"/>
  <outline>
    <contour>
      <point x="169.667" y="700" type="line" name="n00"/>
      <point x="100.333" y="193.333" type="line"/>
      <point x="207" y="193.333" type="line"/>
      <point x="316.333" y="700" type="line"/>
    </contour>
    <contour>
      <point x="118.667" y="110" type="curve" smooth="yes" name="n04"/>
      <point x="89.6667" y="98.3333"/>
      <point x="70.3333" y="66.6667"/>
      <point x="76.6667" y="40" type="curve" smooth="yes"/>
      <point x="83.6667" y="13.3333"/>
      <point x="112.333" y="-1.66667" name="n09"/>
      <point x="141.333" y="10" type="curve" smooth="yes" name="n10"/>
      <point x="170.333" y="21.6667"/>
      <point x="190" y="53.3333"/>
      <point x="183.667" y="80" type="curve" smooth="yes"/>
      <point x="176.667" y="106.667"/>
      <point x="147.667" y="121.667"/>
    </contour>
  </outline>
</glyph>
<glyph name="quotedbl" format="2">
  <advance width="367"/>
  <unicode hex="0022"/>
  <outline>
    <contour>
      <point x="134.667" y="700" type="line" name="n00"/>
      <point x="115.333" y="456.667" type="line" name="n01"/>
      <point x="193.667" y="456.667" type="line"/>
      <point x="259.667" y="700" type="line"/>
    </contour>
    <contour>
      <point x="303" y="700" type="line"/>
      <point x="283.667" y="456.667" type="line"/>
      <point x="362" y="456.667" type="line"/>
      <point x="428" y="700" type="line" name="n07"/>
    </contour>
  </outline>
</glyph>
<glyph name="numbersign" format="2">
  <advance width="665"/>
  <unicode hex="0023"/>
  <outline>
    <contour>
      <point x="385" y="526.667" type="line"/>
      <point x="459.333" y="700" type="line" name="n01"/>
      <point x="339.333" y="700" type="line"/>
      <point x="265" y="526.667" type="line"/>
      <point x="142" y="526.667" type="line" name="n04"/>
      <point x="127.333" y="443.333" type="line" name="n05"/>
      <point x="231.667" y="443.333" type="line"/>
      <point x="153.333" y="256.667" type="line"/>
      <point x="36.3333" y="256.667" type="line" name="n08"/>
      <point x="21.3333" y="173.333" type="line" name="n09"/>
      <point x="116.333" y="173.333" type="line"/>
      <point x="43" y="0" type="line" name="n11"/>
      <point x="163" y="0" type="line"/>
      <point x="236.333" y="173.333" type="line"/>
      <point x="349.667" y="173.333" type="line"/>
      <point x="276.333" y="0" type="line"/>
      <point x="396.333" y="0" type="line"/>
      <point x="469.667" y="173.333" type="line"/>
      <point x="594.667" y="173.333" type="line"/>
      <point x="609.667" y="256.667" type="line"/>
      <point x="506.667" y="256.667" type="line"/>
      <point x="585" y="443.333" type="line"/>
      <point x="700.667" y="443.333" type="line"/>
      <point x="715.333" y="526.667" type="line" name="n23"/>
      <point x="618.333" y="526.667" type="line"/>
      <point x="692.667" y="700" type="line"/>
      <point x="572.667" y="700" type="line"/>
      <point x="498.333" y="526.667" type="line"/>
    </contour>
    <contour>
      <point x="273.333" y="256.667" type="line"/>
      <point x="351.667" y="443.333" type="line"/>
      <point x="465" y="443.333" type="line"/>
      <point x="386.667" y="256.667" type="line"/>
    </contour>
  </outline>
</glyph>
<glyph name="dollar" format="2">
  <advance width="522"/>
  <unicode hex="0024"/>
  <outline>
    <contour>
      <point x="155.333" y="-70" type="line" name="hr04"/>
      <point x="280.333" y="-70" type="line" name="n01"/>
      <point x="293" y="-1.66667" type="line"/>
      <point x="408" y="21.3333"/>
      <point x="478.667" y="91.3333"/>
      <point x="496.333" y="190" type="curve" smooth="yes"/>
      <point x="536.333" y="413.333"/>
      <point x="209.333" y="384"/>
      <point x="234.667" y="530" type="curve" smooth="yes"/>
      <point x="243.667" y="579.667"/>
      <point x="298.333" y="626.667"/>
      <point x="363.333" y="626.667" type="curve" smooth="yes" name="n11"/>
      <point x="409.667" y="626.667"/>
      <point x="443" y="614.667"/>
      <point x="464.667" y="603.667" type="curve"/>
      <point x="477" y="596.667"/>
      <point x="487" y="589.667"/>
      <point x="495.333" y="581.667" type="curve"/>
      <point x="505.333" y="581.667" type="line"/>
      <point x="560" y="655" type="line"/>
      <point x="551" y="662.333"/>
      <point x="539" y="669.667"/>
      <point x="525.667" y="676.667" type="curve"/>
      <point x="502.333" y="688"/>
      <point x="467" y="701"/>
      <point x="417.333" y="706" type="curve" name="n25"/>
      <point x="428.333" y="770" type="line" name="hr02"/>
      <point x="303.333" y="770" type="line" name="n27"/>
      <point x="291.333" y="701" type="line"/>
      <point x="189" y="676.667"/>
      <point x="121.333" y="606.667"/>
      <point x="106" y="520" type="curve" smooth="yes"/>
      <point x="67.3333" y="296.667"/>
      <point x="393.667" y="326"/>
      <point x="367.667" y="180" type="curve" smooth="yes"/>
      <point x="356.333" y="116.333"/>
      <point x="306.333" y="73.3333"/>
      <point x="222.667" y="73.3333" type="curve" smooth="yes" name="n37"/>
      <point x="172.333" y="73.3333"/>
      <point x="137.667" y="84.3333"/>
      <point x="114.333" y="95.3333" type="curve"/>
      <point x="101" y="102.333"/>
      <point x="90.3333" y="109.333"/>
      <point x="80.6667" y="118.333" type="curve"/>
      <point x="70.6667" y="118.333" type="line"/>
      <point x="15.3333" y="45" type="line"/>
      <point x="25" y="38"/>
      <point x="37" y="30.6667"/>
      <point x="51.3333" y="23.6667" type="curve" smooth="yes"/>
      <point x="75.6667" y="12.3333"/>
      <point x="112.667" y="-0.666667"/>
      <point x="167" y="-5.66667" type="curve" name="n51"/>
    </contour>
  </outline>
</glyph>
<glyph name="percent" format="2">
  <advance width="833"/>
  <unicode hex="0025"/>
  <outline>
    <contour>
      <point x="229.333" y="350" type="curve" smooth="yes" name="n00"/>
      <point x="328" y="350"/>
      <point x="412" y="422"/>
      <point x="431.333" y="530" type="curve" smooth="yes"/>
      <point x="450.667" y="638"/>
      <point x="392" y="710"/>
      <point x="293.333" y="710" type="curve" smooth="yes" name="n06"/>
      <point x="194" y="710"/>
      <point x="110.667" y="638"/>
      <point x="91.3333" y="530" type="curve" smooth="yes"/>
      <point x="72" y="422"/>
      <point x="130.667" y="350"/>
    </contour>
    <contour>
      <point x="88.3333" y="0" type="line" name="n12"/>
      <point x="225" y="0" type="line"/>
      <point x="818" y="700" type="line" name="n14"/>
      <point x="681.333" y="700" type="line" name="hr01"/>
    </contour>
    <contour>
      <point x="242.333" y="423.333" type="curve" smooth="yes" name="n16"/>
      <point x="208.333" y="423.333"/>
      <point x="187.333" y="449.667"/>
      <point x="201.333" y="530" type="curve" smooth="yes"/>
      <point x="215.333" y="610.333"/>
      <point x="246.333" y="636.667"/>
      <point x="280.333" y="636.667" type="curve" smooth="yes" name="n22"/>
      <point x="313" y="636.667"/>
      <point x="335.333" y="609.667"/>
      <point x="321.333" y="530" type="curve" smooth="yes"/>
      <point x="307.333" y="449.667"/>
      <point x="275" y="423.333"/>
    </contour>
    <contour>
      <point x="613" y="-10" type="curve" smooth="yes" name="n28"/>
      <point x="711.667" y="-10"/>
      <point x="794.667" y="62"/>
      <point x="814" y="170" type="curve" smooth="yes"/>
      <point x="833.667" y="277.667"/>
      <point x="774.333" y="350"/>
      <point x="676" y="350" type="curve" smooth="yes" name="n34"/>
      <point x="577.333" y="350"/>
      <point x="493.667" y="278"/>
      <point x="474" y="170" type="curve" smooth="yes"/>
      <point x="454.667" y="62"/>
      <point x="514.333" y="-10"/>
    </contour>
    <contour>
      <point x="625.667" y="63.3333" type="curve" smooth="yes" name="n40"/>
      <point x="592" y="63.3333"/>
      <point x="570" y="89.6667"/>
      <point x="584" y="170" type="curve"/>
      <point x="599.333" y="251"/>
      <point x="629.333" y="276.667"/>
      <point x="663.333" y="276.667" type="curve" smooth="yes" name="n46"/>
      <point x="697.333" y="276.667"/>
      <point x="718" y="249.667" name="hr03"/>
      <point x="704" y="170" type="curve" smooth="yes"/>
      <point x="690" y="89"/>
      <point x="660" y="63.3333"/>
    </contour>
  </outline>
</glyph>
<glyph name="ampersand" format="2">
  <advance width="635"/>
  <unicode hex="0026"/>
  <outline>
    <contour>
      <point x="218.388" y="-10" type="curve" smooth="yes" name="n00"/>
      <point x="291.416" y="-10"/>
      <point x="363.307" y="13.0809"/>
      <point x="423.667" y="53.3333" type="curve"/>
      <point x="458.333" y="0" type="line" name="n04"/>
      <point x="605" y="0" type="line" name="n05"/>
      <point x="519.333" y="131.667" type="line" name="n06"/>
      <point x="562.667" y="180.333"/>
      <point x="596.667" y="238"/>
      <point x="611" y="320" type="curve" name="n09"/>
      <point x="494.333" y="320" type="line"/>
      <point x="487.613" y="278.3"/>
      <point x="480.053" y="249.7"/>
      <point x="465.333" y="213.333" type="curve"/>
      <point x="360" y="373.333" type="line"/>
      <point x="434.361" y="414.073"/>
      <point x="530.14" y="491.064"/>
      <point x="530.14" y="584.377" type="curve" smooth="yes"/>
      <point x="530.14" y="654.758"/>
      <point x="474.794" y="710"/>
      <point x="373.066" y="710" type="curve" smooth="yes" name="n20"/>
      <point x="260.153" y="710"/>
      <point x="151.832" y="641.655"/>
      <point x="151.832" y="525.77" type="curve" smooth="yes"/>
      <point x="151.832" y="469.277"/>
      <point x="177.523" y="416.998"/>
      <point x="213.667" y="380" type="curve"/>
      <point x="122.959" y="333.813"/>
      <point x="26.2318" y="256.965"/>
      <point x="26.2318" y="147.847" type="curve" smooth="yes"/>
      <point x="26.2318" y="56.1424"/>
      <point x="94.6346" y="-10" name="hr04"/>
    </contour>
    <contour>
      <point x="313" y="445" type="curve"/>
      <point x="296.059" y="470.016"/>
      <point x="279.813" y="505.628"/>
      <point x="279.813" y="537.21" type="curve" smooth="yes"/>
      <point x="279.813" y="580.218"/>
      <point x="308.865" y="631.667"/>
      <point x="355.245" y="631.667" type="curve" smooth="yes" name="n38"/>
      <point x="383.295" y="631.667"/>
      <point x="403.12" y="612.381"/>
      <point x="403.12" y="578.05" type="curve" smooth="yes"/>
      <point x="403.12" y="524.233"/>
      <point x="356.232" y="473.524"/>
    </contour>
    <contour>
      <point x="260.405" y="73.3333" type="curve" smooth="yes" name="n44"/>
      <point x="191.722" y="73.3333"/>
      <point x="154.422" y="109.899"/>
      <point x="154.422" y="161.228" type="curve" smooth="yes"/>
      <point x="154.422" y="223.029"/>
      <point x="206.646" y="274.52"/>
      <point x="256.333" y="305" type="curve"/>
      <point x="383" y="113.333" type="line"/>
      <point x="347.906" y="85"/>
      <point x="299.263" y="73.3333"/>
    </contour>
  </outline>
</glyph>
<glyph name="quotesingle" format="2">
  <advance width="198"/>
  <unicode hex="0027"/>
  <outline>
    <contour>
      <point x="134.667" y="700" type="line" name="n00"/>
      <point x="115.333" y="456.667" type="line" name="n01"/>
      <point x="193.667" y="456.667" type="line"/>
      <point x="259.667" y="700" type="line" name="n03"/>
    </contour>
  </outline>
</glyph>
<glyph name="parenleft" format="2">
  <advance width="308"/>
  <unicode hex="0028"/>
  <outline>
    <contour>
      <point x="172.333" y="280" type="curve" smooth="yes"/>
      <point x="184" y="343"/>
      <point x="239.333" y="370"/>
      <point x="340.333" y="401.667" type="curve"/>
      <point x="326" y="451.667" type="line" name="n04"/>
      <point x="210.333" y="421"/>
      <point x="124" y="349.667"/>
      <point x="112.333" y="280" type="curve"/>
      <point x="99.3333" y="211"/>
      <point x="160.667" y="139"/>
      <point x="265.333" y="108.333" type="curve" name="n10"/>
      <point x="297.667" y="158.333" type="line"/>
      <point x="207.667" y="190"/>
      <point x="160.667" y="217"/>
    </contour>
  </outline>
</glyph>
<glyph name="parenright" format="2">
  <advance width="308"/>
  <unicode hex="0029"/>
  <outline>
    <contour>
      <point x="184" y="280" type="curve" smooth="yes"/>
      <point x="172.333" y="217"/>
      <point x="116.333" y="190"/>
      <point x="16.6667" y="158.333" type="curve"/>
      <point x="30.3333" y="108.333" type="line" name="n04"/>
      <point x="146.333" y="139.333"/>
      <point x="230.333" y="210.333"/>
      <point x="244" y="280" type="curve"/>
      <point x="255" y="349"/>
      <point x="196" y="421"/>
      <point x="91.3333" y="451.667" type="curve" name="n10"/>
      <point x="58.6667" y="401.667" type="line"/>
      <point x="148" y="370"/>
      <point x="195.667" y="343"/>
    </contour>
  </outline>
</glyph>
<glyph name="asterisk" format="2">
  <advance width="430"/>
  <unicode hex="002A"/>
  <outline>
    <contour>
      <point x="292.667" y="680" type="line" name="n00"/>
      <point x="217.667" y="660" type="line"/>
      <point x="236.333" y="568" type="line"/>
      <point x="138" y="586.667" type="line"/>
      <point x="106.667" y="513.333" type="line"/>
      <point x="202.667" y="496.667" type="line"/>
      <point x="125.333" y="420" type="line" name="n06"/>
      <point x="169.333" y="366.667" type="line"/>
      <point x="250" y="444.667" type="line"/>
      <point x="268.667" y="353.333" type="line"/>
      <point x="344" y="373.333" type="line"/>
      <point x="325" y="464.667" type="line"/>
      <point x="423.667" y="446.667" type="line"/>
      <point x="454.667" y="520" type="line"/>
      <point x="358.333" y="536.667" type="line"/>
      <point x="436" y="613.333" type="line" name="n15"/>
      <point x="392" y="666.667" type="line"/>
      <point x="311.667" y="588" type="line"/>
    </contour>
  </outline>
</glyph>
<glyph name="plus" format="2">
  <advance width="483"/>
  <unicode hex="002B"/>
  <outline>
    <contour>
      <point x="190.667" y="118.333" type="line"/>
      <point x="284" y="118.333" type="line"/>
      <point x="313" y="283.333" type="line" name="n02"/>
      <point x="478" y="283.333" type="line"/>
      <point x="494.667" y="376.667" type="line" name="n04"/>
      <point x="329.667" y="376.667" type="line" name="n05"/>
      <point x="358.667" y="541.667" type="line"/>
      <point x="265.333" y="541.667" type="line"/>
      <point x="236.333" y="376.667" type="line"/>
      <point x="71.3333" y="376.667" type="line"/>
      <point x="54.6667" y="283.333" type="line" name="n10"/>
      <point x="219.667" y="283.333" type="line"/>
    </contour>
  </outline>
</glyph>
<glyph name="hyphen" format="2">
  <advance width="447"/>
  <unicode hex="002D"/>
  <outline>
    <contour>
      <point x="54.6667" y="283.333" type="line" name="n00"/>
      <point x="441.333" y="283.333" type="line"/>
      <point x="458" y="376.667" type="line" name="n02"/>
      <point x="71.3333" y="376.667" type="line" name="n03"/>
    </contour>
  </outline>
</glyph>
<glyph name="period" format="2">
  <advance width="213"/>
  <unicode hex="002E"/>
  <outline>
    <contour>
      <point x="80.3333" y="110" type="curve" smooth="yes" name="n00"/>
      <point x="51.3333" y="98.3333"/>
      <point x="32" y="66.6667"/>
      <point x="38.3333" y="40" type="curve" smooth="yes"/>
      <point x="45.3333" y="13.3333"/>
      <point x="74" y="-1.66667"/>
      <point x="103" y="10" type="curve" smooth="yes" name="n06"/>
      <point x="132" y="21.6667"/>
      <point x="151.667" y="53.3333"/>
      <point x="145.333" y="80" type="curve" smooth="yes"/>
      <point x="138.333" y="106.667"/>
      <point x="109.333" y="121.667"/>
    </contour>
  </outline>
</glyph>
<glyph name="zero" format="2">
  <advance width="600"/>
  <unicode hex="0030"/>
  <outline>
    <contour>
      <point x="273" y="-10" type="curve" smooth="yes" name="n00"/>
      <point x="417.667" y="-10"/>
      <point x="539.333" y="93.3333"/>
      <point x="584.333" y="350" type="curve" smooth="yes"/>
      <point x="629.333" y="606.667"/>
      <point x="545.333" y="710"/>
      <point x="400" y="710" type="curve" smooth="yes" name="n06"/>
      <point x="255.667" y="710"/>
      <point x="132.667" y="606.667"/>
      <point x="87.6667" y="350" type="curve" smooth="yes"/>
      <point x="42.6667" y="93.3333"/>
      <point x="127.667" y="-10"/>
    </contour>
    <contour>
      <point x="287.667" y="73.3333" type="curve" smooth="yes" name="n12"/>
      <point x="221.667" y="73.3333"/>
      <point x="176.333" y="130.333"/>
      <point x="214.333" y="350" type="curve" smooth="yes"/>
      <point x="252.333" y="569.667"/>
      <point x="320.667" y="626.667"/>
      <point x="385" y="626.667" type="curve" smooth="yes" name="n18"/>
      <point x="451" y="626.667"/>
      <point x="495.667" y="569.667"/>
      <point x="457.667" y="350" type="curve" smooth="yes"/>
      <point x="419.667" y="130.333"/>
      <point x="352" y="73.3333"/>
    </contour>
  </outline>
</glyph>
<glyph name="one" format="2">
  <advance width="403"/>
  <unicode hex="0031"/>
  <outline>
    <contour>
      <point x="25" y="0" type="line" name="n00"/>
      <point x="358.333" y="0" type="line"/>
      <point x="372.333" y="83.3333" type="line"/>
      <point x="269" y="83.3333" type="line"/>
      <point x="378" y="700" type="line" name="n04"/>
      <point x="261.333" y="700" type="line"/>
      <point x="93.6667" y="580" type="line"/>
      <point x="131.667" y="511.667" type="line"/>
      <point x="228.333" y="570" type="line"/>
      <point x="142.333" y="83.3333" type="line"/>
      <point x="39" y="83.3333" type="line" name="n10"/>
    </contour>
  </outline>
</glyph>
<glyph name="two" format="2">
  <advance width="510"/>
  <unicode hex="0032"/>
  <outline>
    <contour>
      <point x="-1.66667" y="0" type="line"/>
      <point x="446.667" y="0" type="line" name="n01"/>
      <point x="460.667" y="83.3333" type="line" name="n02"/>
      <point x="139" y="83.3333" type="line"/>
      <point x="163" y="223.333"/>
      <point x="500.333" y="307.333"/>
      <point x="536.333" y="513.333" type="curve" smooth="yes"/>
      <point x="556.667" y="630"/>
      <point x="491.667" y="710"/>
      <point x="333.333" y="710" type="curve" smooth="yes" name="n09"/>
      <point x="266.333" y="710"/>
      <point x="214" y="697"/>
      <point x="177.667" y="682" type="curve"/>
      <point x="156" y="674"/>
      <point x="137.333" y="665"/>
      <point x="121.667" y="655" type="curve"/>
      <point x="150.333" y="581.667" type="line"/>
      <point x="160.333" y="581.667" type="line"/>
      <point x="171.333" y="589.667"/>
      <point x="184" y="596.667"/>
      <point x="199" y="603.667" type="curve"/>
      <point x="224.667" y="614.667"/>
      <point x="261.333" y="626.667"/>
      <point x="308.333" y="626.667" type="curve" smooth="yes" name="n23"/>
      <point x="387.333" y="626.667"/>
      <point x="422.667" y="583.333"/>
      <point x="411.667" y="523.333" type="curve" smooth="yes"/>
      <point x="382.333" y="360"/>
      <point x="49" y="290"/>
      <point x="10.3333" y="70" type="curve" smooth="yes"/>
    </contour>
  </outline>
</glyph>
<glyph name="three" format="2">
  <advance width="513"/>
  <unicode hex="0033"/>
  <outline>
    <contour>
      <point x="183" y="-10" type="curve" smooth="yes" name="n00"/>
      <point x="366" y="-10"/>
      <point x="465" y="73"/>
      <point x="486.667" y="200" type="curve" smooth="yes"/>
      <point x="508.333" y="325.667"/>
      <point x="441.667" y="416.667"/>
      <point x="276.667" y="416.667" type="curve"/>
      <point x="533.333" y="616.667" type="line" name="n07"/>
      <point x="548" y="700" type="line" name="n08"/>
      <point x="121.333" y="700" type="line"/>
      <point x="106.667" y="616.667" type="line"/>
      <point x="386.667" y="616.667" type="line"/>
      <point x="136.667" y="416.667" type="line" name="n12"/>
      <point x="121.667" y="333.333" type="line" name="n13"/>
      <point x="233.333" y="333.333" type="line" smooth="yes"/>
      <point x="337" y="333.333"/>
      <point x="375.333" y="287"/>
      <point x="360" y="200" type="curve" smooth="yes"/>
      <point x="346" y="119"/>
      <point x="291.333" y="73.3333"/>
      <point x="187.667" y="73.3333" type="curve" smooth="yes" name="n20"/>
      <point x="140.667" y="73.3333"/>
      <point x="108" y="84.3333"/>
      <point x="86.3333" y="95.3333" type="curve"/>
      <point x="74" y="102.333"/>
      <point x="64" y="109.333"/>
      <point x="55.6667" y="118.333" type="curve"/>
      <point x="45.6667" y="118.333" type="line"/>
      <point x="-9.66667" y="45" type="line"/>
      <point x="3" y="34"/>
      <point x="18" y="25"/>
      <point x="36.3333" y="17" type="curve"/>
      <point x="68" y="2"/>
      <point x="116" y="-10"/>
    </contour>
  </outline>
</glyph>
<glyph name="four" format="2">
  <advance width="553"/>
  <unicode hex="0034"/>
  <outline>
    <contour>
      <point x="308.333" y="0" type="line" name="n00"/>
      <point x="435" y="0" type="line"/>
      <point x="463.333" y="163.333" type="line" name="n02"/>
      <point x="536.667" y="163.333" type="line"/>
      <point x="551.667" y="246.667" type="line"/>
      <point x="478.333" y="246.667" type="line" name="n05"/>
      <point x="558" y="700" type="line" name="n06"/>
      <point x="438" y="700" type="line"/>
      <point x="28.3333" y="246.667" type="line"/>
      <point x="13.3333" y="163.333" type="line" name="n09"/>
      <point x="336.667" y="163.333" type="line"/>
    </contour>
    <contour>
      <point x="158.333" y="246.667" type="line"/>
      <point x="363.333" y="473.333" type="line" smooth="yes"/>
      <point x="375" y="486"/>
      <point x="385.333" y="501.667"/>
      <point x="393.667" y="514.667" type="curve" smooth="yes"/>
      <point x="407.667" y="536.667" type="line"/>
      <point x="411.667" y="536.667" type="line"/>
      <point x="403.333" y="515.333" type="line"/>
      <point x="399" y="503"/>
      <point x="394.667" y="487.333"/>
      <point x="391.667" y="473.333" type="curve"/>
      <point x="351.667" y="246.667" type="line"/>
    </contour>
  </outline>
</glyph>
<glyph name="five" format="2">
  <advance width="528"/>
  <unicode hex="0035"/>
  <outline>
    <contour>
      <point x="206.333" y="-10" type="curve" smooth="yes" name="n00"/>
      <point x="382" y="-10"/>
      <point x="479.333" y="73"/>
      <point x="503.667" y="213.333" type="curve" smooth="yes"/>
      <point x="528.333" y="353.667"/>
      <point x="460" y="436.667"/>
      <point x="289.667" y="436.667" type="curve" smooth="yes"/>
      <point x="241.333" y="436.667" type="line" name="n07"/>
      <point x="274.667" y="623.333" type="line"/>
      <point x="543.667" y="623.333" type="line" name="n09"/>
      <point x="557" y="700" type="line" name="n10"/>
      <point x="161.333" y="700" type="line"/>
      <point x="106.333" y="390.667" type="line"/>
      <point x="136" y="353.333" type="line"/>
      <point x="260" y="353.333" type="line" smooth="yes" name="n14"/>
      <point x="355" y="353.333"/>
      <point x="393.333" y="306.667"/>
      <point x="377" y="213.333" type="curve" smooth="yes"/>
      <point x="361" y="120"/>
      <point x="305.333" y="73.3333"/>
      <point x="211" y="73.3333" type="curve" smooth="yes" name="n20"/>
      <point x="164" y="73.3333"/>
      <point x="131.333" y="84.3333"/>
      <point x="109.667" y="95.3333" type="curve"/>
      <point x="97.3333" y="102.333"/>
      <point x="87.3333" y="109.333"/>
      <point x="79" y="118.333" type="curve"/>
      <point x="69" y="118.333" type="line"/>
      <point x="13.6667" y="45" type="line"/>
      <point x="26.3333" y="34"/>
      <point x="41.3333" y="25"/>
      <point x="59.6667" y="17" type="curve"/>
      <point x="91.3333" y="2"/>
      <point x="139.333" y="-10"/>
    </contour>
  </outline>
</glyph>
<glyph name="six" format="2">
  <advance width="552"/>
  <unicode hex="0036"/>
  <outline>
    <contour>
      <point x="260.667" y="-10" type="curve" smooth="yes" name="n00"/>
      <point x="405" y="-10"/>
      <point x="502.667" y="72.3333"/>
      <point x="530" y="230" type="curve" smooth="yes"/>
      <point x="555" y="373.667"/>
      <point x="487.333" y="456.667"/>
      <point x="350.333" y="456.667" type="curve" smooth="yes" name="n06"/>
      <point x="313.667" y="456.667"/>
      <point x="281.333" y="448.333"/>
      <point x="259.333" y="440" type="curve" smooth="yes"/>
      <point x="246" y="434.667"/>
      <point x="234.333" y="429"/>
      <point x="224" y="423.333" type="curve"/>
      <point x="249.667" y="573.667"/>
      <point x="313.667" y="626.667"/>
      <point x="391.667" y="626.667" type="curve" smooth="yes" name="n15"/>
      <point x="432.667" y="626.667"/>
      <point x="462.667" y="614.667"/>
      <point x="482.667" y="603.667" type="curve" smooth="yes"/>
      <point x="494.667" y="596.667"/>
      <point x="504.667" y="589.667"/>
      <point x="512.667" y="581.667" type="curve"/>
      <point x="522.667" y="581.667" type="line"/>
      <point x="577.333" y="655" type="line"/>
      <point x="565" y="665"/>
      <point x="550.333" y="674"/>
      <point x="532.667" y="682" type="curve"/>
      <point x="502.667" y="697"/>
      <point x="457.667" y="710"/>
      <point x="396.667" y="710" type="curve" smooth="yes" name="n29"/>
      <point x="245" y="710"/>
      <point x="131" y="613"/>
      <point x="97.3333" y="423.333" type="curve" smooth="yes"/>
      <point x="63.3333" y="230" type="line" smooth="yes"/>
      <point x="36" y="72.3333"/>
      <point x="104.333" y="-10"/>
    </contour>
    <contour>
      <point x="274.333" y="73.3333" type="curve" smooth="yes" name="n36"/>
      <point x="209.333" y="73.3333"/>
      <point x="170.333" y="120"/>
      <point x="190" y="230" type="curve" smooth="yes"/>
      <point x="209" y="340" type="line"/>
      <point x="218.333" y="345.667"/>
      <point x="228" y="351.333"/>
      <point x="239.333" y="356.667" type="curve"/>
      <point x="259" y="365"/>
      <point x="284" y="373.333"/>
      <point x="312.333" y="373.333" type="curve" smooth="yes" name="n46"/>
      <point x="382.333" y="373.333"/>
      <point x="421" y="327.333"/>
      <point x="403.333" y="230" type="curve" smooth="yes"/>
      <point x="383.667" y="120"/>
      <point x="330" y="73.3333"/>
    </contour>
  </outline>
</glyph>
<glyph name="seven" format="2">
  <advance width="467"/>
  <unicode hex="0037"/>
  <outline>
    <contour>
      <point x="121.667" y="0" type="line" name="n00"/>
      <point x="248.333" y="0" type="line"/>
      <point x="263.333" y="90" type="line" smooth="yes"/>
      <point x="303.333" y="319"/>
      <point x="431" y="507.667"/>
      <point x="540" y="616.667" type="curve" name="n05"/>
      <point x="554.667" y="700" type="line" name="n06"/>
      <point x="104.667" y="700" type="line"/>
      <point x="90" y="616.667" type="line" name="n08"/>
      <point x="410" y="616.667" type="line"/>
      <point x="301" y="507.667"/>
      <point x="176.667" y="319"/>
      <point x="136.667" y="90" type="curve" smooth="yes"/>
    </contour>
  </outline>
</glyph>
<glyph name="eight" format="2">
  <advance width="560"/>
  <unicode hex="0038"/>
  <outline>
    <contour>
      <point x="253" y="-10" type="curve" smooth="yes" name="n00"/>
      <point x="416.667" y="-10"/>
      <point x="518" y="76.6667"/>
      <point x="536" y="180" type="curve" smooth="yes"/>
      <point x="549.667" y="257.667"/>
      <point x="518.667" y="303.667"/>
      <point x="484" y="333" type="curve" smooth="yes"/>
      <point x="463.333" y="350"/>
      <point x="439.333" y="362"/>
      <point x="411.667" y="370" type="curve"/>
      <point x="437.667" y="377.333"/>
      <point x="461.333" y="388.333"/>
      <point x="483" y="402.667" type="curve" smooth="yes"/>
      <point x="521" y="427"/>
      <point x="560.333" y="468"/>
      <point x="572.333" y="535" type="curve" smooth="yes"/>
      <point x="588.333" y="627.333"/>
      <point x="520.667" y="710"/>
      <point x="380" y="710" type="curve" smooth="yes" name="n18"/>
      <point x="240.333" y="710"/>
      <point x="141.667" y="627.333"/>
      <point x="125.667" y="535" type="curve" smooth="yes"/>
      <point x="113.667" y="468"/>
      <point x="138.333" y="427"/>
      <point x="168" y="402.667" type="curve" smooth="yes"/>
      <point x="184.667" y="388.333"/>
      <point x="205" y="377.333"/>
      <point x="228.333" y="370" type="curve"/>
      <point x="197.667" y="362"/>
      <point x="169" y="350"/>
      <point x="142.333" y="333" type="curve" smooth="yes"/>
      <point x="97.6667" y="305"/>
      <point x="51" y="257"/>
      <point x="36" y="180" type="curve"/>
      <point x="18" y="76.6667"/>
      <point x="90" y="-10"/>
    </contour>
    <contour>
      <point x="328.333" y="420" type="curve"/>
      <point x="276" y="438.333"/>
      <point x="239.333" y="469.333"/>
      <point x="252.333" y="535" type="curve" smooth="yes"/>
      <point x="261.333" y="583.667"/>
      <point x="311" y="626.667"/>
      <point x="365" y="626.667" type="curve" smooth="yes" name="n42"/>
      <point x="419" y="626.667"/>
      <point x="454.667" y="583.667"/>
      <point x="445.667" y="535" type="curve" smooth="yes"/>
      <point x="433.333" y="469"/>
      <point x="389.333" y="439.333"/>
    </contour>
    <contour>
      <point x="267.667" y="73.3333" type="curve" smooth="yes" name="n48"/>
      <point x="186.667" y="73.3333"/>
      <point x="151.333" y="116.333"/>
      <point x="162.667" y="180" type="curve" smooth="yes"/>
      <point x="175.667" y="260"/>
      <point x="238.333" y="294.333"/>
      <point x="311" y="320" type="curve"/>
      <point x="375" y="294"/>
      <point x="422.333" y="260"/>
      <point x="409.333" y="180" type="curve" smooth="yes"/>
      <point x="398" y="116.333"/>
      <point x="348.667" y="73.3333"/>
    </contour>
  </outline>
</glyph>
<glyph name="nine" format="2">
  <advance width="552"/>
  <unicode hex="0039"/>
  <outline>
    <contour>
      <point x="228" y="-10" type="curve" smooth="yes" name="n00"/>
      <point x="380.333" y="-10"/>
      <point x="493" y="86.6667"/>
      <point x="526.667" y="276.667" type="curve" smooth="yes"/>
      <point x="560.333" y="470" type="line" smooth="yes"/>
      <point x="588.667" y="627.667"/>
      <point x="520.333" y="710"/>
      <point x="364" y="710" type="curve" smooth="yes" name="n07"/>
      <point x="219.667" y="710"/>
      <point x="122" y="627.667"/>
      <point x="93.6667" y="470" type="curve"/>
      <point x="69" y="326.333"/>
      <point x="136.667" y="243.333"/>
      <point x="274.333" y="243.333" type="curve" smooth="yes" name="n13"/>
      <point x="311" y="243.333"/>
      <point x="342.333" y="251"/>
      <point x="364.333" y="260" type="curve"/>
      <point x="377" y="264.667"/>
      <point x="388.667" y="270.333"/>
      <point x="400" y="276.667" type="curve"/>
      <point x="374.333" y="126.333"/>
      <point x="310.333" y="73.3333"/>
      <point x="232.667" y="73.3333" type="curve" smooth="yes" name="n22"/>
      <point x="191" y="73.3333"/>
      <point x="161.667" y="84.3333"/>
      <point x="141.667" y="95.3333" type="curve" smooth="yes"/>
      <point x="129.667" y="102.333"/>
      <point x="119.667" y="109.333"/>
      <point x="111.667" y="118.333" type="curve"/>
      <point x="101.667" y="118.333" type="line"/>
      <point x="46.3333" y="45" type="line"/>
      <point x="58.6667" y="34"/>
      <point x="74" y="25"/>
      <point x="91.6667" y="17" type="curve"/>
      <point x="121.667" y="2"/>
      <point x="165.667" y="-10"/>
    </contour>
    <contour>
      <point x="312.333" y="326.667" type="curve" smooth="yes" name="n36"/>
      <point x="242.333" y="326.667"/>
      <point x="204" y="372.667"/>
      <point x="220.333" y="470" type="curve" smooth="yes"/>
      <point x="240" y="580"/>
      <point x="295" y="626.667"/>
      <point x="350" y="626.667" type="curve" smooth="yes" name="n42"/>
      <point x="415.333" y="626.667"/>
      <point x="453.333" y="580"/>
      <point x="433.667" y="470" type="curve" smooth="yes"/>
      <point x="414.667" y="360" type="line"/>
      <point x="405.667" y="353.667"/>
      <point x="395.333" y="348"/>
      <point x="384.667" y="343.333" type="curve" smooth="yes"/>
      <point x="365" y="334.333"/>
      <point x="340.667" y="326.667"/>
    </contour>
  </outline>
</glyph>
<glyph name="colon" format="2">
  <advance width="213"/>
  <unicode hex="003A"/>
  <outline>
    <contour>
      <point x="147.333" y="490" type="curve" smooth="yes" name="n00"/>
      <point x="118.333" y="478.333"/>
      <point x="98.6667" y="446.667"/>
      <point x="105" y="420" type="curve" smooth="yes"/>
      <point x="112" y="393.333"/>
      <point x="141" y="378.333"/>
      <point x="170" y="390" type="curve" smooth="yes" name="n06"/>
      <point x="199" y="401.667"/>
      <point x="218.333" y="433.333"/>
      <point x="212" y="460" type="curve" smooth="yes"/>
      <point x="205" y="486.667"/>
      <point x="176.333" y="501.667"/>
    </contour>
    <contour>
      <point x="80.3333" y="110" type="curve" smooth="yes" name="n12"/>
      <point x="51.3333" y="98.3333"/>
      <point x="32" y="66.6667"/>
      <point x="38.3333" y="40" type="curve" smooth="yes"/>
      <point x="45.3333" y="13.3333"/>
      <point x="74" y="-1.66667" name="n17"/>
      <point x="103" y="10" type="curve" smooth="yes" name="n18"/>
      <point x="132" y="21.6667"/>
      <point x="151.667" y="53.3333"/>
      <point x="145.333" y="80" type="curve" smooth="yes"/>
      <point x="138.333" y="106.667"/>
      <point x="109.333" y="121.667"/>
    </contour>
  </outline>
</glyph>
<glyph name="semicolon" format="2">
  <advance width="213"/>
  <unicode hex="003B"/>
  <outline>
    <contour>
      <point x="147.333" y="490" type="curve" smooth="yes" name="n00"/>
      <point x="118.333" y="478.333"/>
      <point x="98.6667" y="446.667"/>
      <point x="105" y="420" type="curve" smooth="yes"/>
      <point x="112" y="393.333"/>
      <point x="141" y="378.333"/>
      <point x="170" y="390" type="curve" smooth="yes" name="n06"/>
      <point x="199" y="401.667"/>
      <point x="218.333" y="433.333"/>
      <point x="212" y="460" type="curve" smooth="yes"/>
      <point x="205" y="486.667"/>
      <point x="176.333" y="501.667"/>
    </contour>
    <contour>
      <point x="21.6667" y="60" type="curve" smooth="yes"/>
      <point x="14.6667" y="21.6667"/>
      <point x="41" y="-10" name="n14"/>
      <point x="78" y="-10" type="curve"/>
      <point x="73.3333" y="-34.3333"/>
      <point x="54.6667" y="-55"/>
      <point x="36.6667" y="-70.3333" type="curve" smooth="yes"/>
      <point x="26" y="-79.3333"/>
      <point x="13.6667" y="-87.6667"/>
      <point x="1.33333" y="-95" type="curve"/>
      <point x="24.6667" y="-133.333" type="line"/>
      <point x="45.6667" y="-123"/>
      <point x="65.3333" y="-109"/>
      <point x="83.3333" y="-92" type="curve" smooth="yes"/>
      <point x="114.333" y="-63.3333"/>
      <point x="147.667" y="-18.3333"/>
      <point x="160" y="50" type="curve" smooth="yes"/>
      <point x="168.333" y="99"/>
      <point x="142.333" y="130"/>
      <point x="99" y="130" type="curve" smooth="yes"/>
      <point x="65.3333" y="130"/>
      <point x="29.3333" y="98.3333"/>
    </contour>
  </outline>
</glyph>
<glyph name="less" format="2">
  <advance width="460"/>
  <unicode hex="003C"/>
  <outline>
    <contour>
      <point x="398.333" y="0" type="line" name="n00"/>
      <point x="417.667" y="111.667" type="line"/>
      <point x="182.333" y="250" type="line"/>
      <point x="466.667" y="388.333" type="line"/>
      <point x="486.333" y="500" type="line" name="n04"/>
      <point x="52.3333" y="288.333" type="line"/>
      <point x="38.6667" y="211.667" type="line" name="n06"/>
    </contour>
  </outline>
</glyph>
<glyph name="equal" format="2">
  <advance width="497"/>
  <unicode hex="003D"/>
  <outline>
    <contour>
      <point x="76.3333" y="377.333" type="line" name="n00"/>
      <point x="503" y="377.333" type="line"/>
      <point x="519" y="470.667" type="line" name="n02"/>
      <point x="92.3333" y="470.667" type="line" name="n03"/>
    </contour>
    <contour>
      <point x="43" y="190" type="line" name="n04"/>
      <point x="469.667" y="190" type="line"/>
      <point x="486.333" y="283.333" type="line"/>
      <point x="59.6667" y="283.333" type="line" name="n07"/>
    </contour>
  </outline>
</glyph>
<glyph name="greater" format="2">
  <advance width="452"/>
  <unicode hex="003E"/>
  <outline>
    <contour>
      <point x="10" y="0" type="line" name="n00"/>
      <point x="443.667" y="211.667" type="line"/>
      <point x="457.333" y="288.333" type="line" name="n02"/>
      <point x="98" y="500" type="line" name="n03"/>
      <point x="78.3333" y="388.333" type="line"/>
      <point x="314" y="250" type="line"/>
      <point x="29.3333" y="111.667" type="line"/>
    </contour>
  </outline>
</glyph>
<glyph name="question" format="2">
  <advance width="480"/>
  <unicode hex="003F"/>
  <outline>
    <contour>
      <point x="140.667" y="193.333" type="line"/>
      <point x="257.333" y="193.333" type="line"/>
      <point x="263" y="226.667" type="line" smooth="yes"/>
      <point x="272.556" y="278.914"/>
      <point x="316.667" y="307.674"/>
      <point x="365.22" y="339.313" type="curve" smooth="yes"/>
      <point x="448.458" y="393.489"/>
      <point x="512.561" y="449.312"/>
      <point x="512.561" y="547.109" type="curve" smooth="yes" name="n08"/>
      <point x="512.561" y="647.042"/>
      <point x="445.68" y="710"/>
      <point x="302.92" y="710" type="curve" smooth="yes" name="n11"/>
      <point x="230.696" y="710"/>
      <point x="150.92" y="693.885"/>
      <point x="90" y="655" type="curve" name="n14"/>
      <point x="118.667" y="581.667" type="line"/>
      <point x="128.667" y="581.667" type="line"/>
      <point x="169.999" y="611.727"/>
      <point x="226.31" y="626.667"/>
      <point x="275.216" y="626.667" type="curve" smooth="yes" name="n19"/>
      <point x="349.685" y="626.667"/>
      <point x="386.201" y="592.552"/>
      <point x="386.201" y="541.985" type="curve" smooth="yes"/>
      <point x="386.201" y="478.17"/>
      <point x="327.966" y="434.928"/>
      <point x="277.58" y="399.138" type="curve" smooth="yes"/>
      <point x="221.579" y="359.406"/>
      <point x="161.923" y="317.086"/>
      <point x="146.333" y="226.667" type="curve" smooth="yes"/>
    </contour>
    <contour>
      <point x="104.204" y="48.3614" type="curve" smooth="yes"/>
      <point x="104.204" y="15.2489"/>
      <point x="129.145" y="-10" name="n31"/>
      <point x="163.333" y="-10" type="curve" smooth="yes" name="n32"/>
      <point x="205.562" y="-10"/>
      <point x="246.477" y="29.774"/>
      <point x="246.477" y="71.7337" type="curve" smooth="yes"/>
      <point x="246.477" y="104.812"/>
      <point x="221.806" y="130" name="hr01"/>
      <point x="187.667" y="130" type="curve" smooth="yes" name="n38"/>
      <point x="145.575" y="130"/>
      <point x="104.204" y="90.3794"/>
    </contour>
  </outline>
</glyph>
<glyph name="at" format="2">
  <advance width="950"/>
  <unicode hex="0040"/>
  <outline>
    <contour>
      <point x="418" y="-120" type="curve" smooth="yes" name="n00"/>
      <point x="492.333" y="-120"/>
      <point x="549.333" y="-108"/>
      <point x="589" y="-93" type="curve"/>
      <point x="612" y="-85"/>
      <point x="632.667" y="-76"/>
      <point x="649.667" y="-65" type="curve"/>
      <point x="621" y="8.33333" type="line"/>
      <point x="611" y="8.33333" type="line"/>
      <point x="598.333" y="-0.666667"/>
      <point x="583.667" y="-7.66667"/>
      <point x="566.667" y="-14.6667" type="curve"/>
      <point x="537.667" y="-25.6667"/>
      <point x="497.333" y="-36.6667"/>
      <point x="443" y="-36.6667" type="curve" smooth="yes" name="n14"/>
      <point x="259" y="-36.6667"/>
      <point x="145" y="103.667"/>
      <point x="178.667" y="300" type="curve"/>
      <point x="214.333" y="496.333"/>
      <point x="378.667" y="636.667"/>
      <point x="562" y="636.667" type="curve" smooth="yes" name="n20"/>
      <point x="744.333" y="636.667"/>
      <point x="861" y="496.333"/>
      <point x="825.333" y="300" type="curve" smooth="yes"/>
      <point x="803.333" y="174.667"/>
      <point x="751" y="133.333"/>
      <point x="706.333" y="133.333" type="curve" smooth="yes" name="n26"/>
      <point x="694" y="133.333"/>
      <point x="684.667" y="136.333"/>
      <point x="677.667" y="141.333" type="curve"/>
      <point x="675.374" y="143.186"/>
      <point x="670.085" y="147.702"/>
      <point x="667.667" y="150" type="curve"/>
      <point x="733.667" y="525" type="line"/>
      <point x="650.333" y="525" type="line"/>
      <point x="631.667" y="476.667" type="line"/>
      <point x="626.667" y="476.667" type="line"/>
      <point x="619.667" y="487.333"/>
      <point x="610.667" y="497"/>
      <point x="599.667" y="505.333" type="curve"/>
      <point x="580.667" y="520.667"/>
      <point x="553" y="535"/>
      <point x="514" y="535" type="curve" smooth="yes" name="n42"/>
      <point x="411.667" y="535"/>
      <point x="318" y="456.333"/>
      <point x="290.333" y="295" type="curve"/>
      <point x="261.333" y="133.667"/>
      <point x="325.333" y="55"/>
      <point x="429" y="55" type="curve" smooth="yes" name="n48"/>
      <point x="471" y="55"/>
      <point x="503.333" y="67"/>
      <point x="527" y="82" type="curve"/>
      <point x="540.667" y="90"/>
      <point x="552.333" y="99"/>
      <point x="562.333" y="110" type="curve"/>
      <point x="567.333" y="110" type="line"/>
      <point x="573" y="99"/>
      <point x="582" y="90"/>
      <point x="593" y="82" type="curve"/>
      <point x="612" y="67"/>
      <point x="642" y="55"/>
      <point x="689" y="55" type="curve" smooth="yes" name="n61"/>
      <point x="805.667" y="55"/>
      <point x="907.667" y="141.667"/>
      <point x="935.333" y="300" type="curve" smooth="yes"/>
      <point x="978.333" y="540"/>
      <point x="829.667" y="720"/>
      <point x="576" y="720" type="curve" smooth="yes" name="n67"/>
      <point x="323.333" y="720"/>
      <point x="111.667" y="540"/>
      <point x="68.6667" y="300" type="curve" smooth="yes"/>
      <point x="25.6667" y="60"/>
      <point x="174.667" y="-120"/>
    </contour>
    <contour>
      <point x="469" y="140" type="curve" smooth="yes" name="n73"/>
      <point x="423.667" y="140" name="hr01"/>
      <point x="389.333" y="178.333"/>
      <point x="410.333" y="295" type="curve"/>
      <point x="430" y="411.667"/>
      <point x="475.667" y="450"/>
      <point x="524" y="450" type="curve" smooth="yes" name="n79"/>
      <point x="545.667" y="450"/>
      <point x="562" y="437.667"/>
      <point x="574.333" y="425.333" type="curve"/>
      <point x="581" y="418"/>
      <point x="586.667" y="410.333"/>
      <point x="592" y="401.667" type="curve"/>
      <point x="551" y="171.667" type="line"/>
      <point x="544" y="165.333"/>
      <point x="536" y="159.667"/>
      <point x="527.667" y="155.333" type="curve"/>
      <point x="512.667" y="147"/>
      <point x="492.667" y="140"/>
    </contour>
  </outline>
</glyph>
<glyph name="A" format="2">
  <advance width="590"/>
  <unicode hex="0041"/>
  <outline>
    <contour>
      <point x="-10" y="0" type="line" name="n00"/>
      <point x="116.667" y="0" type="line"/>
      <point x="194" y="166.667" type="line"/>
      <point x="404" y="166.667" type="line" name="n03"/>
      <point x="423.333" y="0" type="line"/>
      <point x="550" y="0" type="line" name="n05"/>
      <point x="468" y="700" type="line" name="n06"/>
      <point x="318" y="700" type="line" name="n07"/>
    </contour>
    <contour>
      <point x="232.333" y="250" type="line"/>
      <point x="339.667" y="481.667" type="line"/>
      <point x="346.667" y="498"/>
      <point x="352.667" y="514"/>
      <point x="357.667" y="529.667" type="curve" smooth="yes"/>
      <point x="359.577" y="535.293"/>
      <point x="363.788" y="549.477"/>
      <point x="365.333" y="555" type="curve" name="n15"/>
      <point x="369.333" y="555" type="line"/>
      <point x="368.333" y="546.667"/>
      <point x="367.667" y="538.667"/>
      <point x="367.667" y="530" type="curve"/>
      <point x="367" y="515"/>
      <point x="366.667" y="497.333"/>
      <point x="369.667" y="481.667" type="curve"/>
      <point x="395.667" y="250" type="line" name="n23"/>
    </contour>
  </outline>
</glyph>
<glyph name="B" format="2">
  <advance width="598"/>
  <unicode hex="0042"/>
  <outline>
    <contour>
      <point x="61.6667" y="0" type="line"/>
      <point x="265" y="0" type="line" smooth="yes" name="n01"/>
      <point x="448" y="0"/>
      <point x="536.333" y="75"/>
      <point x="557" y="193.333" type="curve" smooth="yes"/>
      <point x="570" y="270.333"/>
      <point x="540.667" y="315"/>
      <point x="509.667" y="340" type="curve" smooth="yes"/>
      <point x="491.333" y="354.333"/>
      <point x="468" y="364.667"/>
      <point x="441.667" y="370" type="curve"/>
      <point x="465" y="375.333"/>
      <point x="486.667" y="384.667"/>
      <point x="507" y="397" type="curve" smooth="yes"/>
      <point x="541.333" y="418.667"/>
      <point x="577.667" y="456.667"/>
      <point x="589.667" y="521.667" type="curve" smooth="yes"/>
      <point x="608.667" y="624.333"/>
      <point x="546" y="700"/>
      <point x="388" y="700" type="curve" smooth="yes" name="n19"/>
      <point x="184.667" y="700" type="line"/>
    </contour>
    <contour>
      <point x="259.667" y="406.667" type="line" name="n21"/>
      <point x="296.667" y="616.667" type="line"/>
      <point x="373.333" y="616.667" type="line" smooth="yes" name="n23"/>
      <point x="438.667" y="616.667"/>
      <point x="472.667" y="575.333"/>
      <point x="461" y="511.667" type="curve" smooth="yes"/>
      <point x="449.667" y="448"/>
      <point x="401.667" y="406.667"/>
      <point x="336.333" y="406.667" type="curve" smooth="yes"/>
    </contour>
    <contour>
      <point x="202.333" y="83.3333" type="line"/>
      <point x="245" y="323.333" type="line" name="n31"/>
      <point x="321.667" y="323.333" type="line" smooth="yes"/>
      <point x="410.333" y="323.333"/>
      <point x="446" y="283"/>
      <point x="432.333" y="203.333" type="curve" smooth="yes"/>
      <point x="418" y="123.667"/>
      <point x="367.667" y="83.3333"/>
      <point x="279" y="83.3333" type="curve" smooth="yes" name="n38"/>
    </contour>
  </outline>
</glyph>
<glyph name="D" format="2">
  <advance width="605"/>
  <unicode hex="0044"/>
  <outline>
    <contour>
      <point x="61.6667" y="0" type="line"/>
      <point x="225" y="0" type="line" smooth="yes" name="n01"/>
      <point x="421.667" y="0"/>
      <point x="545.667" y="106.333"/>
      <point x="589.333" y="350" type="curve" smooth="yes"/>
      <point x="632.333" y="593.667"/>
      <point x="545" y="700"/>
      <point x="348" y="700" type="curve" smooth="yes" name="n07"/>
      <point x="184.667" y="700" type="line"/>
    </contour>
    <contour>
      <point x="202.333" y="83.3333" type="line" name="n09"/>
      <point x="296.667" y="616.667" type="line"/>
      <point x="333.333" y="616.667" type="line" smooth="yes" name="n11"/>
      <point x="446.333" y="616.667"/>
      <point x="498.333" y="553.667"/>
      <point x="462.667" y="350" type="curve" smooth="yes"/>
      <point x="427" y="146.333"/>
      <point x="352" y="83.3333"/>
      <point x="239" y="83.3333" type="curve" smooth="yes"/>
    </contour>
  </outline>
</glyph>
<glyph name="E" format="2">
  <advance width="523"/>
  <unicode hex="0045"/>
  <outline>
    <contour>
      <point x="61.6667" y="0" type="line" name="n00"/>
      <point x="471.667" y="0" type="line" name="n01"/>
      <point x="485.667" y="83.3333" type="line" name="n02"/>
      <point x="202.333" y="83.3333" type="line"/>
      <point x="245" y="323.333" type="line" name="n04"/>
      <point x="468.333" y="323.333" type="line"/>
      <point x="483" y="406.667" type="line"/>
      <point x="259.667" y="406.667" type="line" name="n07"/>
      <point x="296.667" y="616.667" type="line"/>
      <point x="580" y="616.667" type="line" name="n09"/>
      <point x="594.667" y="700" type="line" name="n10"/>
      <point x="184.667" y="700" type="line"/>
    </contour>
  </outline>
</glyph>
<glyph name="F" format="2">
  <advance width="517"/>
  <unicode hex="0046"/>
  <outline>
    <contour>
      <point x="61.6667" y="0" type="line" name="n00"/>
      <point x="188.333" y="0" type="line"/>
      <point x="243" y="313.333" type="line" name="n02"/>
      <point x="466.333" y="313.333" type="line"/>
      <point x="481" y="396.667" type="line"/>
      <point x="257.667" y="396.667" type="line" name="n05"/>
      <point x="296.667" y="616.667" type="line"/>
      <point x="580" y="616.667" type="line" name="n07"/>
      <point x="594.667" y="700" type="line" name="n08"/>
      <point x="184.667" y="700" type="line"/>
    </contour>
  </outline>
</glyph>
<glyph name="G" format="2">
  <advance width="582"/>
  <unicode hex="0047"/>
  <outline>
    <contour>
      <point x="299.226" y="-10" type="curve" smooth="yes" name="n00"/>
      <point x="364.944" y="-10"/>
      <point x="445.408" y="6.09269"/>
      <point x="502" y="45" type="curve"/>
      <point x="556" y="350" type="line"/>
      <point x="526" y="386.667" type="line"/>
      <point x="327.667" y="386.667" type="line" name="n06"/>
      <point x="312.667" y="303.333" type="line" name="n07"/>
      <point x="421" y="303.333" type="line"/>
      <point x="383" y="86.6667" type="line"/>
      <point x="373.166" y="82.5998"/>
      <point x="346.495" y="73.3333"/>
      <point x="316.351" y="73.3333" type="curve" smooth="yes" name="n12"/>
      <point x="250.112" y="73.3333"/>
      <point x="201.919" y="111.222"/>
      <point x="201.919" y="235.819" type="curve" smooth="yes" name="n15"/>
      <point x="201.919" y="359.808"/>
      <point x="249.672" y="626.667"/>
      <point x="409.324" y="626.667" type="curve" smooth="yes" name="n18"/>
      <point x="448.574" y="626.667"/>
      <point x="494.743" y="610.204"/>
      <point x="522" y="581.667" type="curve"/>
      <point x="532" y="581.667" type="line"/>
      <point x="586.667" y="655" type="line"/>
      <point x="541.095" y="694.061"/>
      <point x="473.326" y="710"/>
      <point x="413.702" y="710" type="curve" smooth="yes" name="n26"/>
      <point x="169.289" y="710"/>
      <point x="76.0211" y="438.565"/>
      <point x="76.0211" y="233.354" type="curve" smooth="yes" name="n29"/>
      <point x="76.0211" y="62.4372"/>
      <point x="160.484" y="-10"/>
    </contour>
  </outline>
</glyph>
<glyph name="H" format="2">
  <advance width="650"/>
  <unicode hex="0048"/>
  <outline>
    <contour>
      <point x="61.6667" y="0" type="line" name="n00"/>
      <point x="188.333" y="0" type="line"/>
      <point x="243" y="313.333" type="line" name="n02"/>
      <point x="466.333" y="313.333" type="line"/>
      <point x="411.667" y="0" type="line"/>
      <point x="538.333" y="0" type="line"/>
      <point x="661.333" y="700" type="line" name="n06"/>
      <point x="534.667" y="700" type="line"/>
      <point x="481" y="396.667" type="line"/>
      <point x="257.667" y="396.667" type="line" name="n09"/>
      <point x="311.333" y="700" type="line"/>
      <point x="184.667" y="700" type="line"/>
    </contour>
  </outline>
</glyph>
<glyph name="I" format="2">
  <advance width="300"/>
  <unicode hex="0049"/>
  <anchor x="188.333" y="0" name="b.uni0328_1"/>
  <anchor x="253" y="700" name="m.gravecomb_2"/>
  <anchor x="124.667" y="0" name="m.uni0326"/>
  <outline>
    <contour>
      <point x="61.6667" y="0" type="line" name="n00"/>
      <point x="188.333" y="0" type="line"/>
      <point x="311.333" y="700" type="line" name="n02"/>
      <point x="184.667" y="700" type="line"/>
    </contour>
  </outline>
</glyph>
<glyph name="L" format="2">
  <advance width="500"/>
  <unicode hex="004C"/>
  <outline>
    <contour>
      <point x="61.6667" y="0" type="line" name="n00"/>
      <point x="465" y="0" type="line" name="n01"/>
      <point x="479" y="83.3333" type="line" name="n02"/>
      <point x="202.333" y="83.3333" type="line"/>
      <point x="311.333" y="700" type="line" name="n04"/>
      <point x="184.667" y="700" type="line"/>
    </contour>
  </outline>
</glyph>
<glyph name="M" format="2">
  <advance width="860"/>
  <unicode hex="004D"/>
  <outline>
    <contour>
      <point x="61.6667" y="0" type="line" name="n00"/>
      <point x="188.333" y="0" type="line"/>
      <point x="255.667" y="383.333" type="line" smooth="yes"/>
      <point x="258.667" y="398.333"/>
      <point x="259.667" y="415.667"/>
      <point x="261.333" y="430.667" type="curve"/>
      <point x="262.214" y="436.99"/>
      <point x="263.122" y="449.36"/>
      <point x="263.333" y="455.667" type="curve"/>
      <point x="267.333" y="455.667" type="line"/>
      <point x="268.333" y="447.333"/>
      <point x="269.333" y="438.667"/>
      <point x="271.333" y="430.667" type="curve"/>
      <point x="273.667" y="415.667"/>
      <point x="277.333" y="399"/>
      <point x="282.333" y="383.333" type="curve" smooth="yes"/>
      <point x="369" y="118.333" type="line"/>
      <point x="482.333" y="118.333" type="line" name="n17"/>
      <point x="662.333" y="383.333" type="line"/>
      <point x="673.333" y="398.333"/>
      <point x="682" y="415.667"/>
      <point x="689.667" y="430.667" type="curve" smooth="yes"/>
      <point x="702" y="455.667" type="line"/>
      <point x="706" y="455.667" type="line"/>
      <point x="699.333" y="430.667" type="line"/>
      <point x="689" y="383.333" type="line"/>
      <point x="621.667" y="0" type="line"/>
      <point x="748.333" y="0" type="line"/>
      <point x="871.333" y="700" type="line" name="n28"/>
      <point x="748" y="700" type="line"/>
      <point x="476.333" y="295" type="line" smooth="yes"/>
      <point x="469.333" y="285"/>
      <point x="463.333" y="273.667"/>
      <point x="458.333" y="262.667" type="curve"/>
      <point x="449.333" y="245" type="line" name="n34"/>
      <point x="445.333" y="245" type="line"/>
      <point x="443.333" y="262.667" type="line" smooth="yes"/>
      <point x="442.333" y="273.667"/>
      <point x="439.333" y="284.667"/>
      <point x="436.333" y="295" type="curve" smooth="yes"/>
      <point x="308" y="700" type="line"/>
      <point x="184.667" y="700" type="line"/>
    </contour>
  </outline>
</glyph>
<glyph name="N" format="2">
  <advance width="650"/>
  <unicode hex="004E"/>
  <outline>
    <contour>
      <point x="61.6667" y="0" type="line" name="n00"/>
      <point x="188.333" y="0" type="line"/>
      <point x="259.667" y="408.333" type="line" smooth="yes"/>
      <point x="262.667" y="423.333"/>
      <point x="264.333" y="440.667"/>
      <point x="266" y="455.667" type="curve"/>
      <point x="266.891" y="462.069"/>
      <point x="267.778" y="473.615"/>
      <point x="268" y="480" type="curve"/>
      <point x="272" y="480" type="line"/>
      <point x="273" y="471.667"/>
      <point x="274" y="463.667"/>
      <point x="276" y="455.667" type="curve"/>
      <point x="279" y="440.667"/>
      <point x="282" y="423.333"/>
      <point x="286.333" y="408.333" type="curve" smooth="yes"/>
      <point x="401.667" y="0" type="line"/>
      <point x="538.333" y="0" type="line"/>
      <point x="661.333" y="700" type="line" name="n18"/>
      <point x="534.667" y="700" type="line"/>
      <point x="462.333" y="291.667" type="line" smooth="yes"/>
      <point x="459.333" y="276.667"/>
      <point x="458.333" y="258"/>
      <point x="456.667" y="244.333" type="curve" smooth="yes"/>
      <point x="455.776" y="237.931"/>
      <point x="454.888" y="226.385"/>
      <point x="454.667" y="220" type="curve"/>
      <point x="450.667" y="220" type="line"/>
      <point x="449.667" y="228"/>
      <point x="448.667" y="236"/>
      <point x="446.667" y="244.333" type="curve"/>
      <point x="444.518" y="254.593"/>
      <point x="438.033" y="282.537"/>
      <point x="435.667" y="291.667" type="curve" smooth="yes"/>
      <point x="321.333" y="700" type="line"/>
      <point x="184.667" y="700" type="line"/>
    </contour>
  </outline>
</glyph>
<glyph name="O" format="2">
  <advance width="620"/>
  <unicode hex="004F"/>
  <outline>
    <contour>
      <point x="280.369" y="-10" type="curve" smooth="yes" name="n00"/>
      <point x="529.019" y="-10"/>
      <point x="616.358" y="267.827"/>
      <point x="616.358" y="474.486" type="curve" smooth="yes" name="n03"/>
      <point x="616.358" y="640.637"/>
      <point x="536.457" y="710"/>
      <point x="412.02" y="710" type="curve" smooth="yes" name="n06"/>
      <point x="163.597" y="710"/>
      <point x="75.6758" y="433.004"/>
      <point x="75.6758" y="225.834" type="curve" smooth="yes" name="n09"/>
      <point x="75.6758" y="59.4495"/>
      <point x="155.917" y="-10"/>
    </contour>
    <contour>
      <point x="297.667" y="73.3333" type="curve" smooth="yes" name="n12"/>
      <point x="245.531" y="73.3333"/>
      <point x="201.71" y="110.538"/>
      <point x="201.71" y="225.392" type="curve" smooth="yes" name="n15"/>
      <point x="201.71" y="345.745"/>
      <point x="250.852" y="626.667"/>
      <point x="394.417" y="626.667" type="curve" smooth="yes" name="n18"/>
      <point x="447.011" y="626.667"/>
      <point x="490.393" y="589.615"/>
      <point x="490.393" y="475.815" type="curve" smooth="yes" name="n21"/>
      <point x="490.393" y="355.347"/>
      <point x="441.332" y="73.3333"/>
    </contour>
  </outline>
</glyph>
<glyph name="Q" format="2">
  <advance width="620"/>
  <unicode hex="0051"/>
  <outline>
    <contour>
      <point x="364" y="-161.667" type="curve" smooth="yes" name="n00"/>
      <point x="387.333" y="-161.667"/>
      <point x="407.667" y="-157.333"/>
      <point x="422.667" y="-152.667" type="curve" smooth="yes"/>
      <point x="430.177" y="-150.163"/>
      <point x="440.05" y="-146.428"/>
      <point x="446" y="-143.333" type="curve"/>
      <point x="435" y="-68.3333" type="line"/>
      <point x="425" y="-68.3333" type="line"/>
      <point x="422.36" y="-69.9574"/>
      <point x="417.894" y="-72.4117"/>
      <point x="415.333" y="-73.3333" type="curve"/>
      <point x="408" y="-76.3333"/>
      <point x="399.333" y="-78.3333"/>
      <point x="389" y="-78.3333" type="curve" smooth="yes" name="n14"/>
      <point x="359" y="-78.3333"/>
      <point x="338.333" y="-54.3333"/>
      <point x="348" y="-1.66667" type="curve" name="n17"/>
      <point x="470.333" y="24"/>
      <point x="565" y="130.667"/>
      <point x="604.333" y="350" type="curve" smooth="yes"/>
      <point x="649.333" y="606.667"/>
      <point x="564.333" y="710"/>
      <point x="410" y="710" type="curve" smooth="yes" name="n23"/>
      <point x="255" y="710"/>
      <point x="132.667" y="606.667"/>
      <point x="87.6667" y="350" type="curve" smooth="yes"/>
      <point x="49.6667" y="130.333"/>
      <point x="107.333" y="24"/>
      <point x="221.333" y="-1.66667" type="curve"/>
      <point x="205.333" y="-95.3333"/>
      <point x="258.667" y="-161.667"/>
    </contour>
    <contour>
      <point x="297.667" y="73.3333" type="curve" smooth="yes"/>
      <point x="230" y="73.3333"/>
      <point x="176.333" y="136"/>
      <point x="214.333" y="350" type="curve" smooth="yes"/>
      <point x="252.333" y="564"/>
      <point x="326.333" y="626.667"/>
      <point x="395" y="626.667" type="curve" smooth="yes" name="n38"/>
      <point x="462.667" y="626.667"/>
      <point x="515.667" y="564"/>
      <point x="477.667" y="350" type="curve" smooth="yes"/>
      <point x="439.667" y="136"/>
      <point x="366" y="73.3333"/>
    </contour>
  </outline>
</glyph>
<glyph name="R" format="2">
  <advance width="592"/>
  <unicode hex="0052"/>
  <outline>
    <contour>
      <point x="61.6667" y="0" type="line" name="n00"/>
      <point x="188.333" y="0" type="line"/>
      <point x="232.667" y="253.333" type="line"/>
      <point x="296" y="253.333" type="line" name="n03"/>
      <point x="400" y="0" type="line"/>
      <point x="545" y="0" type="line"/>
      <point x="424" y="275" type="line"/>
      <point x="537.339" y="309.937"/>
      <point x="597.177" y="418.896"/>
      <point x="597.177" y="528.494" type="curve" smooth="yes" name="n09"/>
      <point x="597.177" y="640.408"/>
      <point x="525.609" y="700"/>
      <point x="368" y="700" type="curve" smooth="yes" name="n12"/>
      <point x="184.667" y="700" type="line"/>
    </contour>
    <contour>
      <point x="247" y="336.667" type="line"/>
      <point x="296.667" y="616.667" type="line"/>
      <point x="353.333" y="616.667" type="line" smooth="yes" name="n16"/>
      <point x="431.905" y="616.667"/>
      <point x="469.288" y="586.807"/>
      <point x="469.288" y="520.239" type="curve" smooth="yes" name="n19"/>
      <point x="469.288" y="413.079"/>
      <point x="419.979" y="336.667"/>
      <point x="303.667" y="336.667" type="curve" smooth="yes" name="n22"/>
    </contour>
  </outline>
</glyph>
<glyph name="S" format="2">
  <advance width="525"/>
  <unicode hex="0053"/>
  <outline>
    <contour>
      <point x="219.667" y="-10" type="curve" smooth="yes" name="n00"/>
      <point x="380.333" y="-10"/>
      <point x="477" y="73.3333"/>
      <point x="498" y="190" type="curve" smooth="yes"/>
      <point x="538" y="413.333"/>
      <point x="211" y="384"/>
      <point x="236.333" y="530" type="curve" smooth="yes"/>
      <point x="245.333" y="579.667"/>
      <point x="300.333" y="626.667"/>
      <point x="363.333" y="626.667" type="curve" smooth="yes" name="n09"/>
      <point x="409.667" y="626.667"/>
      <point x="443" y="614.667"/>
      <point x="464.667" y="603.667" type="curve"/>
      <point x="477" y="596.667"/>
      <point x="487" y="589.667"/>
      <point x="495.333" y="581.667" type="curve"/>
      <point x="505.333" y="581.667" type="line"/>
      <point x="560" y="655" type="line"/>
      <point x="547.333" y="665"/>
      <point x="532.333" y="674"/>
      <point x="514" y="682" type="curve"/>
      <point x="482.333" y="697"/>
      <point x="435.333" y="710"/>
      <point x="368.333" y="710" type="curve" smooth="yes" name="n23"/>
      <point x="225" y="710"/>
      <point x="126.667" y="626.667"/>
      <point x="107.667" y="520" type="curve" smooth="yes"/>
      <point x="69" y="296.667"/>
      <point x="395.333" y="326"/>
      <point x="369.333" y="180" type="curve" smooth="yes"/>
      <point x="358" y="116.333"/>
      <point x="308" y="73.3333"/>
      <point x="224.333" y="73.3333" type="curve" smooth="yes" name="n32"/>
      <point x="174" y="73.3333"/>
      <point x="139.333" y="84.3333"/>
      <point x="116" y="95.3333" type="curve"/>
      <point x="102.667" y="102.333"/>
      <point x="92" y="109.333"/>
      <point x="82.3333" y="118.333" type="curve"/>
      <point x="72.3333" y="118.333" type="line"/>
      <point x="17" y="45" type="line"/>
      <point x="30" y="34"/>
      <point x="47" y="25"/>
      <point x="66" y="17" type="curve"/>
      <point x="99" y="2"/>
      <point x="149.333" y="-10"/>
    </contour>
  </outline>
</glyph>
<glyph name="U" format="2">
  <advance width="633"/>
  <unicode hex="0055"/>
  <outline>
    <contour>
      <point x="289.667" y="-10" type="curve" smooth="yes" name="n00"/>
      <point x="442" y="-10"/>
      <point x="542.333" y="75.6667"/>
      <point x="569.333" y="226.667" type="curve" smooth="yes"/>
      <point x="653" y="700" type="line" name="n04"/>
      <point x="526.333" y="700" type="line"/>
      <point x="442.667" y="226.667" type="line" smooth="yes"/>
      <point x="423.667" y="119.667"/>
      <point x="369.667" y="73.3333"/>
      <point x="304.333" y="73.3333" type="curve" smooth="yes" name="n09"/>
      <point x="239" y="73.3333"/>
      <point x="200.333" y="119.667"/>
      <point x="219.333" y="226.667" type="curve" smooth="yes"/>
      <point x="303" y="700" type="line"/>
      <point x="176.333" y="700" type="line"/>
      <point x="92.6667" y="226.667" type="line" smooth="yes"/>
      <point x="65.6667" y="75.6667"/>
      <point x="137.333" y="-10"/>
    </contour>
  </outline>
</glyph>
<glyph name="V" format="2">
  <advance width="577"/>
  <unicode hex="0056"/>
  <outline>
    <contour>
      <point x="188.333" y="0" type="line" name="n00"/>
      <point x="338.333" y="0" type="line" name="n01"/>
      <point x="659.667" y="700" type="line" name="n02"/>
      <point x="533" y="700" type="line"/>
      <point x="316.333" y="218.333" type="line"/>
      <point x="308.667" y="202.667"/>
      <point x="303" y="184.667"/>
      <point x="298" y="169.667" type="curve"/>
      <point x="290.667" y="145" type="line" name="n08"/>
      <point x="286.667" y="145" type="line"/>
      <point x="287.667" y="153.667"/>
      <point x="287.667" y="161.667"/>
      <point x="287.667" y="170.333" type="curve" smooth="yes"/>
      <point x="287.667" y="185.333"/>
      <point x="287.333" y="202.667"/>
      <point x="286.333" y="218.333" type="curve"/>
      <point x="239.667" y="700" type="line"/>
      <point x="113" y="700" type="line" name="n17"/>
    </contour>
  </outline>
</glyph>
<glyph name="W" format="2">
  <advance width="887"/>
  <unicode hex="0057"/>
  <outline>
    <contour>
      <point x="158.333" y="0" type="line" name="n00"/>
      <point x="298.333" y="0" type="line" name="n01"/>
      <point x="486" y="453.333" type="line" smooth="yes"/>
      <point x="491.667" y="466.333"/>
      <point x="497" y="484.333"/>
      <point x="501.333" y="498.333" type="curve"/>
      <point x="503.812" y="504.544"/>
      <point x="507.16" y="516.366"/>
      <point x="508.333" y="523.333" type="curve" name="n08"/>
      <point x="512.333" y="523.333" type="line"/>
      <point x="511.769" y="517.346"/>
      <point x="510.873" y="503.71"/>
      <point x="510.667" y="498.333" type="curve"/>
      <point x="509.667" y="484"/>
      <point x="508.333" y="467"/>
      <point x="509.333" y="453.333" type="curve" smooth="yes"/>
      <point x="538.333" y="0" type="line"/>
      <point x="678.333" y="0" type="line"/>
      <point x="969.667" y="700" type="line" name="n18"/>
      <point x="843" y="700" type="line"/>
      <point x="657.333" y="243.333" type="line" smooth="yes"/>
      <point x="651.667" y="229.667"/>
      <point x="646.667" y="213.667"/>
      <point x="643" y="200.333" type="curve" smooth="yes"/>
      <point x="641.217" y="194.038"/>
      <point x="638.103" y="182.915"/>
      <point x="637" y="176.667" type="curve" name="hr01"/>
      <point x="633" y="176.667" type="line"/>
      <point x="635" y="200.333" type="line" smooth="yes"/>
      <point x="636" y="214.333"/>
      <point x="636.333" y="229.667"/>
      <point x="635.667" y="243.333" type="curve" smooth="yes"/>
      <point x="610.667" y="700" type="line"/>
      <point x="472" y="700" type="line" name="n33"/>
      <point x="285.667" y="243.333" type="line" smooth="yes"/>
      <point x="280" y="229.667"/>
      <point x="274.667" y="213.667"/>
      <point x="271" y="200.333" type="curve" smooth="yes"/>
      <point x="269.217" y="194.038"/>
      <point x="266.103" y="182.915"/>
      <point x="265" y="176.667" type="curve" name="n40"/>
      <point x="261" y="176.667" type="line"/>
      <point x="263.333" y="200.333" type="line"/>
      <point x="264.333" y="214.333"/>
      <point x="264.667" y="229.667"/>
      <point x="264" y="243.333" type="curve" smooth="yes"/>
      <point x="239.667" y="700" type="line"/>
      <point x="113" y="700" type="line"/>
    </contour>
  </outline>
</glyph>
<glyph name="Y" format="2">
  <advance width="557"/>
  <unicode hex="0059"/>
  <outline>
    <contour>
      <point x="190" y="0" type="line" name="n00"/>
      <point x="316.667" y="0" type="line"/>
      <point x="356.667" y="230" type="line"/>
      <point x="654.667" y="700" type="line" name="n03"/>
      <point x="523" y="700" type="line"/>
      <point x="340.333" y="401.667" type="line" smooth="yes"/>
      <point x="333" y="390"/>
      <point x="328" y="379"/>
      <point x="323.667" y="368.667" type="curve"/>
      <point x="321.188" y="364.076"/>
      <point x="318.085" y="356.099"/>
      <point x="317" y="351.667" type="curve"/>
      <point x="313" y="351.667" type="line"/>
      <point x="313" y="357.333"/>
      <point x="313" y="363"/>
      <point x="312" y="368.667" type="curve"/>
      <point x="311" y="378.667"/>
      <point x="310" y="390"/>
      <point x="307" y="401.667" type="curve" smooth="yes"/>
      <point x="229.667" y="700" type="line"/>
      <point x="98" y="700" type="line" name="n20"/>
      <point x="230" y="230" type="line"/>
    </contour>
  </outline>
</glyph>
<glyph name="Z" format="2">
  <advance width="512"/>
  <unicode hex="005A"/>
  <outline>
    <contour>
      <point x="6.66667" y="0" type="line" name="n00"/>
      <point x="455" y="0" type="line" name="n01"/>
      <point x="469" y="83.3333" type="line" name="n02"/>
      <point x="167.333" y="83.3333" type="line"/>
      <point x="557.333" y="611.667" type="line"/>
      <point x="573" y="700" type="line" name="n05"/>
      <point x="129.667" y="700" type="line" name="n06"/>
      <point x="115" y="616.667" type="line" name="n07"/>
      <point x="411.667" y="616.667" type="line"/>
      <point x="21.6667" y="88.3333" type="line"/>
    </contour>
  </outline>
</glyph>
<glyph name="bracketleft" format="2">
  <advance width="327"/>
  <unicode hex="005B"/>
  <outline>
    <contour>
      <point x="258.333" y="-170" type="line" name="n00"/>
      <point x="272.333" y="-86.6667" type="line" name="n01"/>
      <point x="172.333" y="-86.6667" type="line"/>
      <point x="301.667" y="646.667" type="line"/>
      <point x="401.667" y="646.667" type="line" name="n04"/>
      <point x="416.333" y="730" type="line" name="n05"/>
      <point x="189.667" y="730" type="line"/>
      <point x="31.6667" y="-170" type="line" name="n07"/>
    </contour>
  </outline>
</glyph>
<glyph name="backslash" format="2">
  <advance width="437"/>
  <unicode hex="005C"/>
  <outline>
    <contour>
      <point x="411.667" y="0" type="line" name="n00"/>
      <point x="224.667" y="700" type="line" name="n01"/>
      <point x="98" y="700" type="line" name="n02"/>
      <point x="285" y="0" type="line"/>
    </contour>
  </outline>
</glyph>
<glyph name="bracketright" format="2">
  <advance width="327"/>
  <unicode hex="005D"/>
  <outline>
    <contour>
      <point x="-27" y="-86.6667" type="line" name="n00"/>
      <point x="-40.6667" y="-170" type="line" name="n01"/>
      <point x="185" y="-170" type="line"/>
      <point x="343" y="730" type="line" name="n03"/>
      <point x="116.333" y="730" type="line" name="n04"/>
      <point x="101.667" y="646.667" type="line" name="n05"/>
      <point x="201.667" y="646.667" type="line"/>
      <point x="72.3333" y="-86.6667" type="line"/>
    </contour>
  </outline>
</glyph>
<glyph name="asciicircum" format="2">
  <advance width="457"/>
  <unicode hex="005E"/>
  <outline>
    <contour>
      <point x="52" y="440" type="line" name="n00"/>
      <point x="172" y="440" type="line"/>
      <point x="309.667" y="606.667" type="line"/>
      <point x="388.667" y="440" type="line" name="n03"/>
      <point x="508.667" y="440" type="line" name="n04"/>
      <point x="374.333" y="720" type="line" name="n05"/>
      <point x="284.333" y="720" type="line"/>
    </contour>
  </outline>
</glyph>
<glyph name="underscore" format="2">
  <advance width="387"/>
  <unicode hex="005F"/>
  <outline>
    <contour>
      <point x="-48.3333" y="-136.667" type="line" name="n00"/>
      <point x="337.333" y="-136.667" type="line"/>
      <point x="353.333" y="-43.3333" type="line" name="n02"/>
      <point x="-32.3333" y="-43.3333" type="line" name="n03"/>
    </contour>
  </outline>
</glyph>
<glyph name="grave" format="2">
  <advance width="192"/>
  <unicode hex="0060"/>
  <outline>
    <contour>
      <point x="177.667" y="550" type="line"/>
      <point x="252.667" y="550" type="line" name="n01"/>
      <point x="234.667" y="700" type="line" name="n02"/>
      <point x="108" y="700" type="line" name="n03"/>
    </contour>
  </outline>
</glyph>
<glyph name="a" format="2">
  <advance width="530"/>
  <unicode hex="0061"/>
  <outline>
    <contour>
      <point x="191.047" y="-10" type="curve" smooth="yes" name="n00"/>
      <point x="251.35" y="-10"/>
      <point x="304.913" y="17.1294"/>
      <point x="343.333" y="60" type="curve"/>
      <point x="348.333" y="60" type="line"/>
      <point x="348.333" y="0" type="line" name="n05"/>
      <point x="438.333" y="0" type="line"/>
      <point x="494.333" y="320" type="line" smooth="yes"/>
      <point x="496.48" y="332.429"/>
      <point x="497.542" y="344.474"/>
      <point x="497.542" y="356.065" type="curve" smooth="yes" name="n10"/>
      <point x="497.542" y="447.057"/>
      <point x="432.096" y="510"/>
      <point x="315.523" y="510" type="curve" smooth="yes" name="n13"/>
      <point x="251.084" y="510"/>
      <point x="187.679" y="490.688"/>
      <point x="135.667" y="458.333" type="curve"/>
      <point x="164.333" y="385" type="line"/>
      <point x="174.333" y="385" type="line"/>
      <point x="206.224" y="409.267"/>
      <point x="248.164" y="426.667"/>
      <point x="292.18" y="426.667" type="curve" smooth="yes" name="n21"/>
      <point x="342.778" y="426.667"/>
      <point x="370.822" y="403.719"/>
      <point x="370.822" y="352.773" type="curve" smooth="yes" name="n24"/>
      <point x="370.822" y="342.914"/>
      <point x="369.773" y="332.003"/>
      <point x="367.667" y="320" type="curve" smooth="yes"/>
      <point x="364.333" y="301.667" type="line"/>
      <point x="291" y="301.667" type="line" smooth="yes" name="n29"/>
      <point x="166.622" y="301.667"/>
      <point x="38.7474" y="256.471"/>
      <point x="38.7474" y="116.436" type="curve" smooth="yes"/>
      <point x="38.7474" y="38.3857"/>
      <point x="91.6648" y="-10" name="hr02"/>
    </contour>
    <contour>
      <point x="226.185" y="78.3333" type="curve" smooth="yes" name="n35"/>
      <point x="189.426" y="78.3333"/>
      <point x="166.858" y="98.3421"/>
      <point x="166.858" y="136.105" type="curve" smooth="yes"/>
      <point x="166.858" y="193.408"/>
      <point x="218.912" y="218.333"/>
      <point x="276" y="218.333" type="curve" smooth="yes" name="n41"/>
      <point x="349.333" y="218.333" type="line"/>
      <point x="335.667" y="138.333" type="line"/>
      <point x="310.24" y="110.455"/>
      <point x="272.575" y="78.3333"/>
    </contour>
  </outline>
</glyph>
<glyph name="b" format="2">
  <advance width="552"/>
  <unicode hex="0062"/>
  <outline>
    <contour>
      <point x="288" y="-10" type="curve" smooth="yes" name="n00"/>
      <point x="396.667" y="-10"/>
      <point x="495.333" y="75"/>
      <point x="527.333" y="250" type="curve"/>
      <point x="556.333" y="425"/>
      <point x="487.667" y="510"/>
      <point x="365.667" y="510" type="curve" smooth="yes" name="n06"/>
      <point x="334.667" y="510"/>
      <point x="308.667" y="502"/>
      <point x="289" y="495" type="curve"/>
      <point x="257.333" y="480" type="line"/>
      <point x="296.333" y="700" type="line" name="n11"/>
      <point x="206.333" y="700" type="line"/>
      <point x="163.333" y="663.333" type="line"/>
      <point x="46.6667" y="0" type="line" name="n14"/>
      <point x="136.667" y="0" type="line"/>
      <point x="156.667" y="60" type="line"/>
      <point x="161.667" y="60" type="line"/>
      <point x="168.667" y="47"/>
      <point x="178" y="35"/>
      <point x="190" y="25" type="curve"/>
      <point x="209.667" y="6"/>
      <point x="241" y="-10" name="hr02"/>
    </contour>
    <contour>
      <point x="278" y="78.3333" type="curve" smooth="yes" name="n23"/>
      <point x="249" y="78.3333"/>
      <point x="229.333" y="93.3333"/>
      <point x="216" y="108.333" type="curve" smooth="yes"/>
      <point x="208.333" y="117.333"/>
      <point x="201.667" y="127.333"/>
      <point x="197.333" y="138.333" type="curve"/>
      <point x="243.333" y="400" type="line"/>
      <point x="250.667" y="404.667"/>
      <point x="259" y="409"/>
      <point x="268.667" y="413.333" type="curve"/>
      <point x="285" y="419.667"/>
      <point x="305.333" y="426.667"/>
      <point x="330" y="426.667" type="curve" smooth="yes" name="n36"/>
      <point x="388.333" y="426.667"/>
      <point x="424.667" y="383.333"/>
      <point x="400.667" y="250" type="curve" smooth="yes"/>
      <point x="378.667" y="121.667"/>
      <point x="325.667" y="78.3333"/>
    </contour>
  </outline>
</glyph>
<glyph name="d" format="2">
  <advance width="552"/>
  <unicode hex="0064"/>
  <outline>
    <contour>
      <point x="209.667" y="-10" type="curve" smooth="yes" name="n00"/>
      <point x="256.667" y="-10"/>
      <point x="292.667" y="6"/>
      <point x="319.667" y="25" type="curve"/>
      <point x="335" y="35"/>
      <point x="348.333" y="47"/>
      <point x="360" y="60" type="curve"/>
      <point x="365" y="60" type="line"/>
      <point x="365" y="0" type="line" name="n08"/>
      <point x="455" y="0" type="line"/>
      <point x="578" y="700" type="line" name="n10"/>
      <point x="488" y="700" type="line"/>
      <point x="445" y="663.333" type="line"/>
      <point x="412.333" y="480" type="line"/>
      <point x="406.192" y="484.07"/>
      <point x="393.431" y="490.784"/>
      <point x="385.667" y="495" type="curve"/>
      <point x="368.667" y="502"/>
      <point x="345" y="510"/>
      <point x="314" y="510" type="curve" smooth="yes" name="n19"/>
      <point x="192.333" y="510"/>
      <point x="92.6667" y="425.667"/>
      <point x="62.3333" y="250" type="curve"/>
      <point x="30.3333" y="75"/>
      <point x="101.667" y="-10" name="hr02"/>
    </contour>
    <contour>
      <point x="249.667" y="78.3333" type="curve" smooth="yes" name="n25"/>
      <point x="201.333" y="78.3333"/>
      <point x="167" y="121.667"/>
      <point x="189" y="250" type="curve" smooth="yes"/>
      <point x="213" y="383.333"/>
      <point x="262.667" y="426.667"/>
      <point x="321.667" y="426.667" type="curve" smooth="yes" name="n31"/>
      <point x="346" y="426.667"/>
      <point x="364.667" y="419.667"/>
      <point x="378" y="413.333" type="curve"/>
      <point x="385.667" y="409"/>
      <point x="392.667" y="404.667"/>
      <point x="398.333" y="400" type="curve"/>
      <point x="352.333" y="138.333" type="line"/>
      <point x="343" y="127.333"/>
      <point x="333" y="117.333"/>
      <point x="322.333" y="108.333" type="curve"/>
      <point x="303.333" y="93.3333"/>
      <point x="278" y="78.3333"/>
    </contour>
  </outline>
</glyph>
<glyph name="f" format="2">
  <advance width="357"/>
  <unicode hex="0066"/>
  <outline>
    <contour>
      <point x="53.3333" y="0" type="line" name="n00"/>
      <point x="180" y="0" type="line"/>
      <point x="253" y="416.667" type="line" name="n02"/>
      <point x="381.333" y="416.667" type="line"/>
      <point x="396.333" y="500" type="line"/>
      <point x="268" y="500" type="line" name="n05"/>
      <point x="275.333" y="543.333" type="line" smooth="yes"/>
      <point x="285" y="597.333"/>
      <point x="320" y="626.667"/>
      <point x="358.333" y="626.667" type="curve" smooth="yes" name="n09"/>
      <point x="381.333" y="626.667"/>
      <point x="400" y="616.667"/>
      <point x="415" y="605.667" type="curve" smooth="yes"/>
      <point x="423.333" y="599.333"/>
      <point x="430.667" y="592.333"/>
      <point x="437.667" y="585" type="curve"/>
      <point x="447.667" y="585" type="line"/>
      <point x="502.333" y="658.333" type="line" name="n17"/>
      <point x="490" y="667.667"/>
      <point x="477.333" y="676.667"/>
      <point x="463" y="684" type="curve" smooth="yes"/>
      <point x="438.667" y="697"/>
      <point x="404.333" y="710"/>
      <point x="363.333" y="710" type="curve" smooth="yes" name="n23"/>
      <point x="246.667" y="710"/>
      <point x="165.333" y="642"/>
      <point x="148.667" y="543.333" type="curve" smooth="yes"/>
      <point x="141.333" y="500" type="line"/>
      <point x="83" y="500" type="line"/>
      <point x="68" y="416.667" type="line"/>
      <point x="126.333" y="416.667" type="line"/>
    </contour>
  </outline>
</glyph>
<glyph name="g" format="2">
  <advance width="552"/>
  <unicode hex="0067"/>
  <outline>
    <contour>
      <point x="188.667" y="-210" type="curve" smooth="yes" name="n00"/>
      <point x="334" y="-210"/>
      <point x="432" y="-126"/>
      <point x="453" y="-10" type="curve" smooth="yes"/>
      <point x="543" y="500" type="line" name="n04"/>
      <point x="453" y="500" type="line"/>
      <point x="432" y="440" type="line"/>
      <point x="427" y="440" type="line"/>
      <point x="420" y="453"/>
      <point x="410" y="464"/>
      <point x="398.667" y="475" type="curve"/>
      <point x="378.333" y="492"/>
      <point x="347.667" y="510" name="hr01"/>
      <point x="300.667" y="510" type="curve" smooth="yes" name="n13"/>
      <point x="192.667" y="510"/>
      <point x="91.3333" y="425"/>
      <point x="62.3333" y="250" type="curve"/>
      <point x="31" y="75"/>
      <point x="101.333" y="-10"/>
      <point x="223" y="-10" type="curve" smooth="yes" name="n19"/>
      <point x="254" y="-10"/>
      <point x="280" y="-3"/>
      <point x="299.667" y="5" type="curve"/>
      <point x="311" y="9"/>
      <point x="321.667" y="14"/>
      <point x="331.333" y="20" type="curve"/>
      <point x="326.333" y="-10" type="line" smooth="yes"/>
      <point x="312.333" y="-87.6667"/>
      <point x="265.333" y="-126.667"/>
      <point x="193.667" y="-126.667" type="curve" smooth="yes" name="n29"/>
      <point x="160" y="-126.667"/>
      <point x="134.667" y="-117"/>
      <point x="117" y="-106" type="curve" smooth="yes"/>
      <point x="106.667" y="-99.6667"/>
      <point x="98.3333" y="-92.6667"/>
      <point x="91" y="-85" type="curve"/>
      <point x="81" y="-85" type="line"/>
      <point x="26.3333" y="-158.333" type="line"/>
      <point x="38.6667" y="-168"/>
      <point x="52.6667" y="-177"/>
      <point x="69" y="-184.333" type="curve"/>
      <point x="96.6667" y="-198"/>
      <point x="136.333" y="-210"/>
    </contour>
    <contour>
      <point x="259.333" y="73.3333" type="curve" smooth="yes" name="n43"/>
      <point x="200.667" y="73.3333"/>
      <point x="165" y="116.667"/>
      <point x="189" y="250" type="curve" smooth="yes"/>
      <point x="211" y="378.333"/>
      <point x="262" y="421.667"/>
      <point x="310.667" y="421.667" type="curve" smooth="yes" name="n49"/>
      <point x="339" y="421.667"/>
      <point x="359.333" y="406.667"/>
      <point x="372.667" y="391.667" type="curve" smooth="yes"/>
      <point x="380.333" y="382.667"/>
      <point x="387.333" y="372.667"/>
      <point x="391.667" y="361.667" type="curve"/>
      <point x="345.667" y="100" type="line"/>
      <point x="338" y="94.6667"/>
      <point x="329.667" y="90.3333"/>
      <point x="320.667" y="86.6667" type="curve" smooth="yes"/>
      <point x="304.333" y="79.6667"/>
      <point x="283.667" y="73.3333"/>
    </contour>
  </outline>
</glyph>
<glyph name="j" format="2">
  <advance width="283"/>
  <unicode hex="006A"/>
  <outline>
    <contour>
      <point x="223.333" y="570" type="curve" smooth="yes" name="n00"/>
      <point x="261.667" y="570"/>
      <point x="297.667" y="601.667"/>
      <point x="305.333" y="640" type="curve" smooth="yes"/>
      <point x="312.333" y="678.333"/>
      <point x="286.667" y="710"/>
      <point x="248.333" y="710" type="curve" smooth="yes" name="n06"/>
      <point x="209.333" y="710"/>
      <point x="173" y="678.333"/>
      <point x="165.333" y="640" type="curve" smooth="yes"/>
      <point x="158.333" y="601.667"/>
      <point x="185" y="570"/>
    </contour>
    <contour>
      <point x="-33.3333" y="-200" type="curve" smooth="yes" name="n12"/>
      <point x="81.6667" y="-200"/>
      <point x="164" y="-132"/>
      <point x="180" y="-33.3333" type="curve"/>
      <point x="274.667" y="500" type="line" name="n16"/>
      <point x="148" y="500" type="line"/>
      <point x="53.3333" y="-33.3333" type="line" smooth="yes"/>
      <point x="43.6667" y="-90.6667"/>
      <point x="12.3333" y="-116.667"/>
      <point x="-29" y="-116.667" type="curve" smooth="yes" name="n21"/>
      <point x="-44" y="-116.667"/>
      <point x="-55.6667" y="-111.667"/>
      <point x="-64.6667" y="-104.667" type="curve"/>
      <point x="-69.6667" y="-101.667"/>
      <point x="-74.6667" y="-96.6667"/>
      <point x="-78.6667" y="-91.6667" type="curve"/>
      <point x="-88.6667" y="-91.6667" type="line"/>
      <point x="-134" y="-170" type="line"/>
      <point x="-126.333" y="-176"/>
      <point x="-117" y="-181"/>
      <point x="-106.667" y="-185" type="curve"/>
      <point x="-88.6667" y="-193"/>
      <point x="-64.3333" y="-200"/>
    </contour>
  </outline>
</glyph>
<glyph name="k" format="2">
  <advance width="500"/>
  <unicode hex="006B"/>
  <outline>
    <contour>
      <point x="46.6667" y="0" type="line" name="n00"/>
      <point x="173.333" y="0" type="line"/>
      <point x="215.333" y="240" type="line"/>
      <point x="326.667" y="0" type="line"/>
      <point x="468.333" y="0" type="line"/>
      <point x="336.667" y="260" type="line"/>
      <point x="546.333" y="500" type="line" name="n06"/>
      <point x="404.667" y="500" type="line"/>
      <point x="222.333" y="280" type="line"/>
      <point x="296.333" y="700" type="line" name="n09"/>
      <point x="206.333" y="700" type="line"/>
      <point x="163.333" y="663.333" type="line"/>
    </contour>
  </outline>
</glyph>
<glyph name="n" format="2">
  <advance width="565"/>
  <unicode hex="006E"/>
  <outline>
    <contour>
      <point x="46.6667" y="0" type="line" name="n00"/>
      <point x="173.333" y="0" type="line"/>
      <point x="236.667" y="361.667" type="line"/>
      <point x="261.334" y="391.852"/>
      <point x="298.151" y="421.667"/>
      <point x="341.565" y="421.667" type="curve" smooth="yes" name="n05"/>
      <point x="380.544" y="421.667"/>
      <point x="406.016" y="397.64"/>
      <point x="406.016" y="352.461" type="curve" smooth="yes" name="n08"/>
      <point x="406.016" y="344.562"/>
      <point x="405.25" y="335.964"/>
      <point x="403.667" y="326.667" type="curve" smooth="yes"/>
      <point x="346.667" y="0" type="line"/>
      <point x="473.333" y="0" type="line"/>
      <point x="530.333" y="326.667" type="line" smooth="yes"/>
      <point x="533.036" y="341.845"/>
      <point x="534.364" y="356.221"/>
      <point x="534.364" y="369.741" type="curve" smooth="yes" name="n17"/>
      <point x="534.364" y="457.841"/>
      <point x="477.822" y="510"/>
      <point x="380.009" y="510" type="curve" smooth="yes" name="n20"/>
      <point x="324.664" y="510"/>
      <point x="264.125" y="481.905"/>
      <point x="228.667" y="440" type="curve" name="hr01"/>
      <point x="223.667" y="440" type="line" name="n24"/>
      <point x="224.667" y="500" type="line" name="n25"/>
      <point x="134.667" y="500" type="line"/>
    </contour>
  </outline>
</glyph>
<glyph name="o" format="2">
  <advance width="537"/>
  <unicode hex="006F"/>
  <outline>
    <contour>
      <point x="241.333" y="-10" type="curve" smooth="yes" name="n00"/>
      <point x="381.667" y="-10"/>
      <point x="481" y="74.3333"/>
      <point x="512.333" y="250" type="curve"/>
      <point x="541.333" y="425"/>
      <point x="472.333" y="510"/>
      <point x="332.333" y="510" type="curve" smooth="yes" name="n06"/>
      <point x="192" y="510"/>
      <point x="93.3333" y="426"/>
      <point x="62.3333" y="250" type="curve" smooth="yes"/>
      <point x="31.3333" y="74.3333"/>
      <point x="101" y="-10"/>
    </contour>
    <contour>
      <point x="256" y="73.3333" type="curve" smooth="yes" name="n12"/>
      <point x="200.667" y="73.3333"/>
      <point x="165" y="116.667"/>
      <point x="189" y="250" type="curve" smooth="yes"/>
      <point x="213" y="383.333"/>
      <point x="263.333" y="426.667"/>
      <point x="318.333" y="426.667" type="curve" smooth="yes" name="n18"/>
      <point x="373.333" y="426.667"/>
      <point x="409.667" y="383.333"/>
      <point x="385.667" y="250" type="curve" smooth="yes"/>
      <point x="361.667" y="116.667"/>
      <point x="310.667" y="73.3333"/>
    </contour>
  </outline>
</glyph>
<glyph name="p" format="2">
  <advance width="552"/>
  <unicode hex="0070"/>
  <outline>
    <contour>
      <point x="10.6667" y="-200" type="line"/>
      <point x="100.667" y="-200" type="line"/>
      <point x="144" y="-163.333" type="line"/>
      <point x="176.333" y="20" type="line"/>
      <point x="184" y="14"/>
      <point x="193.333" y="9"/>
      <point x="203" y="5" type="curve"/>
      <point x="220" y="-3"/>
      <point x="243.667" y="-10"/>
      <point x="274.667" y="-10" type="curve" smooth="yes" name="n09"/>
      <point x="397" y="-10"/>
      <point x="495.333" y="75"/>
      <point x="527.333" y="250" type="curve"/>
      <point x="556.333" y="425"/>
      <point x="488.333" y="510"/>
      <point x="379" y="510" type="curve" smooth="yes" name="n15"/>
      <point x="332" y="510"/>
      <point x="294.667" y="492"/>
      <point x="269" y="475" type="curve"/>
      <point x="253.667" y="464"/>
      <point x="239.667" y="453"/>
      <point x="228.667" y="440" type="curve" name="hr01"/>
      <point x="223.667" y="440" type="line" name="n22"/>
      <point x="224.667" y="500" type="line" name="n23"/>
      <point x="134.667" y="500" type="line"/>
    </contour>
    <contour>
      <point x="267.667" y="73.3333" type="curve" smooth="yes" name="n25"/>
      <point x="243" y="73.3333"/>
      <point x="224.333" y="79.6667"/>
      <point x="211" y="86.6667" type="curve"/>
      <point x="203.333" y="90.3333"/>
      <point x="196.333" y="94.6667"/>
      <point x="190.667" y="100" type="curve"/>
      <point x="236.667" y="361.667" type="line"/>
      <point x="245.667" y="372.667"/>
      <point x="255.667" y="382.667"/>
      <point x="266.333" y="391.667" type="curve" smooth="yes"/>
      <point x="284.667" y="406.667"/>
      <point x="310" y="421.667" name="hr02"/>
      <point x="339" y="421.667" type="curve" smooth="yes" name="n38"/>
      <point x="387" y="421.667"/>
      <point x="422.667" y="378.333"/>
      <point x="400.667" y="250" type="curve" smooth="yes"/>
      <point x="376.667" y="116.667"/>
      <point x="326.333" y="73.3333"/>
    </contour>
  </outline>
</glyph>
<glyph name="r" format="2">
  <advance width="385"/>
  <unicode hex="0072"/>
  <outline>
    <contour>
      <point x="46.6667" y="0" type="line" name="n00"/>
      <point x="173.333" y="0" type="line"/>
      <point x="235.667" y="356.667" type="line"/>
      <point x="244.667" y="367.667"/>
      <point x="254.333" y="377.667"/>
      <point x="265" y="386.667" type="curve" smooth="yes"/>
      <point x="283.333" y="401.667"/>
      <point x="308.333" y="416.667"/>
      <point x="336.333" y="416.667" type="curve" smooth="yes" name="n08"/>
      <point x="352.667" y="416.667"/>
      <point x="369.333" y="414.667"/>
      <point x="382" y="411.667" type="curve"/>
      <point x="389" y="409.667"/>
      <point x="396" y="407.667"/>
      <point x="403" y="406.667" type="curve"/>
      <point x="413" y="406.667" type="line"/>
      <point x="448" y="500" type="line" name="n16"/>
      <point x="441.626" y="500.941"/>
      <point x="432.064" y="503.387"/>
      <point x="425.667" y="505" type="curve"/>
      <point x="411.667" y="508"/>
      <point x="394.333" y="510" name="hr02"/>
      <point x="377.333" y="510" type="curve" smooth="yes" name="n22"/>
      <point x="331.333" y="510"/>
      <point x="294.333" y="492"/>
      <point x="268.667" y="475" type="curve"/>
      <point x="253.667" y="464"/>
      <point x="239.667" y="453"/>
      <point x="228.667" y="440" type="curve" name="hr03"/>
      <point x="223.667" y="440" type="line" name="n29"/>
      <point x="224.667" y="500" type="line" name="n30"/>
      <point x="134.667" y="500" type="line"/>
    </contour>
  </outline>
</glyph>
<glyph name="s" format="2">
  <advance width="477"/>
  <unicode hex="0073"/>
  <outline>
    <contour>
      <point x="203" y="-10" type="curve" smooth="yes" name="n00"/>
      <point x="354.667" y="-10"/>
      <point x="428.667" y="53"/>
      <point x="444.667" y="144" type="curve" smooth="yes"/>
      <point x="474" y="313.667"/>
      <point x="192" y="279.333"/>
      <point x="208.667" y="371.667" type="curve" smooth="yes"/>
      <point x="213.667" y="400"/>
      <point x="244" y="426.667"/>
      <point x="305" y="426.667" type="curve" smooth="yes" name="n09"/>
      <point x="341.333" y="426.667"/>
      <point x="370.667" y="416.667"/>
      <point x="390.333" y="405.667" type="curve" smooth="yes"/>
      <point x="402" y="399.333"/>
      <point x="412" y="392.333"/>
      <point x="421" y="385" type="curve"/>
      <point x="431" y="385" type="line"/>
      <point x="485.667" y="458.333" type="line" name="n17"/>
      <point x="472" y="467.667"/>
      <point x="456.667" y="476.667"/>
      <point x="438.333" y="484" type="curve" smooth="yes"/>
      <point x="407.667" y="497"/>
      <point x="365" y="510"/>
      <point x="309" y="510" type="curve" smooth="yes" name="n23"/>
      <point x="168" y="510"/>
      <point x="95.6667" y="446.667"/>
      <point x="80" y="361.667" type="curve" smooth="yes"/>
      <point x="48.6667" y="191.667"/>
      <point x="333.333" y="227.333"/>
      <point x="316" y="134" type="curve" smooth="yes"/>
      <point x="310.333" y="100"/>
      <point x="280" y="73.3333"/>
      <point x="204.333" y="73.3333" type="curve" smooth="yes" name="n32"/>
      <point x="162.333" y="73.3333"/>
      <point x="130.667" y="83"/>
      <point x="110" y="94" type="curve" smooth="yes"/>
      <point x="98" y="100.333"/>
      <point x="87.3333" y="107.333"/>
      <point x="78.3333" y="115" type="curve"/>
      <point x="68.3333" y="115" type="line"/>
      <point x="13.6667" y="41.6667" type="line" name="n40"/>
      <point x="27.3333" y="32"/>
      <point x="44.3333" y="23"/>
      <point x="63.3333" y="15.6667" type="curve" smooth="yes"/>
      <point x="96.3333" y="2"/>
      <point x="143" y="-10"/>
    </contour>
  </outline>
</glyph>
<glyph name="t" format="2">
  <advance width="410"/>
  <unicode hex="0074"/>
  <outline>
    <contour>
      <point x="236.333" y="-10" type="curve" smooth="yes" name="n00"/>
      <point x="276.333" y="-10"/>
      <point x="314" y="2"/>
      <point x="343.667" y="15" type="curve" smooth="yes"/>
      <point x="360.333" y="22"/>
      <point x="376.667" y="31"/>
      <point x="392" y="40" type="curve"/>
      <point x="363" y="113.333" type="line"/>
      <point x="353" y="113.333" type="line"/>
      <point x="344" y="106.333"/>
      <point x="334" y="99.3333"/>
      <point x="324" y="93.3333" type="curve"/>
      <point x="307" y="82.3333"/>
      <point x="284" y="73.3333"/>
      <point x="261" y="73.3333" type="curve" smooth="yes" name="n14"/>
      <point x="225.333" y="73.3333"/>
      <point x="203" y="99.3333"/>
      <point x="214" y="156.667" type="curve"/>
      <point x="259.667" y="416.667" type="line" name="n18"/>
      <point x="378" y="416.667" type="line"/>
      <point x="393" y="500" type="line"/>
      <point x="274.667" y="500" type="line" name="n21"/>
      <point x="295.667" y="620" type="line"/>
      <point x="244" y="620" type="line"/>
      <point x="75" y="476.667" type="line"/>
      <point x="64.6667" y="416.667" type="line"/>
      <point x="133" y="416.667" type="line"/>
      <point x="87.3333" y="156.667" type="line" smooth="yes"/>
      <point x="70" y="58"/>
      <point x="127" y="-10"/>
    </contour>
  </outline>
</glyph>
<glyph name="u" format="2">
  <advance width="570"/>
  <unicode hex="0075"/>
  <outline>
    <contour>
      <point x="228" y="-10" type="curve" smooth="yes" name="n00"/>
      <point x="275" y="-10"/>
      <point x="311" y="6"/>
      <point x="338" y="25" type="curve"/>
      <point x="353.333" y="35"/>
      <point x="366.667" y="47"/>
      <point x="378.333" y="60" type="curve"/>
      <point x="383.333" y="60" type="line"/>
      <point x="383.333" y="0" type="line" name="n08"/>
      <point x="473.333" y="0" type="line"/>
      <point x="561.333" y="500" type="line" name="n10"/>
      <point x="434.667" y="500" type="line"/>
      <point x="370.667" y="138.333" type="line"/>
      <point x="361.333" y="127.333"/>
      <point x="351.333" y="117.333"/>
      <point x="340.667" y="108.333" type="curve"/>
      <point x="321.667" y="93.3333"/>
      <point x="296.333" y="78.3333" name="hr02"/>
      <point x="268" y="78.3333" type="curve" smooth="yes" name="n18"/>
      <point x="219.333" y="78.3333"/>
      <point x="192.333" y="111.333"/>
      <point x="203.333" y="173.333" type="curve" smooth="yes"/>
      <point x="261.333" y="500" type="line"/>
      <point x="134.667" y="500" type="line"/>
      <point x="76.6667" y="173.333" type="line" smooth="yes"/>
      <point x="56.6667" y="59.3333"/>
      <point x="113.667" y="-10"/>
    </contour>
  </outline>
</glyph>
<glyph name="v" format="2">
  <advance width="490"/>
  <unicode hex="0076"/>
  <outline>
    <contour>
      <point x="150" y="0" type="line" name="n00"/>
      <point x="290" y="0" type="line" name="n01"/>
      <point x="541.333" y="500" type="line" name="n02"/>
      <point x="414.667" y="500" type="line"/>
      <point x="263.333" y="183.333" type="line" smooth="yes"/>
      <point x="257.333" y="171"/>
      <point x="252" y="157"/>
      <point x="248.667" y="144.667" type="curve"/>
      <point x="246.333" y="137.333"/>
      <point x="244.333" y="130.667"/>
      <point x="243" y="123.333" type="curve" name="n10"/>
      <point x="239" y="123.333" type="line"/>
      <point x="239.557" y="128.236"/>
      <point x="240.445" y="139.782"/>
      <point x="240.667" y="144.667" type="curve" smooth="yes"/>
      <point x="241.333" y="157.667"/>
      <point x="241.667" y="171"/>
      <point x="240" y="183.333" type="curve" smooth="yes"/>
      <point x="201.333" y="500" type="line"/>
      <point x="74.6667" y="500" type="line" name="n19"/>
    </contour>
  </outline>
</glyph>
<glyph name="x" format="2">
  <advance width="480"/>
  <unicode hex="0078"/>
  <outline>
    <contour>
      <point x="-13.3333" y="0" type="line" name="n00"/>
      <point x="120" y="0" type="line"/>
      <point x="222" y="138.333" type="line" smooth="yes"/>
      <point x="229" y="148.333"/>
      <point x="234.667" y="157"/>
      <point x="238.333" y="165" type="curve"/>
      <point x="240.104" y="168.431"/>
      <point x="242.502" y="174.128"/>
      <point x="243.667" y="178.333" type="curve"/>
      <point x="247.667" y="178.333" type="line"/>
      <point x="247.194" y="174.093"/>
      <point x="247.843" y="168.4"/>
      <point x="248.667" y="165" type="curve"/>
      <point x="250.333" y="157"/>
      <point x="251.333" y="148.333"/>
      <point x="255.333" y="138.333" type="curve" smooth="yes"/>
      <point x="310" y="0" type="line"/>
      <point x="443.333" y="0" type="line"/>
      <point x="335.667" y="255" type="line"/>
      <point x="526.333" y="500" type="line" name="n19"/>
      <point x="393" y="500" type="line"/>
      <point x="296" y="366.667" type="line" smooth="yes"/>
      <point x="288.333" y="356.667"/>
      <point x="283.333" y="346.667"/>
      <point x="279.667" y="339.333" type="curve"/>
      <point x="274.333" y="326.667" type="line"/>
      <point x="270.333" y="326.667" type="line"/>
      <point x="270.87" y="329.275"/>
      <point x="270.21" y="335.019"/>
      <point x="269.333" y="339.333" type="curve" smooth="yes"/>
      <point x="267.667" y="347"/>
      <point x="265.667" y="356.667"/>
      <point x="262.667" y="366.667" type="curve"/>
      <point x="213" y="500" type="line"/>
      <point x="79.6667" y="500" type="line"/>
      <point x="182.333" y="255" type="line"/>
    </contour>
  </outline>
</glyph>
<glyph name="z" format="2">
  <advance width="460"/>
  <unicode hex="007A"/>
  <outline>
    <contour>
      <point x="10" y="0" type="line" name="n00"/>
      <point x="400" y="0" type="line" name="n01"/>
      <point x="414" y="83.3333" type="line" name="n02"/>
      <point x="170.667" y="83.3333" type="line"/>
      <point x="467" y="411.667" type="line"/>
      <point x="483" y="500" type="line" name="n05"/>
      <point x="98" y="500" type="line" name="n06"/>
      <point x="83" y="416.667" type="line" name="n07"/>
      <point x="321.333" y="416.667" type="line"/>
      <point x="25" y="88.3333" type="line"/>
    </contour>
  </outline>
</glyph>
<glyph name="braceleft" format="2">
  <advance width="332"/>
  <unicode hex="007B"/>
  <outline>
    <contour>
      <point x="136" y="291.667" type="curve"/>
      <point x="146.687" y="289.896"/>
      <point x="155.363" y="278.397"/>
      <point x="164.667" y="281.667" type="curve" smooth="yes"/>
      <point x="199.667" y="293"/>
      <point x="223.333" y="307"/>
      <point x="226.667" y="323.333" type="curve"/>
      <point x="236" y="376.667" type="line"/>
      <point x="236.333" y="373.333"/>
      <point x="270.667" y="370"/>
      <point x="326.333" y="370" type="curve" smooth="yes" name="n10"/>
      <point x="361.333" y="370" type="line"/>
      <point x="376" y="453.333" type="line"/>
      <point x="341" y="453.333" type="line" smooth="yes" name="n13"/>
      <point x="237" y="453.333"/>
      <point x="184" y="422.333"/>
      <point x="176" y="376.667" type="curve" smooth="yes"/>
      <point x="166.667" y="323.333" type="line" smooth="yes"/>
      <point x="162.333" y="300"/>
      <point x="142" y="297"/>
      <point x="99.6667" y="303.333" type="curve" name="n20"/>
      <point x="94.5275" y="296.509"/>
      <point x="83.4949" y="259.284"/>
      <point x="77" y="250" type="curve" name="n23"/>
      <point x="119.667" y="251"/>
      <point x="134.667" y="239.667"/>
      <point x="131.667" y="200" type="curve"/>
      <point x="137.097" y="192.996"/>
      <point x="132.436" y="130.357"/>
      <point x="131.333" y="123.333" type="curve" smooth="yes"/>
      <point x="122.524" y="73.1128"/>
      <point x="161.953" y="68.0705"/>
      <point x="254.667" y="83.3333" type="curve" name="n32"/>
      <point x="261.647" y="98.3333"/>
      <point x="286.251" y="106.667"/>
      <point x="303.667" y="106.667" type="curve"/>
      <point x="325.333" y="166.667" type="line"/>
      <point x="306" y="190" type="line" name="n37"/>
      <point x="283.244" y="190"/>
      <point x="262.739" y="206.667"/>
      <point x="265" y="230" type="curve"/>
      <point x="234.093" y="253.195"/>
      <point x="223.827" y="305.353"/>
      <point x="222" y="296.667" type="curve"/>
      <point x="226.585" y="321.207"/>
      <point x="207.877" y="304.143"/>
      <point x="194" y="310" type="curve"/>
      <point x="182.333" y="293"/>
      <point x="163.667" y="289.667"/>
    </contour>
  </outline>
</glyph>
<glyph name="bar" format="2">
  <advance width="300"/>
  <unicode hex="007C"/>
  <outline>
    <contour>
      <point x="25.6667" y="-200" type="line" name="n00"/>
      <point x="152.333" y="-200" type="line"/>
      <point x="311.333" y="700" type="line" name="n02"/>
      <point x="184.667" y="700" type="line"/>
    </contour>
  </outline>
</glyph>
<glyph name="braceright" format="2">
  <advance width="332"/>
  <unicode hex="007D"/>
  <outline>
    <contour>
      <point x="243.667" y="268.333" type="curve"/>
      <point x="232.981" y="270.112"/>
      <point x="224.324" y="281.054"/>
      <point x="215" y="278.333" type="curve"/>
      <point x="180" y="265.667"/>
      <point x="156" y="253"/>
      <point x="153" y="236.667" type="curve" smooth="yes"/>
      <point x="143.667" y="183.333" type="line"/>
      <point x="143.333" y="186.667"/>
      <point x="108.333" y="190"/>
      <point x="52.6667" y="190" type="curve" smooth="yes"/>
      <point x="18.3333" y="190" type="line" name="n11"/>
      <point x="4.33333" y="106.667" type="line" name="n12"/>
      <point x="38.6667" y="106.667" type="line" smooth="yes"/>
      <point x="142.667" y="106.667"/>
      <point x="195.333" y="137.667"/>
      <point x="203.667" y="183.333" type="curve" smooth="yes"/>
      <point x="213" y="236.667" type="line" smooth="yes"/>
      <point x="216.667" y="260"/>
      <point x="237" y="262.333"/>
      <point x="280" y="256.667" type="curve" name="n20"/>
      <point x="285.226" y="263.646"/>
      <point x="296.177" y="300.746"/>
      <point x="302.667" y="310" type="curve" name="n23"/>
      <point x="260" y="309"/>
      <point x="244.333" y="320"/>
      <point x="248" y="360" type="curve"/>
      <point x="242.669" y="366.901"/>
      <point x="247.225" y="429.607"/>
      <point x="248.333" y="436.667" type="curve" smooth="yes"/>
      <point x="257.163" y="486.335"/>
      <point x="218.399" y="492.038"/>
      <point x="125" y="476.667" type="curve"/>
      <point x="117.657" y="461.667"/>
      <point x="93.4259" y="453.333"/>
      <point x="76" y="453.333" type="curve" name="n35"/>
      <point x="54" y="393.333" type="line" name="n36"/>
      <point x="73.3333" y="370" type="line"/>
      <point x="96.0152" y="370"/>
      <point x="117.013" y="353.333"/>
      <point x="114.667" y="330" type="curve"/>
      <point x="145.573" y="306.805"/>
      <point x="155.84" y="254.647"/>
      <point x="157.667" y="263.333" type="curve"/>
      <point x="153.077" y="238.769"/>
      <point x="171.853" y="254.882"/>
      <point x="185.667" y="250" type="curve"/>
      <point x="197" y="266.333"/>
      <point x="216" y="270.333"/>
    </contour>
  </outline>
</glyph>
<glyph name="asciitilde" format="2">
  <advance width="495"/>
  <unicode hex="007E"/>
  <outline>
    <contour>
      <point x="354.667" y="231.667" type="curve" smooth="yes" name="n00"/>
      <point x="418" y="231.667"/>
      <point x="481.333" y="287.667"/>
      <point x="507.667" y="340" type="curve" name="n03"/>
      <point x="449.667" y="400" type="line"/>
      <point x="440.667" y="400" type="line"/>
      <point x="441.333" y="400"/>
      <point x="402.333" y="341.667"/>
      <point x="360.667" y="341.667" type="curve" smooth="yes" name="n08"/>
      <point x="303.333" y="341.667"/>
      <point x="290.333" y="410" name="hr01"/>
      <point x="203" y="410" type="curve" smooth="yes" name="n11"/>
      <point x="140.333" y="410"/>
      <point x="76.3333" y="354"/>
      <point x="49" y="301.667" type="curve" name="n14"/>
      <point x="107.667" y="241.667" type="line"/>
      <point x="116.667" y="241.667" type="line"/>
      <point x="115.667" y="241.667"/>
      <point x="155" y="300"/>
      <point x="197" y="300" type="curve" smooth="yes" name="n19"/>
      <point x="254" y="300"/>
      <point x="267.667" y="231.667" name="hr02"/>
    </contour>
  </outline>
</glyph>
<glyph name="exclamdown" format="2">
  <advance width="290"/>
  <unicode hex="00A1"/>
  <outline>
    <contour>
      <point x="168.333" y="390" type="curve" smooth="yes" name="n00"/>
      <point x="192.667" y="378.333"/>
      <point x="226.333" y="393.333"/>
      <point x="243.333" y="420" type="curve" smooth="yes"/>
      <point x="259.667" y="446.667"/>
      <point x="250" y="478.333"/>
      <point x="225.667" y="490" type="curve" smooth="yes" name="n06"/>
      <point x="201.333" y="501.667"/>
      <point x="167.333" y="486.667"/>
      <point x="150.333" y="460" type="curve" smooth="yes"/>
      <point x="134" y="433.333"/>
      <point x="144" y="401.667"/>
    </contour>
    <contour>
      <point x="120" y="306.667" type="line"/>
      <point x="10.6667" y="-200" type="line"/>
      <point x="157.333" y="-200" type="line"/>
      <point x="226.667" y="306.667" type="line"/>
    </contour>
  </outline>
</glyph>
<glyph name="cent" format="2">
  <advance width="468"/>
  <unicode hex="00A2"/>
  <outline>
    <contour>
      <point x="168.667" y="-70" type="line" name="hr04"/>
      <point x="288.667" y="-70" type="line" name="n01"/>
      <point x="299.667" y="-6.33333" type="line" name="n02"/>
      <point x="336.667" y="-1.33333"/>
      <point x="369" y="10.3333"/>
      <point x="392.333" y="21.6667" type="curve" smooth="yes"/>
      <point x="405.667" y="28"/>
      <point x="418.667" y="34.6667"/>
      <point x="430.333" y="41.6667" type="curve"/>
      <point x="401.667" y="115" type="line"/>
      <point x="391.667" y="115" type="line"/>
      <point x="381.667" y="107.333"/>
      <point x="370.333" y="100.333"/>
      <point x="358" y="94" type="curve" smooth="yes"/>
      <point x="337" y="83"/>
      <point x="309.333" y="73.3333" name="hr02"/>
      <point x="277.667" y="73.3333" type="curve" smooth="yes" name="n16"/>
      <point x="201.333" y="73.3333"/>
      <point x="165" y="116.667"/>
      <point x="189" y="250" type="curve" smooth="yes"/>
      <point x="213" y="383.333"/>
      <point x="263.333" y="426.667"/>
      <point x="330" y="426.667" type="curve" smooth="yes" name="n22"/>
      <point x="361.667" y="426.667"/>
      <point x="386" y="416.667"/>
      <point x="403" y="405.667" type="curve" smooth="yes"/>
      <point x="412.667" y="399.333"/>
      <point x="421.667" y="392.333"/>
      <point x="429.333" y="385" type="curve"/>
      <point x="439.333" y="385" type="line"/>
      <point x="494" y="458.333" type="line"/>
      <point x="486" y="464.667"/>
      <point x="477" y="470.667"/>
      <point x="466" y="476.333" type="curve" smooth="yes"/>
      <point x="447" y="486"/>
      <point x="423" y="497.333"/>
      <point x="390.667" y="505" type="curve"/>
      <point x="399.667" y="560" type="line"/>
      <point x="279.667" y="560" type="line" name="n38"/>
      <point x="270" y="501.667" type="line"/>
      <point x="162.333" y="478"/>
      <point x="88" y="397"/>
      <point x="62.3333" y="250" type="curve"/>
      <point x="35.3333" y="103.667"/>
      <point x="78" y="23.3333"/>
      <point x="181.333" y="-1" type="curve" name="n45"/>
    </contour>
  </outline>
</glyph>
<glyph name="sterling" format="2">
  <advance width="495"/>
  <unicode hex="00A3"/>
  <outline>
    <contour>
      <point x="6.66667" y="0" type="line" name="n00"/>
      <point x="460" y="0" type="line"/>
      <point x="474" y="83.3333" type="line"/>
      <point x="149" y="83.3333" type="line"/>
      <point x="164" y="91.6667"/>
      <point x="178.333" y="103"/>
      <point x="191.333" y="117.333" type="curve" smooth="yes"/>
      <point x="214.333" y="142.333"/>
      <point x="238.667" y="180.667"/>
      <point x="251" y="243.333" type="curve"/>
      <point x="265" y="323.333" type="line" name="n10"/>
      <point x="393.333" y="323.333" type="line"/>
      <point x="408" y="406.667" type="line"/>
      <point x="279.667" y="406.667" type="line" name="n13"/>
      <point x="303.333" y="540" type="line" smooth="yes"/>
      <point x="313" y="594"/>
      <point x="348.333" y="626.667"/>
      <point x="390" y="626.667" type="curve" smooth="yes" name="n17"/>
      <point x="423" y="626.667"/>
      <point x="448.667" y="614.667"/>
      <point x="465.667" y="603.667" type="curve"/>
      <point x="475.667" y="596.667"/>
      <point x="484.333" y="589.667"/>
      <point x="492" y="581.667" type="curve"/>
      <point x="502" y="581.667" type="line"/>
      <point x="556.667" y="655" type="line" name="n25"/>
      <point x="545.667" y="665"/>
      <point x="532.333" y="674"/>
      <point x="516" y="682" type="curve"/>
      <point x="489" y="697"/>
      <point x="448.333" y="710"/>
      <point x="395" y="710" type="curve" smooth="yes" name="n31"/>
      <point x="281.667" y="710"/>
      <point x="192.667" y="636"/>
      <point x="176.667" y="540" type="curve"/>
      <point x="153" y="406.667" type="line"/>
      <point x="94.6667" y="406.667" type="line"/>
      <point x="80" y="323.333" type="line"/>
      <point x="138.333" y="323.333" type="line"/>
      <point x="124.333" y="243.333" type="line"/>
      <point x="112" y="179.333"/>
      <point x="86.6667" y="140.333"/>
      <point x="63.6667" y="116" type="curve" smooth="yes"/>
      <point x="50.6667" y="101.667"/>
      <point x="35.6667" y="91"/>
      <point x="20.6667" y="83.3333" type="curve" name="n45"/>
    </contour>
  </outline>
</glyph>
<glyph name="currency" format="2">
  <advance width="592"/>
  <unicode hex="00A4"/>
  <outline>
    <contour>
      <point x="68.3333" y="0" type="line" name="n00"/>
      <point x="195" y="0" type="line"/>
      <point x="222.667" y="160" type="line" name="n02"/>
      <point x="466" y="160" type="line"/>
      <point x="478.333" y="230" type="line"/>
      <point x="235" y="230" type="line" name="n05"/>
      <point x="242.667" y="273.333" type="line" name="n06"/>
      <point x="309.333" y="273.333" type="line" smooth="yes"/>
      <point x="491.667" y="273.333"/>
      <point x="587.333" y="353"/>
      <point x="609" y="480" type="curve"/>
      <point x="633.333" y="614.333"/>
      <point x="561" y="700"/>
      <point x="384.667" y="700" type="curve" smooth="yes" name="n13"/>
      <point x="191.333" y="700" type="line"/>
      <point x="128.333" y="343.333" type="line"/>
      <point x="55" y="343.333" type="line"/>
      <point x="42.6667" y="273.333" type="line"/>
      <point x="116" y="273.333" type="line"/>
      <point x="108.333" y="230" type="line"/>
      <point x="35" y="230" type="line"/>
      <point x="22.6667" y="160" type="line"/>
      <point x="96" y="160" type="line"/>
    </contour>
    <contour>
      <point x="255" y="343.333" type="line" name="n23"/>
      <point x="303.333" y="616.667" type="line"/>
      <point x="370" y="616.667" type="line" smooth="yes" name="n25"/>
      <point x="461.333" y="616.667"/>
      <point x="498.333" y="571.333"/>
      <point x="482.333" y="480" type="curve" smooth="yes"/>
      <point x="466.667" y="388.667"/>
      <point x="413" y="343.333"/>
      <point x="321.667" y="343.333" type="curve" smooth="yes"/>
    </contour>
  </outline>
</glyph>
<glyph name="yen" format="2">
  <advance width="557"/>
  <unicode hex="00A5"/>
  <outline>
    <contour>
      <point x="190" y="0" type="line" name="n00"/>
      <point x="316.667" y="0" type="line"/>
      <point x="346.333" y="173.333" type="line"/>
      <point x="489.667" y="173.333" type="line"/>
      <point x="504" y="253.333" type="line"/>
      <point x="373.667" y="253.333" type="line"/>
      <point x="403.667" y="301.667" type="line"/>
      <point x="512.333" y="301.667" type="line" name="n07"/>
      <point x="526.667" y="381.667" type="line" name="n08"/>
      <point x="452" y="381.667" type="line"/>
      <point x="654.667" y="700" type="line" name="n10"/>
      <point x="523" y="700" type="line"/>
      <point x="340.333" y="401.667" type="line" smooth="yes"/>
      <point x="333" y="390"/>
      <point x="328" y="379"/>
      <point x="323.667" y="368.667" type="curve"/>
      <point x="321.188" y="364.076"/>
      <point x="318.085" y="356.099"/>
      <point x="317" y="351.667" type="curve"/>
      <point x="313" y="351.667" type="line"/>
      <point x="313" y="357.333"/>
      <point x="313" y="363"/>
      <point x="312" y="368.667" type="curve"/>
      <point x="311" y="378.667"/>
      <point x="310" y="390"/>
      <point x="307" y="401.667" type="curve" smooth="yes"/>
      <point x="229.667" y="700" type="line"/>
      <point x="98" y="700" type="line"/>
      <point x="188" y="381.667" type="line"/>
      <point x="113.333" y="381.667" type="line"/>
      <point x="99" y="301.667" type="line"/>
      <point x="207.667" y="301.667" type="line"/>
      <point x="221" y="253.333" type="line" name="n32"/>
      <point x="90.6667" y="253.333" type="line"/>
      <point x="76.3333" y="173.333" type="line" name="n34"/>
      <point x="219.667" y="173.333" type="line" name="n35"/>
    </contour>
  </outline>
</glyph>
<glyph name="brokenbar" format="2">
  <advance width="300"/>
  <unicode hex="00A6"/>
  <outline>
    <contour>
      <point x="116.333" y="313.333" type="line"/>
      <point x="243" y="313.333" type="line"/>
      <point x="311.333" y="700" type="line" name="n02"/>
      <point x="184.667" y="700" type="line"/>
    </contour>
    <contour>
      <point x="25.6667" y="-200" type="line" name="n04"/>
      <point x="152.333" y="-200" type="line"/>
      <point x="220.667" y="186.667" type="line"/>
      <point x="94" y="186.667" type="line"/>
    </contour>
  </outline>
</glyph>
<glyph name="section" format="2">
  <advance width="530"/>
  <unicode hex="00A7"/>
  <outline>
    <contour>
      <point x="186.379" y="-210" type="curve" smooth="yes" name="n00"/>
      <point x="310.841" y="-210"/>
      <point x="449.9" y="-147.98"/>
      <point x="449.9" y="-2.69067" type="curve" smooth="yes"/>
      <point x="449.9" y="36.5652"/>
      <point x="430.099" y="74.2522"/>
      <point x="398.333" y="94" type="curve"/>
      <point x="464.53" y="124.67"/>
      <point x="508.212" y="200.133"/>
      <point x="508.212" y="270.189" type="curve" smooth="yes"/>
      <point x="508.212" y="364.671"/>
      <point x="428.015" y="401.497"/>
      <point x="356.73" y="434.231" type="curve" smooth="yes"/>
      <point x="299.669" y="460.434"/>
      <point x="248.285" y="484.03"/>
      <point x="248.285" y="536.818" type="curve" smooth="yes" name="n15"/>
      <point x="248.285" y="593.963"/>
      <point x="308.399" y="626.667"/>
      <point x="366.076" y="626.667" type="curve" smooth="yes" name="n18"/>
      <point x="406.672" y="626.667"/>
      <point x="449.606" y="610.462"/>
      <point x="482" y="581.667" type="curve"/>
      <point x="492" y="581.667" type="line"/>
      <point x="546.667" y="655" type="line"/>
      <point x="497.143" y="693.165"/>
      <point x="429.826" y="710"/>
      <point x="368.544" y="710" type="curve" smooth="yes" name="n26"/>
      <point x="244.511" y="710"/>
      <point x="117.393" y="641.049"/>
      <point x="117.393" y="513.296" type="curve" smooth="yes" name="n29"/>
      <point x="117.393" y="463.126"/>
      <point x="136.97" y="427.122"/>
      <point x="169.667" y="407" type="curve"/>
      <point x="102.803" y="373.581"/>
      <point x="59.035" y="303.921"/>
      <point x="59.035" y="233.25" type="curve" smooth="yes"/>
      <point x="59.035" y="136.794"/>
      <point x="140.563" y="99.6497"/>
      <point x="212.306" y="66.9548" type="curve" smooth="yes"/>
      <point x="268.787" y="41.2018"/>
      <point x="319.307" y="18.1612"/>
      <point x="319.307" y="-35.5489" type="curve" smooth="yes"/>
      <point x="319.307" y="-96.8466"/>
      <point x="253.527" y="-126.667"/>
      <point x="191.205" y="-126.667" type="curve" smooth="yes" name="n44"/>
      <point x="147.73" y="-126.667"/>
      <point x="98.7923" y="-112.076"/>
      <point x="70" y="-81" type="curve"/>
      <point x="60" y="-81" type="line"/>
      <point x="5.33333" y="-154.333" type="line"/>
      <point x="53.6834" y="-193.527"/>
      <point x="122.763" y="-210"/>
    </contour>
    <contour>
      <point x="309.333" y="150" type="curve"/>
      <point x="255.183" y="166.084"/>
      <point x="186.112" y="199.482"/>
      <point x="186.112" y="260.856" type="curve" smooth="yes"/>
      <point x="186.112" y="302.776"/>
      <point x="218.278" y="342.385"/>
      <point x="260.333" y="355" type="curve"/>
      <point x="313.706" y="338.78"/>
      <point x="383.555" y="304.343"/>
      <point x="383.555" y="243.482" type="curve" smooth="yes"/>
      <point x="383.555" y="201.811"/>
      <point x="350.925" y="162.488"/>
    </contour>
  </outline>
</glyph>
<glyph name="dieresis" format="2">
  <advance width="338"/>
  <unicode hex="00A8"/>
  <outline>
    <contour>
      <point x="149.667" y="568.333" type="curve" smooth="yes" name="n00"/>
      <point x="184.333" y="568.333"/>
      <point x="220.333" y="598"/>
      <point x="226" y="633.333" type="curve" smooth="yes"/>
      <point x="232.333" y="668.667"/>
      <point x="208.333" y="698.333"/>
      <point x="173" y="698.333" type="curve" smooth="yes" name="n06"/>
      <point x="137.667" y="698.333"/>
      <point x="103" y="668.667"/>
      <point x="96" y="633.333" type="curve" smooth="yes"/>
      <point x="89" y="598"/>
      <point x="114.333" y="568.333"/>
    </contour>
    <contour>
      <point x="338" y="568.333" type="curve" smooth="yes"/>
      <point x="372.667" y="568.333"/>
      <point x="408.667" y="598"/>
      <point x="414.333" y="633.333" type="curve" smooth="yes"/>
      <point x="420.667" y="668.667"/>
      <point x="396.667" y="698.333"/>
      <point x="361.333" y="698.333" type="curve" smooth="yes"/>
      <point x="326" y="698.333"/>
      <point x="291.333" y="668.667"/>
      <point x="284.333" y="633.333" type="curve" smooth="yes"/>
      <point x="277.333" y="598"/>
      <point x="302.667" y="568.333"/>
    </contour>
  </outline>
</glyph>
<glyph name="copyright" format="2">
  <advance width="893"/>
  <unicode hex="00A9"/>
  <outline>
    <contour>
      <point x="414.333" y="-36.6667" type="curve" smooth="yes" name="n00"/>
      <point x="650.667" y="-36.6667"/>
      <point x="851.333" y="132.667"/>
      <point x="889.333" y="350" type="curve" smooth="yes"/>
      <point x="927.333" y="567.333"/>
      <point x="787.333" y="736.667"/>
      <point x="551" y="736.667" type="curve" smooth="yes" name="n06"/>
      <point x="314.667" y="736.667"/>
      <point x="114" y="567.333"/>
      <point x="76" y="350" type="curve" smooth="yes"/>
      <point x="38" y="132.667"/>
      <point x="177.667" y="-36.6667"/>
    </contour>
    <contour>
      <point x="429.333" y="46.6667" type="curve" smooth="yes" name="n12"/>
      <point x="259" y="46.6667"/>
      <point x="154" y="173.333"/>
      <point x="186" y="350" type="curve" smooth="yes"/>
      <point x="218" y="526.667"/>
      <point x="365.333" y="653.333"/>
      <point x="536.333" y="653.333" type="curve" smooth="yes" name="n18"/>
      <point x="706.333" y="653.333"/>
      <point x="811.333" y="526.667"/>
      <point x="779.333" y="350" type="curve" smooth="yes"/>
      <point x="747.333" y="173.333"/>
      <point x="599.667" y="46.6667"/>
    </contour>
    <contour>
      <point x="462" y="125" type="curve" smooth="yes" name="n24"/>
      <point x="505" y="125"/>
      <point x="544.667" y="137"/>
      <point x="573" y="150" type="curve"/>
      <point x="589.667" y="157"/>
      <point x="605.333" y="166"/>
      <point x="618.333" y="175" type="curve"/>
      <point x="592.667" y="235" type="line"/>
      <point x="583.667" y="235" type="line"/>
      <point x="574.333" y="228"/>
      <point x="564" y="222"/>
      <point x="553" y="217" type="curve" smooth="yes"/>
      <point x="534" y="208"/>
      <point x="510" y="200"/>
      <point x="485" y="200" type="curve" smooth="yes" name="n38"/>
      <point x="424.667" y="200"/>
      <point x="388" y="245"/>
      <point x="406" y="350" type="curve"/>
      <point x="425.333" y="455"/>
      <point x="477.667" y="500"/>
      <point x="527.667" y="500" type="curve" smooth="yes" name="n44"/>
      <point x="552.667" y="500"/>
      <point x="574.333" y="491"/>
      <point x="589.667" y="482" type="curve" smooth="yes"/>
      <point x="598.667" y="477"/>
      <point x="607" y="471"/>
      <point x="614.333" y="465" type="curve"/>
      <point x="623.333" y="465" type="line"/>
      <point x="670.333" y="525" type="line"/>
      <point x="659.667" y="534"/>
      <point x="647" y="543"/>
      <point x="633.333" y="550" type="curve" smooth="yes"/>
      <point x="609.667" y="562"/>
      <point x="574" y="575"/>
      <point x="531" y="575" type="curve" smooth="yes" name="n58"/>
      <point x="418" y="575"/>
      <point x="321" y="493.333"/>
      <point x="296" y="350" type="curve" smooth="yes"/>
      <point x="271" y="206.333"/>
      <point x="338.667" y="125"/>
    </contour>
  </outline>
</glyph>
<glyph name="ordfeminine" format="2">
  <advance width="373"/>
  <unicode hex="00AA"/>
  <outline>
    <contour>
      <point x="184.667" y="350" type="curve" smooth="yes"/>
      <point x="215.667" y="350"/>
      <point x="240.667" y="361.333"/>
      <point x="259" y="373" type="curve" smooth="yes"/>
      <point x="269.667" y="380"/>
      <point x="278.667" y="387.667"/>
      <point x="286" y="396.667" type="curve"/>
      <point x="291" y="396.667" type="line"/>
      <point x="290.667" y="360" type="line" name="n08"/>
      <point x="376.333" y="360" type="line"/>
      <point x="416" y="583.333" type="line" smooth="yes"/>
      <point x="430" y="660.333"/>
      <point x="389.333" y="710"/>
      <point x="285" y="710" type="curve" smooth="yes" name="n13"/>
      <point x="245" y="710"/>
      <point x="209.667" y="698"/>
      <point x="184" y="687" type="curve"/>
      <point x="169.333" y="680"/>
      <point x="156" y="673"/>
      <point x="143.667" y="665" type="curve"/>
      <point x="166.333" y="610" type="line"/>
      <point x="176.333" y="610" type="line"/>
      <point x="180.853" y="613.179"/>
      <point x="194.289" y="621.507"/>
      <point x="200" y="625" type="curve"/>
      <point x="215" y="632"/>
      <point x="232.667" y="640"/>
      <point x="253.667" y="640" type="curve" smooth="yes" name="n27"/>
      <point x="293.667" y="640"/>
      <point x="312.333" y="619.667"/>
      <point x="306" y="583.333" type="curve" smooth="yes"/>
      <point x="302.333" y="565" type="line"/>
      <point x="260.667" y="565" type="line" smooth="yes" name="n32"/>
      <point x="147" y="565"/>
      <point x="94.3333" y="520"/>
      <point x="83.3333" y="455" type="curve" smooth="yes"/>
      <point x="72.3333" y="395"/>
      <point x="108.667" y="350"/>
    </contour>
    <contour>
      <point x="227.333" y="423.333" type="curve" smooth="yes" name="n38"/>
      <point x="199" y="423.333"/>
      <point x="186.333" y="436.667"/>
      <point x="190.667" y="458.333" type="curve"/>
      <point x="194.333" y="482"/>
      <point x="213" y="495"/>
      <point x="248.667" y="495" type="curve" smooth="yes" name="n44"/>
      <point x="290.333" y="495" type="line"/>
      <point x="282.333" y="450" type="line"/>
      <point x="277.333" y="444.667"/>
      <point x="271" y="439.667"/>
      <point x="265.333" y="436.333" type="curve"/>
      <point x="255.333" y="429"/>
      <point x="241" y="423.333"/>
    </contour>
  </outline>
</glyph>
<glyph name="guillemotleft" format="2">
  <advance width="505"/>
  <unicode hex="00AB"/>
  <outline>
    <contour>
      <point x="293.667" y="66.6667" type="line"/>
      <point x="169" y="250" type="line"/>
      <point x="358" y="433.333" type="line"/>
      <point x="295.333" y="503.333" type="line" name="n03"/>
      <point x="29" y="250" type="line" name="n04"/>
      <point x="206" y="-3.33333" type="line" name="n05"/>
    </contour>
    <contour>
      <point x="466" y="461.667" type="line"/>
      <point x="244" y="250" type="line"/>
      <point x="391.667" y="38.3333" type="line"/>
      <point x="478.667" y="108.333" type="line"/>
      <point x="384" y="250" type="line"/>
      <point x="528.333" y="391.667" type="line" name="n11"/>
    </contour>
  </outline>
</glyph>
<glyph name="logicalnot" format="2">
  <advance width="487"/>
  <unicode hex="00AC"/>
  <outline>
    <contour>
      <point x="365.667" y="233.333" type="line"/>
      <point x="469" y="233.333" type="line"/>
      <point x="501.667" y="416.667" type="line" name="n02"/>
      <point x="81.6667" y="416.667" type="line" name="n03"/>
      <point x="65" y="323.333" type="line" name="n04"/>
      <point x="381.667" y="323.333" type="line"/>
    </contour>
  </outline>
</glyph>
<glyph name="uni00AD" format="2">
  <advance width="453"/>
  <unicode hex="00AD"/>
  <outline>
    <contour>
      <point x="58" y="283.333" type="line" name="n00"/>
      <point x="444.667" y="283.333" type="line"/>
      <point x="461.333" y="376.667" type="line" name="n02"/>
      <point x="74.6667" y="376.667" type="line" name="n03"/>
    </contour>
  </outline>
</glyph>
<glyph name="registered" format="2">
  <advance width="893"/>
  <unicode hex="00AE"/>
  <outline>
    <contour>
      <point x="414.333" y="-36.6667" type="curve" smooth="yes" name="n00"/>
      <point x="650.667" y="-36.6667"/>
      <point x="851.333" y="132.667"/>
      <point x="889.333" y="350" type="curve" smooth="yes"/>
      <point x="927.333" y="567.333"/>
      <point x="787.333" y="736.667"/>
      <point x="551" y="736.667" type="curve" smooth="yes" name="n06"/>
      <point x="314.667" y="736.667"/>
      <point x="114" y="567.333"/>
      <point x="76" y="350" type="curve" smooth="yes"/>
      <point x="38" y="132.667"/>
      <point x="177.667" y="-36.6667"/>
    </contour>
    <contour>
      <point x="429.333" y="46.6667" type="curve" smooth="yes" name="n12"/>
      <point x="259" y="46.6667"/>
      <point x="154" y="173.333"/>
      <point x="186" y="350" type="curve" smooth="yes"/>
      <point x="218" y="526.667"/>
      <point x="365.333" y="653.333"/>
      <point x="536.333" y="653.333" type="curve" smooth="yes" name="n18"/>
      <point x="706.333" y="653.333"/>
      <point x="811.333" y="526.667"/>
      <point x="779.333" y="350" type="curve" smooth="yes"/>
      <point x="747.333" y="173.333"/>
      <point x="599.667" y="46.6667"/>
    </contour>
    <contour>
      <point x="284.667" y="135" type="line"/>
      <point x="394.667" y="135" type="line"/>
      <point x="420.333" y="278.333" type="line" name="n26"/>
      <point x="466.667" y="278.333" type="line"/>
      <point x="521.667" y="135" type="line"/>
      <point x="640" y="135" type="line"/>
      <point x="572.333" y="296.667" type="line"/>
      <point x="618.667" y="311.667"/>
      <point x="665.333" y="352.667"/>
      <point x="677.667" y="421.667" type="curve" smooth="yes"/>
      <point x="692.667" y="506.667"/>
      <point x="645" y="565"/>
      <point x="516" y="565" type="curve" smooth="yes" name="n36"/>
      <point x="360.667" y="565" type="line"/>
    </contour>
    <contour>
      <point x="433.333" y="353.333" type="line" name="n38"/>
      <point x="457.667" y="490" type="line"/>
      <point x="503" y="490" type="line" smooth="yes" name="n40"/>
      <point x="558.667" y="490"/>
      <point x="576.667" y="465.333"/>
      <point x="569" y="421.667" type="curve" smooth="yes"/>
      <point x="561.667" y="378"/>
      <point x="534.333" y="353.333"/>
      <point x="478.667" y="353.333" type="curve" smooth="yes"/>
    </contour>
  </outline>
</glyph>
<glyph name="macron" format="2">
  <advance width="310"/>
  <unicode hex="00AF"/>
  <outline>
    <contour>
      <point x="89.6667" y="576.667" type="line" name="n00"/>
      <point x="373" y="576.667" type="line"/>
      <point x="387.667" y="660" type="line" name="n02"/>
      <point x="104.333" y="660" type="line" name="n03"/>
    </contour>
  </outline>
</glyph>
<glyph name="degree" format="2">
  <advance width="420"/>
  <unicode hex="00B0"/>
  <outline>
    <contour>
      <point x="250" y="370" type="curve" smooth="yes" name="n00"/>
      <point x="359.667" y="370"/>
      <point x="442" y="440"/>
      <point x="460" y="540" type="curve"/>
      <point x="476.667" y="640"/>
      <point x="420" y="710"/>
      <point x="310" y="710" type="curve" smooth="yes" name="n06"/>
      <point x="200.667" y="710"/>
      <point x="116" y="640"/>
      <point x="100" y="540" type="curve"/>
      <point x="82" y="440"/>
      <point x="140.333" y="370"/>
    </contour>
    <contour>
      <point x="263" y="445" type="curve" smooth="yes" name="n12"/>
      <point x="221.333" y="445"/>
      <point x="195" y="476.333"/>
      <point x="206.667" y="540" type="curve" smooth="yes"/>
      <point x="218" y="603.667"/>
      <point x="255" y="635"/>
      <point x="296.667" y="635" type="curve" smooth="yes" name="n18"/>
      <point x="338.333" y="635"/>
      <point x="364.667" y="603.667"/>
      <point x="353.333" y="540" type="curve" smooth="yes"/>
      <point x="341.667" y="476.333"/>
      <point x="304.667" y="445"/>
    </contour>
  </outline>
</glyph>
<glyph name="plusminus" format="2">
  <advance width="497"/>
  <unicode hex="00B1"/>
  <outline>
    <contour>
      <point x="25.6667" y="81.6667" type="line" name="n00"/>
      <point x="449" y="81.6667" type="line"/>
      <point x="465" y="175" type="line"/>
      <point x="300" y="175" type="line"/>
      <point x="322.667" y="303.333" type="line" name="n04"/>
      <point x="487.667" y="303.333" type="line"/>
      <point x="504.333" y="396.667" type="line" name="n06"/>
      <point x="339.333" y="396.667" type="line" name="n07"/>
      <point x="368.333" y="561.667" type="line"/>
      <point x="275" y="561.667" type="line"/>
      <point x="246" y="396.667" type="line"/>
      <point x="81" y="396.667" type="line"/>
      <point x="64.3333" y="303.333" type="line"/>
      <point x="229.333" y="303.333" type="line"/>
      <point x="206.667" y="175" type="line"/>
      <point x="41.6667" y="175" type="line" name="n15"/>
    </contour>
  </outline>
</glyph>
<glyph name="uni00B2" format="2">
  <advance width="347"/>
  <unicode hex="00B2"/>
  <outline>
    <contour>
      <point x="73" y="360" type="line"/>
      <point x="349.667" y="360" type="line" name="n01"/>
      <point x="362.667" y="433.333" type="line" name="n02"/>
      <point x="196" y="433.333" type="line"/>
      <point x="204" y="487.667"/>
      <point x="373.333" y="485.667"/>
      <point x="390.667" y="595" type="curve"/>
      <point x="402.667" y="660"/>
      <point x="362.333" y="710"/>
      <point x="271.667" y="710" type="curve" smooth="yes" name="n09"/>
      <point x="231.667" y="710"/>
      <point x="196.333" y="698"/>
      <point x="170.667" y="687" type="curve"/>
      <point x="156" y="680"/>
      <point x="142.667" y="673"/>
      <point x="130.333" y="665" type="curve"/>
      <point x="152.333" y="606.667" type="line"/>
      <point x="162.333" y="606.667" type="line"/>
      <point x="166.853" y="609.845"/>
      <point x="180.289" y="618.174"/>
      <point x="186" y="621.667" type="curve"/>
      <point x="200.333" y="628.667"/>
      <point x="219" y="636.667"/>
      <point x="239.667" y="636.667" type="curve" smooth="yes" name="n23"/>
      <point x="273.333" y="636.667"/>
      <point x="285.667" y="620.667"/>
      <point x="280.667" y="595" type="curve"/>
      <point x="271.333" y="537.333"/>
      <point x="104" y="540.667"/>
      <point x="82.6667" y="413.333" type="curve" smooth="yes"/>
    </contour>
  </outline>
</glyph>
<glyph name="uni00B3" format="2">
  <advance width="348"/>
  <unicode hex="00B3"/>
  <outline>
    <contour>
      <point x="199.333" y="350" type="curve" smooth="yes" name="n00"/>
      <point x="295.333" y="350"/>
      <point x="358.333" y="403"/>
      <point x="368.667" y="460" type="curve" smooth="yes" name="n03"/>
      <point x="378.333" y="519"/>
      <point x="341.667" y="563.333"/>
      <point x="265" y="566.667" type="curve" name="n06"/>
      <point x="374.667" y="621.667" type="line"/>
      <point x="388.667" y="700" type="line" name="n08"/>
      <point x="144" y="700" type="line" name="n09"/>
      <point x="131" y="626.667" type="line" name="n10"/>
      <point x="269" y="626.667" type="line"/>
      <point x="147" y="560" type="line"/>
      <point x="137.333" y="503.333" type="line"/>
      <point x="203.333" y="503.333" type="line" smooth="yes" name="n14"/>
      <point x="243.667" y="503.333"/>
      <point x="256.333" y="487"/>
      <point x="252" y="463.333" type="curve" smooth="yes" name="n17"/>
      <point x="247.667" y="439.667"/>
      <point x="228.333" y="423.333"/>
      <point x="194" y="423.333" type="curve" smooth="yes" name="n20"/>
      <point x="173" y="423.333"/>
      <point x="157" y="430.333"/>
      <point x="145.333" y="438.333" type="curve"/>
      <point x="138.333" y="442.333"/>
      <point x="132" y="447.333"/>
      <point x="127.333" y="453.333" type="curve"/>
      <point x="117.333" y="453.333" type="line"/>
      <point x="74" y="395" type="line" name="n28"/>
      <point x="83" y="386"/>
      <point x="93.6667" y="379"/>
      <point x="106.333" y="372" type="curve"/>
      <point x="128" y="361"/>
      <point x="159.333" y="350"/>
    </contour>
  </outline>
</glyph>
<glyph name="acute" format="2">
  <advance width="192"/>
  <unicode hex="00B4"/>
  <outline>
    <contour>
      <point x="81" y="550" type="line" name="n00"/>
      <point x="156" y="550" type="line" name="n01"/>
      <point x="279.667" y="700" type="line" name="n02"/>
      <point x="153" y="700" type="line" name="n03"/>
    </contour>
  </outline>
</glyph>
<glyph name="mu" format="2">
  <advance width="570"/>
  <unicode hex="00B5"/>
  <outline>
    <contour>
      <point x="10.6667" y="-200" type="line" name="n00"/>
      <point x="100.667" y="-200" type="line"/>
      <point x="144" y="-163.333" type="line"/>
      <point x="176.333" y="20" type="line"/>
      <point x="181.667" y="14"/>
      <point x="187.333" y="9"/>
      <point x="194.667" y="5" type="curve"/>
      <point x="207" y="-3"/>
      <point x="224.667" y="-10"/>
      <point x="246.333" y="-10" type="curve" smooth="yes" name="n09"/>
      <point x="285.333" y="-10"/>
      <point x="316.667" y="5.66667"/>
      <point x="341" y="23.3333" type="curve" smooth="yes"/>
      <point x="354.667" y="33"/>
      <point x="366.667" y="44.3333"/>
      <point x="377.667" y="56.6667" type="curve"/>
      <point x="382.667" y="56.6667" type="line"/>
      <point x="383.333" y="0" type="line" name="n17"/>
      <point x="473.333" y="0" type="line"/>
      <point x="561.333" y="500" type="line" name="n19"/>
      <point x="434.667" y="500" type="line"/>
      <point x="370" y="135" type="line"/>
      <point x="361" y="124.667"/>
      <point x="351" y="115"/>
      <point x="340.333" y="106.667" type="curve" smooth="yes"/>
      <point x="322" y="92.3333"/>
      <point x="296.333" y="78.3333" name="hr02"/>
      <point x="268" y="78.3333" type="curve" smooth="yes" name="n27"/>
      <point x="219.333" y="78.3333"/>
      <point x="192.333" y="111.333"/>
      <point x="203.333" y="173.333" type="curve" smooth="yes"/>
      <point x="261.333" y="500" type="line"/>
      <point x="134.667" y="500" type="line"/>
    </contour>
  </outline>
</glyph>
<glyph name="paragraph" format="2">
  <advance width="575"/>
  <unicode hex="00B6"/>
  <outline>
    <contour>
      <point x="160.667" y="-200" type="line"/>
      <point x="270.667" y="-200" type="line"/>
      <point x="415" y="616.667" type="line"/>
      <point x="471.667" y="616.667" type="line"/>
      <point x="327.333" y="-200" type="line"/>
      <point x="437.333" y="-200" type="line"/>
      <point x="581.667" y="616.667" type="line"/>
      <point x="648.333" y="616.667" type="line" name="n07"/>
      <point x="663" y="700" type="line" name="n08"/>
      <point x="319.667" y="700" type="line" smooth="yes"/>
      <point x="203.333" y="700"/>
      <point x="96.6667" y="610.667"/>
      <point x="74.3333" y="481.667" type="curve" smooth="yes"/>
      <point x="51.3333" y="352.667"/>
      <point x="127" y="263.333"/>
      <point x="243" y="263.333" type="curve"/>
    </contour>
  </outline>
</glyph>
<glyph name="periodcentered" format="2">
  <advance width="297"/>
  <unicode hex="00B7"/>
  <outline>
    <contour>
      <point x="173" y="400" type="curve" smooth="yes" name="n00"/>
      <point x="144" y="388.333"/>
      <point x="124.667" y="356.667"/>
      <point x="131" y="330" type="curve" smooth="yes"/>
      <point x="138" y="303.333"/>
      <point x="166.667" y="288.333"/>
      <point x="195.667" y="300" type="curve" smooth="yes" name="n06"/>
      <point x="224.667" y="311.667"/>
      <point x="244.333" y="343.333"/>
      <point x="238" y="370" type="curve" smooth="yes"/>
      <point x="231" y="396.667"/>
      <point x="202" y="411.667"/>
    </contour>
  </outline>
</glyph>
<glyph name="cedilla" format="2">
  <advance width="208"/>
  <unicode hex="00B8"/>
  <outline>
    <contour>
      <point x="33.6667" y="-193.333" type="curve" smooth="yes" name="n00"/>
      <point x="101" y="-193.333"/>
      <point x="145.333" y="-155"/>
      <point x="153.333" y="-110" type="curve" smooth="yes" name="n03"/>
      <point x="161.333" y="-65"/>
      <point x="130.667" y="-26.6667"/>
      <point x="74.6667" y="-26.6667" type="curve"/>
      <point x="83" y="20" type="line"/>
      <point x="13" y="20" type="line" name="n08"/>
      <point x="-4.66667" y="-78.3333" type="line" name="n09"/>
      <point x="42" y="-78.3333" type="line" smooth="yes"/>
      <point x="65.6667" y="-78.3333"/>
      <point x="79" y="-90"/>
      <point x="75" y="-110" type="curve" name="n13"/>
      <point x="72" y="-130"/>
      <point x="54.6667" y="-141.667"/>
      <point x="33" y="-141.667" type="curve" smooth="yes" name="n16"/>
      <point x="8" y="-141.667"/>
      <point x="-10.6667" y="-126.667"/>
      <point x="-9.66667" y="-126.667" type="curve"/>
      <point x="-18.6667" y="-126.667" type="line"/>
      <point x="-44.6667" y="-173.333" type="line"/>
      <point x="-39" y="-177.333"/>
      <point x="-32" y="-180.333"/>
      <point x="-24.3333" y="-183.333" type="curve"/>
      <point x="-10.3333" y="-188.333"/>
      <point x="8.66667" y="-193.333"/>
    </contour>
  </outline>
</glyph>
<glyph name="uni00B9" format="2">
  <advance width="318"/>
  <unicode hex="00B9"/>
  <outline>
    <contour>
      <point x="78" y="360" type="line" name="n00"/>
      <point x="331.333" y="360" type="line"/>
      <point x="344.333" y="433.333" type="line" name="n02"/>
      <point x="272.667" y="433.333" type="line"/>
      <point x="319.667" y="700" type="line" name="n04"/>
      <point x="218" y="700" type="line"/>
      <point x="109" y="620" type="line"/>
      <point x="133.667" y="571.667" type="line"/>
      <point x="191.667" y="600" type="line"/>
      <point x="162.667" y="433.333" type="line"/>
      <point x="91" y="433.333" type="line" name="n10"/>
    </contour>
  </outline>
</glyph>
<glyph name="ordmasculine" format="2">
  <advance width="410"/>
  <unicode hex="00BA"/>
  <outline>
    <contour>
      <point x="241" y="350" type="curve" smooth="yes" name="n00"/>
      <point x="339.667" y="350"/>
      <point x="423.667" y="422"/>
      <point x="443" y="530" type="curve" smooth="yes"/>
      <point x="462.333" y="638"/>
      <point x="403.667" y="710"/>
      <point x="305" y="710" type="curve" smooth="yes" name="n06"/>
      <point x="205.667" y="710"/>
      <point x="122.333" y="638"/>
      <point x="103" y="530" type="curve" smooth="yes"/>
      <point x="83.6667" y="422"/>
      <point x="142.333" y="350"/>
    </contour>
    <contour>
      <point x="254" y="423.333" type="curve" smooth="yes" name="n12"/>
      <point x="220" y="423.333"/>
      <point x="199" y="449.667"/>
      <point x="213" y="530" type="curve" smooth="yes"/>
      <point x="227" y="610.333"/>
      <point x="258" y="636.667"/>
      <point x="292" y="636.667" type="curve" smooth="yes" name="n18"/>
      <point x="324.667" y="636.667"/>
      <point x="347" y="609.667"/>
      <point x="333" y="530" type="curve" smooth="yes"/>
      <point x="319" y="449.667"/>
      <point x="286.667" y="423.333"/>
    </contour>
  </outline>
</glyph>
<glyph name="guillemotright" format="2">
  <advance width="505"/>
  <unicode hex="00BB"/>
  <outline>
    <contour>
      <point x="374" y="250" type="line"/>
      <point x="184" y="66.6667" type="line"/>
      <point x="247.667" y="-3.33333" type="line" name="n02"/>
      <point x="514" y="250" type="line" name="n03"/>
      <point x="337" y="503.333" type="line" name="n04"/>
      <point x="248.333" y="433.333" type="line"/>
    </contour>
    <contour>
      <point x="299" y="250" type="line"/>
      <point x="151" y="461.667" type="line"/>
      <point x="63.3333" y="391.667" type="line"/>
      <point x="159" y="250" type="line"/>
      <point x="13.6667" y="108.333" type="line" name="n10"/>
      <point x="76.6667" y="38.3333" type="line"/>
    </contour>
  </outline>
</glyph>
<glyph name="onequarter" format="2">
  <advance width="780"/>
  <unicode hex="00BC"/>
  <outline>
    <contour>
      <point x="80" y="0" type="line"/>
      <point x="216.667" y="0" type="line"/>
      <point x="809.667" y="700" type="line" name="n02"/>
      <point x="673" y="700" type="line"/>
    </contour>
    <contour>
      <point x="81.3333" y="360" type="line" name="n04"/>
      <point x="334.667" y="360" type="line"/>
      <point x="347.667" y="433.333" type="line"/>
      <point x="276" y="433.333" type="line"/>
      <point x="323" y="700" type="line"/>
      <point x="228" y="700" type="line"/>
      <point x="112.333" y="620" type="line"/>
      <point x="137" y="571.667" type="line"/>
      <point x="195" y="600" type="line"/>
      <point x="166" y="433.333" type="line"/>
      <point x="94.3333" y="433.333" type="line" name="n14"/>
    </contour>
    <contour>
      <point x="563.333" y="0" type="line" name="n15"/>
      <point x="673.333" y="0" type="line"/>
      <point x="684" y="63.3333" type="line" name="n17"/>
      <point x="730.667" y="63.3333" type="line"/>
      <point x="743.333" y="136.667" type="line"/>
      <point x="696.667" y="136.667" type="line" name="n20"/>
      <point x="732.333" y="340" type="line"/>
      <point x="625.667" y="340" type="line" name="n22"/>
      <point x="420" y="136.667" type="line"/>
      <point x="407.333" y="63.3333" type="line"/>
      <point x="574" y="63.3333" type="line"/>
    </contour>
    <contour>
      <point x="510" y="136.667" type="line"/>
      <point x="583.667" y="209.333" type="line" smooth="yes"/>
      <point x="590.969" y="216.522"/>
      <point x="602.293" y="234.256"/>
      <point x="607.333" y="244.333" type="curve"/>
      <point x="611.333" y="244.333" type="line" name="n31"/>
      <point x="607.164" y="235.229"/>
      <point x="601.851" y="220.172"/>
      <point x="600" y="210" type="curve" smooth="yes"/>
      <point x="586.667" y="136.667" type="line" name="n35"/>
    </contour>
  </outline>
</glyph>
<glyph name="onehalf" format="2">
  <advance width="787"/>
  <unicode hex="00BD"/>
  <outline>
    <contour>
      <point x="80" y="0" type="line"/>
      <point x="216.667" y="0" type="line"/>
      <point x="809.667" y="700" type="line" name="n02"/>
      <point x="673" y="700" type="line"/>
    </contour>
    <contour>
      <point x="81.3333" y="360" type="line" name="n04"/>
      <point x="334.667" y="360" type="line"/>
      <point x="347.667" y="433.333" type="line"/>
      <point x="276" y="433.333" type="line"/>
      <point x="323" y="700" type="line"/>
      <point x="228" y="700" type="line"/>
      <point x="112.333" y="620" type="line"/>
      <point x="137" y="571.667" type="line"/>
      <point x="195" y="600" type="line"/>
      <point x="166" y="433.333" type="line"/>
      <point x="94.3333" y="433.333" type="line" name="n14"/>
    </contour>
    <contour>
      <point x="450" y="0" type="line"/>
      <point x="726.667" y="0" type="line" name="n16"/>
      <point x="739.333" y="73.3333" type="line" name="n17"/>
      <point x="572.667" y="73.3333" type="line"/>
      <point x="576.533" y="95.692"/>
      <point x="607.182" y="108.622"/>
      <point x="643.197" y="123.808" type="curve" smooth="yes"/>
      <point x="703.647" y="149.297"/>
      <point x="769.436" y="179.726"/>
      <point x="769.436" y="252.681" type="curve" smooth="yes"/>
      <point x="769.436" y="310.15"/>
      <point x="728.609" y="350"/>
      <point x="650.796" y="350" type="curve" smooth="yes" name="n27"/>
      <point x="598.01" y="350"/>
      <point x="547.771" y="331.936"/>
      <point x="506.333" y="305" type="curve"/>
      <point x="529" y="246.667" type="line"/>
      <point x="539" y="246.667" type="line"/>
      <point x="562.873" y="264.172"/>
      <point x="587.939" y="276.667"/>
      <point x="616.466" y="276.667" type="curve" smooth="yes" name="n35"/>
      <point x="645.147" y="276.667"/>
      <point x="658.393" y="264.182"/>
      <point x="658.393" y="244.616" type="curve" smooth="yes"/>
      <point x="658.393" y="209.807"/>
      <point x="614.896" y="192"/>
      <point x="590.258" y="183.056" type="curve" smooth="yes"/>
      <point x="535.308" y="163.366"/>
      <point x="472.129" y="129.432"/>
      <point x="459" y="53.3333" type="curve" smooth="yes"/>
    </contour>
  </outline>
</glyph>
<glyph name="threequarters" format="2">
  <advance width="767"/>
  <unicode hex="00BE"/>
  <outline>
    <contour>
      <point x="67.3333" y="0" type="line" name="n00"/>
      <point x="204" y="0" type="line"/>
      <point x="797" y="700" type="line" name="n02"/>
      <point x="660.333" y="700" type="line"/>
    </contour>
    <contour>
      <point x="197.667" y="350" type="curve" smooth="yes" name="n04"/>
      <point x="293.667" y="350"/>
      <point x="356.667" y="403"/>
      <point x="367" y="460" type="curve" smooth="yes" name="n07"/>
      <point x="376.667" y="519"/>
      <point x="340" y="563.333"/>
      <point x="263.333" y="566.667" type="curve" name="n10"/>
      <point x="373" y="621.667" type="line"/>
      <point x="387" y="700" type="line"/>
      <point x="142.333" y="700" type="line" name="n13"/>
      <point x="129.333" y="626.667" type="line" name="n14"/>
      <point x="267.333" y="626.667" type="line"/>
      <point x="145.333" y="560" type="line"/>
      <point x="135.667" y="503.333" type="line"/>
      <point x="201.667" y="503.333" type="line" smooth="yes" name="n18"/>
      <point x="242" y="503.333"/>
      <point x="254.667" y="487"/>
      <point x="250.333" y="463.333" type="curve" smooth="yes" name="n21"/>
      <point x="246" y="439.667"/>
      <point x="226.667" y="423.333"/>
      <point x="192.333" y="423.333" type="curve" smooth="yes" name="n24"/>
      <point x="171.333" y="423.333"/>
      <point x="155.333" y="430.333"/>
      <point x="143.667" y="438.333" type="curve"/>
      <point x="136.667" y="442.333"/>
      <point x="130.333" y="447.333"/>
      <point x="125.667" y="453.333" type="curve"/>
      <point x="115.667" y="453.333" type="line"/>
      <point x="72.3333" y="395" type="line"/>
      <point x="81.3333" y="386"/>
      <point x="92" y="379"/>
      <point x="104.667" y="372" type="curve"/>
      <point x="126.333" y="361"/>
      <point x="157.667" y="350"/>
    </contour>
    <contour>
      <point x="550.667" y="0" type="line" name="n38"/>
      <point x="660.667" y="0" type="line" name="hr03"/>
      <point x="671.333" y="63.3333" type="line" name="n40"/>
      <point x="718" y="63.3333" type="line" name="hr02"/>
      <point x="730.667" y="136.667" type="line"/>
      <point x="684" y="136.667" type="line" name="n43"/>
      <point x="719.667" y="340" type="line"/>
      <point x="613" y="340" type="line" name="n45"/>
      <point x="407.333" y="136.667" type="line"/>
      <point x="394.667" y="63.3333" type="line"/>
      <point x="561.333" y="63.3333" type="line"/>
    </contour>
    <contour>
      <point x="497.333" y="136.667" type="line"/>
      <point x="571" y="209.333" type="line"/>
      <point x="577.333" y="214.333"/>
      <point x="582.667" y="223.667"/>
      <point x="587" y="231.333" type="curve"/>
      <point x="589.485" y="234.25"/>
      <point x="592.822" y="240.7"/>
      <point x="594.667" y="244.333" type="curve"/>
      <point x="598.667" y="244.333" type="line" name="n57"/>
      <point x="593.333" y="231.667" type="line" smooth="yes"/>
      <point x="590.333" y="224"/>
      <point x="587.667" y="215.667"/>
      <point x="587.333" y="210" type="curve"/>
      <point x="574" y="136.667" type="line" name="n62"/>
    </contour>
  </outline>
</glyph>
<glyph name="questiondown" format="2">
  <advance width="480"/>
  <unicode hex="00BF"/>
  <outline>
    <contour>
      <point x="329.333" y="370" type="curve" smooth="yes" name="n00"/>
      <point x="371.425" y="370"/>
      <point x="412.796" y="409.621"/>
      <point x="412.796" y="451.639" type="curve" smooth="yes"/>
      <point x="412.796" y="484.751"/>
      <point x="387.855" y="510"/>
      <point x="353.667" y="510" type="curve" smooth="yes" name="n06"/>
      <point x="311.438" y="510"/>
      <point x="270.523" y="470.226"/>
      <point x="270.523" y="428.266" type="curve" smooth="yes"/>
      <point x="270.523" y="395.188"/>
      <point x="295.194" y="370"/>
    </contour>
    <contour>
      <point x="4.43904" y="-46.9505" type="curve" smooth="yes" name="n12"/>
      <point x="4.43904" y="-147.042"/>
      <point x="71.3202" y="-210"/>
      <point x="214.158" y="-210" type="curve" smooth="yes" name="n15"/>
      <point x="283.15" y="-210"/>
      <point x="369.588" y="-195.309"/>
      <point x="427" y="-155" type="curve" name="n18"/>
      <point x="398.333" y="-81.6667" type="line"/>
      <point x="388.333" y="-81.6667" type="line"/>
      <point x="349.592" y="-113.365"/>
      <point x="288.754" y="-126.667"/>
      <point x="242.157" y="-126.667" type="curve" smooth="yes" name="n23"/>
      <point x="167.315" y="-126.667"/>
      <point x="130.799" y="-92.5522"/>
      <point x="130.799" y="-42.0227" type="curve" smooth="yes"/>
      <point x="130.799" y="21.7654"/>
      <point x="189.052" y="64.7341"/>
      <point x="239.464" y="100.323" type="curve" smooth="yes"/>
      <point x="295.781" y="140.045"/>
      <point x="355.736" y="182.324"/>
      <point x="370.667" y="273.333" type="curve" smooth="yes"/>
      <point x="376.333" y="306.667" type="line"/>
      <point x="259.667" y="306.667" type="line"/>
      <point x="254" y="273.333" type="line" smooth="yes"/>
      <point x="244.446" y="220.94"/>
      <point x="200.356" y="192.301"/>
      <point x="151.826" y="160.795" type="curve" smooth="yes"/>
      <point x="68.3358" y="106.667"/>
      <point x="4.43904" y="50.8439"/>
    </contour>
  </outline>
</glyph>
<glyph name="Agrave" format="2">
  <advance width="590"/>
  <unicode hex="00C0"/>
  <outline>
    <contour>
      <point x="373" y="750" type="line"/>
      <point x="448" y="750" type="line" name="n01"/>
      <point x="430" y="900" type="line" name="n02"/>
      <point x="303.333" y="900" type="line"/>
    </contour>
    <contour>
      <point x="-10" y="0" type="line" name="n04"/>
      <point x="116.667" y="0" type="line"/>
      <point x="194" y="166.667" type="line"/>
      <point x="404" y="166.667" type="line" name="n07"/>
      <point x="423.333" y="0" type="line"/>
      <point x="550" y="0" type="line" name="n09"/>
      <point x="468" y="700" type="line" name="n10"/>
      <point x="318" y="700" type="line" name="n11"/>
    </contour>
    <contour>
      <point x="232.333" y="250" type="line"/>
      <point x="339.667" y="481.667" type="line"/>
      <point x="346.667" y="498"/>
      <point x="352.667" y="514"/>
      <point x="357.667" y="529.667" type="curve" smooth="yes"/>
      <point x="359.577" y="535.293"/>
      <point x="363.788" y="549.477"/>
      <point x="365.333" y="555" type="curve" name="n19"/>
      <point x="369.333" y="555" type="line"/>
      <point x="368.333" y="546.667"/>
      <point x="367.667" y="538.667"/>
      <point x="367.667" y="530" type="curve"/>
      <point x="367" y="515"/>
      <point x="366.667" y="497.333"/>
      <point x="369.667" y="481.667" type="curve"/>
      <point x="395.667" y="250" type="line" name="n27"/>
    </contour>
  </outline>
</glyph>
<glyph name="Aacute" format="2">
  <advance width="590"/>
  <unicode hex="00C1"/>
  <outline>
    <contour>
      <point x="343" y="750" type="line"/>
      <point x="418" y="750" type="line" name="n01"/>
      <point x="541.667" y="900" type="line"/>
      <point x="415" y="900" type="line" name="n03"/>
    </contour>
    <contour>
      <point x="-10" y="0" type="line" name="n04"/>
      <point x="116.667" y="0" type="line"/>
      <point x="194" y="166.667" type="line"/>
      <point x="404" y="166.667" type="line" name="n07"/>
      <point x="423.333" y="0" type="line"/>
      <point x="550" y="0" type="line" name="n09"/>
      <point x="468" y="700" type="line" name="n10"/>
      <point x="318" y="700" type="line" name="n11"/>
    </contour>
    <contour>
      <point x="232.333" y="250" type="line"/>
      <point x="339.667" y="481.667" type="line"/>
      <point x="346.667" y="498"/>
      <point x="352.667" y="514"/>
      <point x="357.667" y="529.667" type="curve" smooth="yes"/>
      <point x="359.577" y="535.293"/>
      <point x="363.788" y="549.477"/>
      <point x="365.333" y="555" type="curve" name="n19"/>
      <point x="369.333" y="555" type="line"/>
      <point x="368.333" y="546.667"/>
      <point x="367.667" y="538.667"/>
      <point x="367.667" y="530" type="curve"/>
      <point x="367" y="515"/>
      <point x="366.667" y="497.333"/>
      <point x="369.667" y="481.667" type="curve"/>
      <point x="395.667" y="250" type="line" name="n27"/>
    </contour>
  </outline>
</glyph>
<glyph name="Atilde" format="2">
  <advance width="590"/>
  <unicode hex="00C3"/>
  <outline>
    <contour>
      <point x="352.667" y="756.667" type="curve"/>
      <point x="369.667" y="757.333"/>
      <point x="395.333" y="796"/>
      <point x="419" y="811.667" type="curve" name="n03"/>
      <point x="440.645" y="812.839"/>
      <point x="440.368" y="788.124"/>
      <point x="475" y="790" type="curve" name="n06"/>
      <point x="507.21" y="790"/>
      <point x="538.491" y="822.667"/>
      <point x="546.667" y="856.667" type="curve" name="n09"/>
      <point x="546.434" y="856.473"/>
      <point x="512.636" y="858.818"/>
      <point x="495.667" y="863.333" type="curve"/>
      <point x="484.49" y="863.333"/>
      <point x="480.721" y="878.333"/>
      <point x="462.333" y="878.333" type="curve"/>
      <point x="446" y="877.667"/>
      <point x="420.333" y="837.667"/>
      <point x="396" y="823.333" type="curve" name="n18"/>
      <point x="374.352" y="822.163"/>
      <point x="373.352" y="846.839"/>
      <point x="339.333" y="845" type="curve" name="n21"/>
      <point x="305.808" y="845"/>
      <point x="275.844" y="812.333"/>
      <point x="267.667" y="778.333" type="curve"/>
      <point x="267.904" y="777.861"/>
      <point x="302.224" y="775.515"/>
      <point x="319.333" y="771.667" type="curve"/>
      <point x="330.51" y="771.667"/>
      <point x="334.279" y="756.667"/>
    </contour>
    <contour>
      <point x="208.667" y="466.667" type="line" name="n30"/>
      <point x="23.3333" y="0" type="line" name="n31"/>
      <point x="145.333" y="60" type="line"/>
      <point x="270.667" y="166.667" type="line"/>
      <point x="412" y="106.667" type="line" name="n34"/>
      <point x="456.667" y="0" type="line"/>
      <point x="522.667" y="233.333" type="line"/>
      <point x="424.667" y="700" type="line"/>
    </contour>
    <contour>
      <point x="232.333" y="250" type="line"/>
      <point x="339.667" y="481.667" type="line"/>
      <point x="346.667" y="498"/>
      <point x="352.667" y="514"/>
      <point x="357.667" y="529.667" type="curve" smooth="yes"/>
      <point x="359.577" y="535.293"/>
      <point x="363.788" y="549.477"/>
      <point x="365.333" y="555" type="curve" name="n45"/>
      <point x="369.333" y="555" type="line"/>
      <point x="368.333" y="546.667"/>
      <point x="367.667" y="538.667"/>
      <point x="367.667" y="530" type="curve"/>
      <point x="367" y="515"/>
      <point x="366.667" y="497.333"/>
      <point x="369.667" y="481.667" type="curve"/>
      <point x="395.667" y="250" type="line" name="n53"/>
    </contour>
  </outline>
</glyph>
<glyph name="Adieresis" format="2">
  <advance width="590"/>
  <unicode hex="00C4"/>
  <outline>
    <contour>
      <point x="306" y="758.333" type="curve" smooth="yes" name="n00"/>
      <point x="340.667" y="758.333"/>
      <point x="376.667" y="788"/>
      <point x="382.333" y="823.333" type="curve" smooth="yes"/>
      <point x="388.667" y="858.667"/>
      <point x="364.667" y="888.333"/>
      <point x="329.333" y="888.333" type="curve" smooth="yes" name="n06"/>
      <point x="294" y="888.333"/>
      <point x="259.333" y="858.667"/>
      <point x="252.333" y="823.333" type="curve" smooth="yes"/>
      <point x="245.333" y="788"/>
      <point x="270.667" y="758.333"/>
    </contour>
    <contour>
      <point x="494.333" y="758.333" type="curve" smooth="yes"/>
      <point x="529" y="758.333"/>
      <point x="565" y="788"/>
      <point x="570.667" y="823.333" type="curve" smooth="yes"/>
      <point x="577" y="858.667"/>
      <point x="553" y="888.333"/>
      <point x="517.667" y="888.333" type="curve" smooth="yes"/>
      <point x="482.333" y="888.333"/>
      <point x="447.667" y="858.667"/>
      <point x="440.667" y="823.333" type="curve" smooth="yes"/>
      <point x="433.667" y="788"/>
      <point x="459" y="758.333"/>
    </contour>
    <contour>
      <point x="-10" y="0" type="line" name="n24"/>
      <point x="116.667" y="0" type="line"/>
      <point x="194" y="166.667" type="line"/>
      <point x="404" y="166.667" type="line" name="n27"/>
      <point x="423.333" y="0" type="line"/>
      <point x="550" y="0" type="line"/>
      <point x="468" y="700" type="line" name="n30"/>
      <point x="318" y="700" type="line" name="n31"/>
    </contour>
    <contour>
      <point x="232.333" y="250" type="line"/>
      <point x="339.667" y="481.667" type="line"/>
      <point x="346.667" y="498"/>
      <point x="352.667" y="514"/>
      <point x="357.667" y="529.667" type="curve" smooth="yes"/>
      <point x="359.577" y="535.293"/>
      <point x="363.788" y="549.477"/>
      <point x="365.333" y="555" type="curve" name="n39"/>
      <point x="369.333" y="555" type="line"/>
      <point x="368.333" y="546.667"/>
      <point x="367.667" y="538.667"/>
      <point x="367.667" y="530" type="curve"/>
      <point x="367" y="515"/>
      <point x="366.667" y="497.333"/>
      <point x="369.667" y="481.667" type="curve"/>
      <point x="395.667" y="250" type="line" name="n47"/>
    </contour>
  </outline>
</glyph>
<glyph name="Aring" format="2">
  <advance width="590"/>
  <unicode hex="00C5"/>
  <outline>
    <contour>
      <point x="400.667" y="743.333" type="curve" smooth="yes" name="n00"/>
      <point x="464" y="743.333"/>
      <point x="514.333" y="786.333"/>
      <point x="524.667" y="845" type="curve" smooth="yes"/>
      <point x="535.667" y="903.667"/>
      <point x="499.667" y="946.667"/>
      <point x="436.333" y="946.667" type="curve" smooth="yes" name="n06"/>
      <point x="373" y="946.667"/>
      <point x="322.333" y="903.667"/>
      <point x="311.333" y="845" type="curve" smooth="yes"/>
      <point x="301" y="786.333"/>
      <point x="337.333" y="743.333"/>
    </contour>
    <contour>
      <point x="411" y="803.333" type="curve" smooth="yes" name="n12"/>
      <point x="391" y="803.333"/>
      <point x="377" y="818"/>
      <point x="381.333" y="845" type="curve"/>
      <point x="387" y="872"/>
      <point x="405.333" y="886.667"/>
      <point x="425.333" y="886.667" type="curve" smooth="yes" name="n18"/>
      <point x="445.333" y="886.667"/>
      <point x="460.333" y="872"/>
      <point x="454.667" y="845" type="curve"/>
      <point x="450.333" y="818"/>
      <point x="431" y="803.333"/>
    </contour>
    <contour>
      <point x="-10" y="0" type="line" name="n24"/>
      <point x="116.667" y="0" type="line"/>
      <point x="194" y="166.667" type="line"/>
      <point x="404" y="166.667" type="line" name="n27"/>
      <point x="423.333" y="0" type="line"/>
      <point x="550" y="0" type="line" name="n29"/>
      <point x="468" y="700" type="line" name="n30"/>
      <point x="318" y="700" type="line" name="n31"/>
    </contour>
    <contour>
      <point x="232.333" y="250" type="line"/>
      <point x="339.667" y="481.667" type="line"/>
      <point x="346.667" y="498"/>
      <point x="352.667" y="514"/>
      <point x="357.667" y="529.667" type="curve" smooth="yes"/>
      <point x="359.577" y="535.293"/>
      <point x="363.788" y="549.477"/>
      <point x="365.333" y="555" type="curve" name="n39"/>
      <point x="369.333" y="555" type="line"/>
      <point x="368.333" y="546.667"/>
      <point x="367.667" y="538.667"/>
      <point x="367.667" y="530" type="curve"/>
      <point x="367" y="515"/>
      <point x="366.667" y="497.333"/>
      <point x="369.667" y="481.667" type="curve"/>
      <point x="395.667" y="250" type="line" name="n47"/>
    </contour>
  </outline>
</glyph>
<glyph name="AE" format="2">
  <advance width="835"/>
  <unicode hex="00C6"/>
  <outline>
    <contour>
      <point x="-48.3333" y="0" type="line" name="n00"/>
      <point x="78.3333" y="0" type="line"/>
      <point x="193.667" y="193.333" type="line"/>
      <point x="407" y="193.333" type="line" name="n03"/>
      <point x="373.333" y="0" type="line"/>
      <point x="783.333" y="0" type="line" name="n05"/>
      <point x="797.333" y="83.3333" type="line" name="n06"/>
      <point x="514" y="83.3333" type="line"/>
      <point x="556.667" y="323.333" type="line" name="n08"/>
      <point x="780" y="323.333" type="line"/>
      <point x="794.667" y="406.667" type="line"/>
      <point x="571.333" y="406.667" type="line" name="n11"/>
      <point x="608.333" y="616.667" type="line"/>
      <point x="891.667" y="616.667" type="line" name="n13"/>
      <point x="906.333" y="700" type="line" name="n14"/>
      <point x="369.667" y="700" type="line"/>
    </contour>
    <contour>
      <point x="245" y="276.667" type="line"/>
      <point x="445" y="616.667" type="line"/>
      <point x="481.667" y="616.667" type="line"/>
      <point x="421.667" y="276.667" type="line" name="n19"/>
    </contour>
  </outline>
</glyph>
<glyph name="Ccedilla" format="2">
  <advance width="528"/>
  <unicode hex="00C7"/>
  <outline>
    <contour>
      <point x="543.667" y="682" type="curve"/>
      <point x="515" y="697"/>
      <point x="471.667" y="710"/>
      <point x="415" y="710" type="curve" smooth="yes" name="n03"/>
      <point x="255" y="710"/>
      <point x="132.667" y="606.333"/>
      <point x="87.6667" y="350" type="curve" smooth="yes"/>
      <point x="48.6667" y="128.667"/>
      <point x="106" y="21.6667"/>
      <point x="232.333" y="-4.33333" type="curve" name="n09"/>
      <point x="218.667" y="-78.3333" type="line"/>
      <point x="265.333" y="-78.3333" type="line" smooth="yes" name="n11"/>
      <point x="289" y="-78.3333"/>
      <point x="302.333" y="-90"/>
      <point x="298.333" y="-110" type="curve" name="n14"/>
      <point x="295.333" y="-130"/>
      <point x="278" y="-141.667"/>
      <point x="256.333" y="-141.667" type="curve" smooth="yes" name="n17"/>
      <point x="231.333" y="-141.667"/>
      <point x="212.667" y="-126.667"/>
      <point x="213.667" y="-126.667" type="curve"/>
      <point x="204.667" y="-126.667" type="line"/>
      <point x="178.667" y="-173.333" type="line"/>
      <point x="184.333" y="-177.333"/>
      <point x="191.333" y="-180.333"/>
      <point x="199" y="-183.333" type="curve"/>
      <point x="213" y="-188.333"/>
      <point x="232" y="-193.333"/>
      <point x="257" y="-193.333" type="curve" smooth="yes" name="n28"/>
      <point x="324.333" y="-193.333"/>
      <point x="368.667" y="-155"/>
      <point x="376.667" y="-110" type="curve" smooth="yes" name="n31"/>
      <point x="384.667" y="-65"/>
      <point x="354" y="-26.6667"/>
      <point x="298" y="-26.6667" type="curve" name="n34"/>
      <point x="301.333" y="-10" type="line" name="n35"/>
      <point x="356.667" y="-9.33333"/>
      <point x="402.333" y="2"/>
      <point x="435.667" y="17" type="curve"/>
      <point x="455.333" y="25"/>
      <point x="473" y="34"/>
      <point x="488.667" y="45" type="curve"/>
      <point x="460.667" y="118.333" type="line"/>
      <point x="450.667" y="118.333" type="line"/>
      <point x="439.333" y="109.333"/>
      <point x="427" y="102.333"/>
      <point x="414" y="95.3333" type="curve"/>
      <point x="391" y="84.3333"/>
      <point x="359" y="73.3333"/>
      <point x="322.667" y="73.3333" type="curve" smooth="yes" name="n49"/>
      <point x="229.333" y="73.3333"/>
      <point x="176.333" y="136"/>
      <point x="214.333" y="350" type="curve" smooth="yes"/>
      <point x="252.333" y="564"/>
      <point x="326.333" y="626.667"/>
      <point x="410" y="626.667" type="curve" smooth="yes" name="n55"/>
      <point x="446.333" y="626.667"/>
      <point x="474.333" y="614.667"/>
      <point x="493.333" y="603.667" type="curve"/>
      <point x="504.333" y="596.667"/>
      <point x="514.333" y="589.667"/>
      <point x="522" y="581.667" type="curve"/>
      <point x="532" y="581.667" type="line"/>
      <point x="586.667" y="655" type="line"/>
      <point x="575" y="665"/>
      <point x="560.333" y="674"/>
    </contour>
  </outline>
</glyph>
<glyph name="Egrave" format="2">
  <advance width="523"/>
  <unicode hex="00C8"/>
  <outline>
    <contour>
      <point x="386" y="750" type="line"/>
      <point x="461" y="750" type="line" name="n01"/>
      <point x="443" y="900" type="line" name="n02"/>
      <point x="316.333" y="900" type="line"/>
    </contour>
    <contour>
      <point x="61.6667" y="0" type="line" name="n04"/>
      <point x="471.667" y="0" type="line" name="n05"/>
      <point x="485.667" y="83.3333" type="line" name="n06"/>
      <point x="202.333" y="83.3333" type="line"/>
      <point x="245" y="323.333" type="line" name="n08"/>
      <point x="468.333" y="323.333" type="line"/>
      <point x="483" y="406.667" type="line"/>
      <point x="259.667" y="406.667" type="line" name="n11"/>
      <point x="296.667" y="616.667" type="line"/>
      <point x="580" y="616.667" type="line" name="n13"/>
      <point x="594.667" y="700" type="line" name="n14"/>
      <point x="184.667" y="700" type="line"/>
    </contour>
  </outline>
</glyph>
<glyph name="Eacute" format="2">
  <advance width="523"/>
  <unicode hex="00C9"/>
  <outline>
    <contour>
      <point x="336" y="750" type="line"/>
      <point x="411" y="750" type="line" name="n01"/>
      <point x="534.667" y="900" type="line"/>
      <point x="408" y="900" type="line" name="n03"/>
    </contour>
    <contour>
      <point x="61.6667" y="0" type="line" name="n04"/>
      <point x="471.667" y="0" type="line" name="n05"/>
      <point x="485.667" y="83.3333" type="line" name="n06"/>
      <point x="202.333" y="83.3333" type="line"/>
      <point x="245" y="323.333" type="line" name="n08"/>
      <point x="468.333" y="323.333" type="line"/>
      <point x="483" y="406.667" type="line"/>
      <point x="259.667" y="406.667" type="line" name="n11"/>
      <point x="296.667" y="616.667" type="line"/>
      <point x="580" y="616.667" type="line" name="n13"/>
      <point x="594.667" y="700" type="line" name="n14"/>
      <point x="184.667" y="700" type="line"/>
    </contour>
  </outline>
</glyph>
<glyph name="Ecircumflex" format="2">
  <advance width="523"/>
  <unicode hex="00CA"/>
  <outline>
    <contour>
      <point x="251.667" y="760" type="line"/>
      <point x="336.667" y="760" type="line"/>
      <point x="417.667" y="828.333" type="line"/>
      <point x="473.333" y="760" type="line" name="n03"/>
      <point x="558.333" y="760" type="line"/>
      <point x="473.667" y="892.667" type="line" name="n05"/>
      <point x="383.667" y="892.667" type="line"/>
    </contour>
    <contour>
      <point x="61.6667" y="0" type="line" name="n07"/>
      <point x="471.667" y="0" type="line" name="n08"/>
      <point x="485.667" y="83.3333" type="line" name="n09"/>
      <point x="202.333" y="83.3333" type="line"/>
      <point x="245" y="323.333" type="line" name="n11"/>
      <point x="468.333" y="323.333" type="line"/>
      <point x="483" y="406.667" type="line"/>
      <point x="259.667" y="406.667" type="line" name="n14"/>
      <point x="296.667" y="616.667" type="line"/>
      <point x="580" y="616.667" type="line" name="n16"/>
      <point x="594.667" y="700" type="line" name="n17"/>
      <point x="184.667" y="700" type="line"/>
    </contour>
  </outline>
</glyph>
<glyph name="Edieresis" format="2">
  <advance width="523"/>
  <unicode hex="00CB"/>
  <outline>
    <contour>
      <point x="310" y="768.333" type="curve" smooth="yes" name="n00"/>
      <point x="344.667" y="768.333"/>
      <point x="380.667" y="798"/>
      <point x="386.333" y="833.333" type="curve" smooth="yes"/>
      <point x="392.667" y="868.667"/>
      <point x="368.667" y="898.333"/>
      <point x="333.333" y="898.333" type="curve" smooth="yes" name="n06"/>
      <point x="298" y="898.333"/>
      <point x="263.333" y="868.667"/>
      <point x="256.333" y="833.333" type="curve" smooth="yes"/>
      <point x="249.333" y="798"/>
      <point x="274.667" y="768.333"/>
    </contour>
    <contour>
      <point x="498.333" y="768.333" type="curve" smooth="yes"/>
      <point x="533" y="768.333"/>
      <point x="569" y="798"/>
      <point x="574.667" y="833.333" type="curve" smooth="yes"/>
      <point x="581" y="868.667"/>
      <point x="557" y="898.333"/>
      <point x="521.667" y="898.333" type="curve" smooth="yes"/>
      <point x="486.333" y="898.333"/>
      <point x="451.667" y="868.667"/>
      <point x="444.667" y="833.333" type="curve" smooth="yes"/>
      <point x="437.667" y="798"/>
      <point x="463" y="768.333"/>
    </contour>
    <contour>
      <point x="61.6667" y="0" type="line" name="n24"/>
      <point x="471.667" y="0" type="line" name="n25"/>
      <point x="485.667" y="83.3333" type="line" name="n26"/>
      <point x="202.333" y="83.3333" type="line"/>
      <point x="245" y="323.333" type="line" name="n28"/>
      <point x="468.333" y="323.333" type="line"/>
      <point x="483" y="406.667" type="line"/>
      <point x="259.667" y="406.667" type="line" name="n31"/>
      <point x="296.667" y="616.667" type="line"/>
      <point x="580" y="616.667" type="line" name="n33"/>
      <point x="594.667" y="700" type="line" name="n34"/>
      <point x="184.667" y="700" type="line"/>
    </contour>
  </outline>
</glyph>
<glyph name="Igrave" format="2">
  <advance width="285"/>
  <unicode hex="00CC"/>
  <anchor x="188.333" y="0" name="b.uni0328_1"/>
  <anchor x="253" y="700" name="m.gravecomb_2"/>
  <anchor x="124.667" y="0" name="m.uni0326"/>
  <outline>
    <contour>
      <point x="219.333" y="750" type="line"/>
      <point x="294.333" y="750" type="line" name="n01"/>
      <point x="276.333" y="900" type="line" name="n02"/>
      <point x="149.667" y="900" type="line"/>
    </contour>
    <contour>
      <point x="61.6667" y="0" type="line" name="n04"/>
      <point x="188.333" y="0" type="line"/>
      <point x="311.333" y="700" type="line" name="n06"/>
      <point x="184.667" y="700" type="line"/>
    </contour>
  </outline>
</glyph>
<glyph name="Icircumflex" format="2">
  <advance width="283"/>
  <unicode hex="00CE"/>
  <anchor x="188.333" y="0" name="b.uni0328_1"/>
  <anchor x="253" y="700" name="m.gravecomb_2"/>
  <anchor x="124.667" y="0" name="m.uni0326"/>
  <outline>
    <contour>
      <point x="96.3333" y="760" type="line"/>
      <point x="181.333" y="760" type="line"/>
      <point x="262.333" y="828.333" type="line"/>
      <point x="318" y="760" type="line" name="n03"/>
      <point x="403" y="760" type="line" name="n04"/>
      <point x="318.333" y="892.667" type="line" name="n05"/>
      <point x="228.333" y="892.667" type="line"/>
    </contour>
    <contour>
      <point x="61.6667" y="0" type="line" name="n07"/>
      <point x="188.333" y="0" type="line"/>
      <point x="311.333" y="700" type="line" name="n09"/>
      <point x="184.667" y="700" type="line"/>
    </contour>
  </outline>
</glyph>
<glyph name="Idieresis" format="2">
  <advance width="293"/>
  <unicode hex="00CF"/>
  <anchor x="188.333" y="0" name="b.uni0328_1"/>
  <anchor x="253" y="700" name="m.gravecomb_2"/>
  <anchor x="124.667" y="0" name="m.uni0326"/>
  <outline>
    <contour>
      <point x="159.667" y="768.333" type="curve" smooth="yes" name="n00"/>
      <point x="194.333" y="768.333"/>
      <point x="230.333" y="798"/>
      <point x="236" y="833.333" type="curve" smooth="yes"/>
      <point x="242.333" y="868.667"/>
      <point x="218.333" y="898.333"/>
      <point x="183" y="898.333" type="curve" smooth="yes" name="n06"/>
      <point x="147.667" y="898.333"/>
      <point x="113" y="868.667"/>
      <point x="106" y="833.333" type="curve" smooth="yes"/>
      <point x="99" y="798"/>
      <point x="124.333" y="768.333"/>
    </contour>
    <contour>
      <point x="348" y="768.333" type="curve" smooth="yes"/>
      <point x="382.667" y="768.333"/>
      <point x="418.667" y="798"/>
      <point x="424.333" y="833.333" type="curve" smooth="yes"/>
      <point x="430.667" y="868.667"/>
      <point x="406.667" y="898.333"/>
      <point x="371.333" y="898.333" type="curve" smooth="yes"/>
      <point x="336" y="898.333"/>
      <point x="301.333" y="868.667"/>
      <point x="294.333" y="833.333" type="curve" smooth="yes"/>
      <point x="287.333" y="798"/>
      <point x="312.667" y="768.333"/>
    </contour>
    <contour>
      <point x="61.6667" y="0" type="line" name="n24"/>
      <point x="188.333" y="0" type="line"/>
      <point x="311.333" y="700" type="line" name="n26"/>
      <point x="184.667" y="700" type="line"/>
    </contour>
  </outline>
</glyph>
<glyph name="Ograve" format="2">
  <advance width="620"/>
  <unicode hex="00D2"/>
  <outline>
    <contour>
      <point x="398" y="750" type="line"/>
      <point x="473" y="750" type="line" name="n01"/>
      <point x="455" y="900" type="line" name="n02"/>
      <point x="328.333" y="900" type="line"/>
    </contour>
    <contour>
      <point x="283" y="-10" type="curve" smooth="yes" name="n04"/>
      <point x="437.667" y="-10"/>
      <point x="559.333" y="93.3333"/>
      <point x="604.333" y="350" type="curve" smooth="yes"/>
      <point x="649.333" y="606.667"/>
      <point x="564.333" y="710"/>
      <point x="410" y="710" type="curve" smooth="yes" name="n10"/>
      <point x="255" y="710"/>
      <point x="132.667" y="606.667"/>
      <point x="87.6667" y="350" type="curve" smooth="yes"/>
      <point x="42.6667" y="93.3333"/>
      <point x="128" y="-10"/>
    </contour>
    <contour>
      <point x="297.667" y="73.3333" type="curve" smooth="yes" name="n16"/>
      <point x="230" y="73.3333"/>
      <point x="176.333" y="136"/>
      <point x="214.333" y="350" type="curve" smooth="yes"/>
      <point x="252.333" y="564"/>
      <point x="326.333" y="626.667"/>
      <point x="395" y="626.667" type="curve" smooth="yes" name="n22"/>
      <point x="462.667" y="626.667"/>
      <point x="515.667" y="564"/>
      <point x="477.667" y="350" type="curve" smooth="yes"/>
      <point x="439.667" y="136"/>
      <point x="366" y="73.3333"/>
    </contour>
  </outline>
</glyph>
<glyph name="Oacute" format="2">
  <advance width="620"/>
  <unicode hex="00D3"/>
  <outline>
    <contour>
      <point x="358" y="750" type="line"/>
      <point x="433" y="750" type="line" name="n01"/>
      <point x="556.667" y="900" type="line"/>
      <point x="430" y="900" type="line" name="n03"/>
    </contour>
    <contour>
      <point x="283" y="-10" type="curve" smooth="yes" name="n04"/>
      <point x="437.667" y="-10"/>
      <point x="559.333" y="93.3333"/>
      <point x="604.333" y="350" type="curve" smooth="yes"/>
      <point x="649.333" y="606.667"/>
      <point x="564.333" y="710"/>
      <point x="410" y="710" type="curve" smooth="yes" name="n10"/>
      <point x="255" y="710"/>
      <point x="132.667" y="606.667"/>
      <point x="87.6667" y="350" type="curve" smooth="yes"/>
      <point x="42.6667" y="93.3333"/>
      <point x="128" y="-10"/>
    </contour>
    <contour>
      <point x="297.667" y="73.3333" type="curve" smooth="yes" name="n16"/>
      <point x="230" y="73.3333"/>
      <point x="176.333" y="136"/>
      <point x="214.333" y="350" type="curve" smooth="yes"/>
      <point x="252.333" y="564"/>
      <point x="326.333" y="626.667"/>
      <point x="395" y="626.667" type="curve" smooth="yes" name="n22"/>
      <point x="462.667" y="626.667"/>
      <point x="515.667" y="564"/>
      <point x="477.667" y="350" type="curve" smooth="yes"/>
      <point x="439.667" y="136"/>
      <point x="366" y="73.3333"/>
    </contour>
  </outline>
</glyph>
<glyph name="Ocircumflex" format="2">
  <advance width="620"/>
  <unicode hex="00D4"/>
  <outline>
    <contour>
      <point x="264.667" y="760" type="line"/>
      <point x="349.667" y="760" type="line"/>
      <point x="430.667" y="828.333" type="line"/>
      <point x="486.333" y="760" type="line" name="n03"/>
      <point x="571.333" y="760" type="line"/>
      <point x="486.667" y="892.667" type="line" name="n05"/>
      <point x="396.667" y="892.667" type="line"/>
    </contour>
    <contour>
      <point x="283" y="-10" type="curve" smooth="yes" name="n07"/>
      <point x="437.667" y="-10"/>
      <point x="559.333" y="93.3333"/>
      <point x="604.333" y="350" type="curve" smooth="yes"/>
      <point x="649.333" y="606.667"/>
      <point x="564.333" y="710"/>
      <point x="410" y="710" type="curve" smooth="yes" name="n13"/>
      <point x="255" y="710"/>
      <point x="132.667" y="606.667"/>
      <point x="87.6667" y="350" type="curve" smooth="yes"/>
      <point x="42.6667" y="93.3333"/>
      <point x="128" y="-10"/>
    </contour>
    <contour>
      <point x="297.667" y="73.3333" type="curve" smooth="yes" name="n19"/>
      <point x="230" y="73.3333"/>
      <point x="176.333" y="136"/>
      <point x="214.333" y="350" type="curve" smooth="yes"/>
      <point x="252.333" y="564"/>
      <point x="326.333" y="626.667"/>
      <point x="395" y="626.667" type="curve" smooth="yes" name="n25"/>
      <point x="462.667" y="626.667"/>
      <point x="515.667" y="564"/>
      <point x="477.667" y="350" type="curve" smooth="yes"/>
      <point x="439.667" y="136"/>
      <point x="366" y="73.3333"/>
    </contour>
  </outline>
</glyph>
<glyph name="Otilde" format="2">
  <advance width="620"/>
  <unicode hex="00D5"/>
  <outline>
    <contour>
      <point x="369.667" y="766.667" type="curve"/>
      <point x="386.667" y="767.333"/>
      <point x="412.333" y="806"/>
      <point x="436" y="821.667" type="curve" name="n03"/>
      <point x="457.645" y="822.839"/>
      <point x="457.368" y="798.124"/>
      <point x="492" y="800" type="curve" name="n06"/>
      <point x="524.21" y="800"/>
      <point x="555.491" y="832.667"/>
      <point x="563.667" y="866.667" type="curve"/>
      <point x="563.434" y="866.473"/>
      <point x="529.636" y="868.818"/>
      <point x="512.667" y="873.333" type="curve"/>
      <point x="501.49" y="873.333"/>
      <point x="497.721" y="888.333"/>
      <point x="479.333" y="888.333" type="curve"/>
      <point x="463" y="887.667"/>
      <point x="437.333" y="847.667"/>
      <point x="413" y="833.333" type="curve" name="n18"/>
      <point x="391.352" y="832.163"/>
      <point x="390.352" y="856.839"/>
      <point x="356.333" y="855" type="curve" name="n21"/>
      <point x="322.808" y="855"/>
      <point x="292.844" y="822.333"/>
      <point x="284.667" y="788.333" type="curve"/>
      <point x="284.904" y="787.861"/>
      <point x="319.224" y="785.515"/>
      <point x="336.333" y="781.667" type="curve"/>
      <point x="347.51" y="781.667"/>
      <point x="351.279" y="766.667"/>
    </contour>
    <contour>
      <point x="367.667" y="470" type="curve" smooth="yes" name="n30"/>
      <point x="309" y="470"/>
      <point x="266" y="433.333"/>
      <point x="251" y="350" type="curve" smooth="yes"/>
      <point x="236" y="266.667"/>
      <point x="267" y="230"/>
      <point x="325.333" y="230" type="curve" smooth="yes" name="n36"/>
      <point x="383.667" y="230"/>
      <point x="426" y="266.667"/>
      <point x="441" y="350" type="curve" smooth="yes"/>
      <point x="456" y="433.333"/>
      <point x="425.333" y="470"/>
    </contour>
    <contour>
      <point x="412.333" y="253.333" type="curve" smooth="yes"/>
      <point x="362.667" y="112.667"/>
      <point x="296.333" y="96.6667"/>
      <point x="266.333" y="170" type="curve" smooth="yes" name="n45"/>
      <point x="237" y="243.333"/>
      <point x="229.667" y="306"/>
      <point x="279.667" y="446.667" type="curve" smooth="yes"/>
      <point x="328.667" y="587.333"/>
      <point x="396.333" y="603.333"/>
      <point x="426.333" y="530" type="curve" smooth="yes" name="n51"/>
      <point x="456.333" y="456.667"/>
      <point x="462" y="394"/>
    </contour>
  </outline>
</glyph>
<glyph name="Odieresis" format="2">
  <advance width="620"/>
  <unicode hex="00D6"/>
  <outline>
    <contour>
      <point x="323" y="768.333" type="curve" smooth="yes" name="n00"/>
      <point x="357.667" y="768.333"/>
      <point x="393.667" y="798"/>
      <point x="399.333" y="833.333" type="curve" smooth="yes"/>
      <point x="405.667" y="868.667"/>
      <point x="381.667" y="898.333"/>
      <point x="346.333" y="898.333" type="curve" smooth="yes" name="n06"/>
      <point x="311" y="898.333"/>
      <point x="276.333" y="868.667"/>
      <point x="269.333" y="833.333" type="curve" smooth="yes"/>
      <point x="262.333" y="798"/>
      <point x="287.667" y="768.333"/>
    </contour>
    <contour>
      <point x="511.333" y="768.333" type="curve" smooth="yes"/>
      <point x="546" y="768.333"/>
      <point x="582" y="798"/>
      <point x="587.667" y="833.333" type="curve" smooth="yes"/>
      <point x="594" y="868.667"/>
      <point x="570" y="898.333"/>
      <point x="534.667" y="898.333" type="curve" smooth="yes"/>
      <point x="499.333" y="898.333"/>
      <point x="464.667" y="868.667"/>
      <point x="457.667" y="833.333" type="curve" smooth="yes"/>
      <point x="450.667" y="798"/>
      <point x="476" y="768.333"/>
    </contour>
    <contour>
      <point x="283" y="-10" type="curve" smooth="yes" name="n24"/>
      <point x="437.667" y="-10"/>
      <point x="559.333" y="93.3333"/>
      <point x="604.333" y="350" type="curve" smooth="yes"/>
      <point x="649.333" y="606.667"/>
      <point x="564.333" y="710"/>
      <point x="410" y="710" type="curve" smooth="yes" name="n30"/>
      <point x="255" y="710"/>
      <point x="132.667" y="606.667"/>
      <point x="87.6667" y="350" type="curve" smooth="yes"/>
      <point x="42.6667" y="93.3333"/>
      <point x="128" y="-10"/>
    </contour>
    <contour>
      <point x="297.667" y="73.3333" type="curve" smooth="yes" name="n36"/>
      <point x="230" y="73.3333"/>
      <point x="176.333" y="136"/>
      <point x="214.333" y="350" type="curve" smooth="yes"/>
      <point x="252.333" y="564"/>
      <point x="326.333" y="626.667"/>
      <point x="395" y="626.667" type="curve" smooth="yes" name="n42"/>
      <point x="462.667" y="626.667"/>
      <point x="515.667" y="564"/>
      <point x="477.667" y="350" type="curve" smooth="yes"/>
      <point x="439.667" y="136"/>
      <point x="366" y="73.3333"/>
    </contour>
  </outline>
</glyph>
<glyph name="multiply" format="2">
  <advance width="439"/>
  <unicode hex="00D7"/>
  <outline>
    <contour>
      <point x="104.667" y="149" type="line" name="n00"/>
      <point x="240.667" y="264.333" type="line"/>
      <point x="335.667" y="149" type="line"/>
      <point x="412.667" y="214.333" type="line"/>
      <point x="318" y="330" type="line"/>
      <point x="453.667" y="445.667" type="line" name="n05"/>
      <point x="399.333" y="511" type="line"/>
      <point x="264" y="395.667" type="line"/>
      <point x="168.333" y="511" type="line" name="n08"/>
      <point x="91.3333" y="445.667" type="line"/>
      <point x="187" y="330" type="line"/>
      <point x="50.3333" y="214.333" type="line" name="n11"/>
    </contour>
  </outline>
</glyph>
<glyph name="Oslash" format="2">
  <advance width="620"/>
  <unicode hex="00D8"/>
  <outline>
    <contour>
      <point x="283" y="-10" type="curve" smooth="yes" name="n00"/>
      <point x="437.667" y="-10"/>
      <point x="559.333" y="93.3333" name="hr01"/>
      <point x="604.333" y="350" type="curve" smooth="yes"/>
      <point x="624.667" y="464.333"/>
      <point x="620" y="547.667"/>
      <point x="593" y="606" type="curve" name="n06"/>
      <point x="664.667" y="700" type="line"/>
      <point x="561.333" y="700" type="line" name="n08"/>
      <point x="540" y="672.333" type="line"/>
      <point x="507" y="697.667"/>
      <point x="463.667" y="710" name="hr02"/>
      <point x="410" y="710" type="curve" smooth="yes" name="n12"/>
      <point x="255" y="710"/>
      <point x="132.667" y="606.667" name="hr03"/>
      <point x="87.6667" y="350" type="curve" smooth="yes"/>
      <point x="67.3333" y="235"/>
      <point x="72" y="152.667"/>
      <point x="99" y="93.6667" type="curve" name="n18"/>
      <point x="28.3333" y="0" type="line"/>
      <point x="131.667" y="0" type="line" name="n20"/>
      <point x="152.333" y="27.6667" type="line"/>
      <point x="186.333" y="2"/>
      <point x="230" y="-10" name="hr04"/>
    </contour>
    <contour>
      <point x="202.667" y="228.667" type="line"/>
      <point x="202.333" y="261.667"/>
      <point x="206" y="302"/>
      <point x="214.333" y="350" type="curve" smooth="yes"/>
      <point x="252.333" y="564"/>
      <point x="326.333" y="626.667"/>
      <point x="395" y="626.667" type="curve" smooth="yes" name="n30"/>
      <point x="425.333" y="626.667"/>
      <point x="452.667" y="614.333"/>
      <point x="469.667" y="580.667" type="curve"/>
    </contour>
    <contour>
      <point x="297.667" y="73.3333" type="curve" smooth="yes" name="n34"/>
      <point x="266.667" y="73.3333"/>
      <point x="239.667" y="85.3333"/>
      <point x="221.667" y="119" type="curve"/>
      <point x="489.667" y="470.333" type="line"/>
      <point x="490" y="437"/>
      <point x="486" y="397.333"/>
      <point x="477.667" y="350" type="curve" smooth="yes"/>
      <point x="439.667" y="136"/>
      <point x="366" y="73.3333"/>
    </contour>
  </outline>
</glyph>
<glyph name="Uacute" format="2">
  <advance width="633"/>
  <unicode hex="00DA"/>
  <outline>
    <contour>
      <point x="370.667" y="730" type="line"/>
      <point x="445.667" y="730" type="line" name="n01"/>
      <point x="569.333" y="880" type="line"/>
      <point x="442.667" y="880" type="line" name="n03"/>
    </contour>
    <contour>
      <point x="289.667" y="-10" type="curve" smooth="yes" name="n04"/>
      <point x="442" y="-10"/>
      <point x="542.333" y="75.6667"/>
      <point x="569.333" y="226.667" type="curve" smooth="yes"/>
      <point x="653" y="700" type="line" name="n08"/>
      <point x="526.333" y="700" type="line"/>
      <point x="442.667" y="226.667" type="line" smooth="yes"/>
      <point x="423.667" y="119.667"/>
      <point x="369.667" y="73.3333"/>
      <point x="304.333" y="73.3333" type="curve" smooth="yes" name="n13"/>
      <point x="239" y="73.3333"/>
      <point x="200.333" y="119.667"/>
      <point x="219.333" y="226.667" type="curve" smooth="yes"/>
      <point x="303" y="700" type="line"/>
      <point x="176.333" y="700" type="line"/>
      <point x="92.6667" y="226.667" type="line" smooth="yes"/>
      <point x="65.6667" y="75.6667"/>
      <point x="137.333" y="-10"/>
    </contour>
  </outline>
</glyph>
<glyph name="Ucircumflex" format="2">
  <advance width="633"/>
  <unicode hex="00DB"/>
  <outline>
    <contour>
      <point x="271.333" y="760" type="line"/>
      <point x="356.333" y="760" type="line"/>
      <point x="437.333" y="828.333" type="line"/>
      <point x="493" y="760" type="line" name="n03"/>
      <point x="578" y="760" type="line"/>
      <point x="493.333" y="892.667" type="line" name="n05"/>
      <point x="403.333" y="892.667" type="line"/>
    </contour>
    <contour>
      <point x="289.667" y="-10" type="curve" smooth="yes" name="n07"/>
      <point x="442" y="-10"/>
      <point x="542.333" y="75.6667"/>
      <point x="569.333" y="226.667" type="curve" smooth="yes"/>
      <point x="653" y="700" type="line" name="n11"/>
      <point x="526.333" y="700" type="line"/>
      <point x="442.667" y="226.667" type="line" smooth="yes"/>
      <point x="423.667" y="119.667"/>
      <point x="369.667" y="73.3333"/>
      <point x="304.333" y="73.3333" type="curve" smooth="yes" name="n16"/>
      <point x="239" y="73.3333"/>
      <point x="200.333" y="119.667"/>
      <point x="219.333" y="226.667" type="curve" smooth="yes"/>
      <point x="303" y="700" type="line"/>
      <point x="176.333" y="700" type="line"/>
      <point x="92.6667" y="226.667" type="line" smooth="yes"/>
      <point x="65.6667" y="75.6667"/>
      <point x="137.333" y="-10"/>
    </contour>
  </outline>
</glyph>
<glyph name="Udieresis" format="2">
  <advance width="633"/>
  <unicode hex="00DC"/>
  <outline>
    <contour>
      <point x="329.667" y="768.333" type="curve" smooth="yes" name="n00"/>
      <point x="364.333" y="768.333"/>
      <point x="400.333" y="798"/>
      <point x="406" y="833.333" type="curve" smooth="yes"/>
      <point x="412.333" y="868.667"/>
      <point x="388.333" y="898.333"/>
      <point x="353" y="898.333" type="curve" smooth="yes" name="n06"/>
      <point x="317.667" y="898.333"/>
      <point x="283" y="868.667"/>
      <point x="276" y="833.333" type="curve" smooth="yes"/>
      <point x="269" y="798"/>
      <point x="294.333" y="768.333"/>
    </contour>
    <contour>
      <point x="518" y="768.333" type="curve" smooth="yes"/>
      <point x="552.667" y="768.333"/>
      <point x="588.667" y="798"/>
      <point x="594.333" y="833.333" type="curve" smooth="yes"/>
      <point x="600.667" y="868.667"/>
      <point x="576.667" y="898.333"/>
      <point x="541.333" y="898.333" type="curve" smooth="yes"/>
      <point x="506" y="898.333"/>
      <point x="471.333" y="868.667"/>
      <point x="464.333" y="833.333" type="curve" smooth="yes"/>
      <point x="457.333" y="798"/>
      <point x="482.667" y="768.333"/>
    </contour>
    <contour>
      <point x="289.667" y="-10" type="curve" smooth="yes" name="n24"/>
      <point x="442" y="-10"/>
      <point x="542.333" y="75.6667"/>
      <point x="569.333" y="226.667" type="curve" smooth="yes"/>
      <point x="653" y="700" type="line" name="n28"/>
      <point x="526.333" y="700" type="line"/>
      <point x="442.667" y="226.667" type="line" smooth="yes"/>
      <point x="423.667" y="119.667"/>
      <point x="369.667" y="73.3333"/>
      <point x="304.333" y="73.3333" type="curve" smooth="yes" name="n33"/>
      <point x="239" y="73.3333"/>
      <point x="200.333" y="119.667"/>
      <point x="219.333" y="226.667" type="curve" smooth="yes"/>
      <point x="303" y="700" type="line"/>
      <point x="176.333" y="700" type="line"/>
      <point x="92.6667" y="226.667" type="line" smooth="yes"/>
      <point x="65.6667" y="75.6667"/>
      <point x="137.333" y="-10"/>
    </contour>
  </outline>
</glyph>
<glyph name="Yacute" format="2">
  <advance width="557"/>
  <unicode hex="00DD"/>
  <outline>
    <contour>
      <point x="332.333" y="730" type="line"/>
      <point x="407.333" y="730" type="line" name="n01"/>
      <point x="531" y="880" type="line"/>
      <point x="404.333" y="880" type="line" name="n03"/>
    </contour>
    <contour>
      <point x="190" y="0" type="line" name="n04"/>
      <point x="316.667" y="0" type="line"/>
      <point x="356.667" y="230" type="line"/>
      <point x="654.667" y="700" type="line" name="n07"/>
      <point x="523" y="700" type="line"/>
      <point x="340.333" y="401.667" type="line" smooth="yes"/>
      <point x="333" y="390"/>
      <point x="328" y="379"/>
      <point x="323.667" y="368.667" type="curve"/>
      <point x="321.188" y="364.076"/>
      <point x="318.085" y="356.099"/>
      <point x="317" y="351.667" type="curve"/>
      <point x="313" y="351.667" type="line"/>
      <point x="313" y="357.333"/>
      <point x="313" y="363"/>
      <point x="312" y="368.667" type="curve"/>
      <point x="311" y="378.667"/>
      <point x="310" y="390"/>
      <point x="307" y="401.667" type="curve" smooth="yes"/>
      <point x="229.667" y="700" type="line"/>
      <point x="98" y="700" type="line" name="n24"/>
      <point x="230" y="230" type="line"/>
    </contour>
  </outline>
</glyph>
<glyph name="Thorn" format="2">
  <advance width="635"/>
  <unicode hex="00DE"/>
  <outline>
    <contour>
      <point x="57.6667" y="-20" type="line"/>
      <point x="184.333" y="-20" type="line"/>
      <point x="197" y="53.3333" type="line" name="n02"/>
      <point x="273.667" y="53.3333" type="line" smooth="yes"/>
      <point x="466" y="53.3333"/>
      <point x="597.333" y="165"/>
      <point x="629.333" y="350" type="curve" smooth="yes"/>
      <point x="661.667" y="535"/>
      <point x="571.333" y="646.667"/>
      <point x="378.333" y="646.667" type="curve" smooth="yes"/>
      <point x="301.667" y="646.667" type="line" name="n10"/>
      <point x="314.333" y="720" type="line"/>
      <point x="187.667" y="720" type="line"/>
    </contour>
    <contour>
      <point x="211.667" y="136.667" type="line" name="n13"/>
      <point x="287" y="563.333" type="line" name="n14"/>
      <point x="363.667" y="563.333" type="line" smooth="yes"/>
      <point x="467.667" y="563.333"/>
      <point x="527.667" y="491.667"/>
      <point x="502.667" y="350" type="curve" smooth="yes"/>
      <point x="478.333" y="208.333"/>
      <point x="393.667" y="136.667"/>
      <point x="288.333" y="136.667" type="curve" smooth="yes"/>
    </contour>
  </outline>
</glyph>
